<svg width="1140" height="241" viewBox="0 0 1140 241" fill="none" xmlns="http://www.w3.org/2000/svg">
<path d="M0 0H1140V225C1140 231.627 1134.63 237 1128 237H12C5.37256 237 0 231.627 0 225V0Z" fill="#E1FBFF"/>
<path d="M652.31 131.09C668.1 131.09 680.9 118.29 680.9 102.5C680.9 86.7103 668.1 73.9102 652.31 73.9102C636.52 73.9102 623.72 86.7103 623.72 102.5C623.72 118.29 636.52 131.09 652.31 131.09Z" stroke="#FF9A00" stroke-width="2" stroke-dasharray="5 5"/>
<path d="M634.15 109.34C632.45 109.34 631.2 107.66 631.77 106.06C633.12 102.3 636.72 99.6002 640.95 99.6002H650.5V94.8502C650.5 93.2502 649.21 91.9602 647.61 91.9602H637.1V95.8902H635.1C633.72 95.8902 632.6 94.7702 632.6 93.3902V89.9602C632.6 88.5802 633.72 87.4602 635.1 87.4602H647.61C651.69 87.4602 655.01 90.7702 655.01 94.8602V101.61C655.01 102.99 653.89 104.11 652.51 104.11H640.95C638.51 104.11 636.45 105.79 635.87 108.06C635.67 108.82 634.95 109.34 634.15 109.34Z" fill="#00AEFF"/>
<path d="M665.59 95.6602H658.75V100.17H665.59C667.19 100.17 668.48 101.46 668.48 103.06V107.81H658.93C654.71 107.81 651.1 110.51 649.75 114.27C649.17 115.87 650.43 117.55 652.13 117.55C652.93 117.55 653.65 117.03 653.85 116.26C654.43 113.99 656.49 112.31 658.93 112.31H670.48C671.86 112.31 672.98 111.19 672.98 109.81V103.06C672.98 98.9702 669.67 95.6602 665.59 95.6602Z" fill="#00AEFF"/>
<rect x="624" y="74" width="57" height="57" stroke="#00AEFF"/>
<rect x="678" y="71" width="6" height="6" fill="white" stroke="#00AEFF"/>
<rect x="621" y="71" width="6" height="6" fill="white" stroke="#00AEFF"/>
<rect x="621" y="128" width="6" height="6" fill="white" stroke="#00AEFF"/>
<rect x="678" y="128" width="6" height="6" fill="white" stroke="#00AEFF"/>
<rect x="774" y="174" width="122" height="44" stroke="#00AEFF"/>
<rect x="893" y="171" width="6" height="6" fill="white" stroke="#00AEFF"/>
<rect x="771" y="171" width="6" height="6" fill="white" stroke="#00AEFF"/>
<rect x="771" y="215" width="6" height="6" fill="white" stroke="#00AEFF"/>
<rect x="893" y="215" width="6" height="6" fill="white" stroke="#00AEFF"/>
<path d="M733.508 136.666V152H731.506V145.048H723.696V152H721.694V136.666H723.696V143.398H731.506V136.666H733.508ZM742.184 152.198C741.055 152.198 740.028 151.941 739.104 151.428C738.195 150.915 737.476 150.189 736.948 149.25C736.435 148.297 736.178 147.197 736.178 145.95C736.178 144.718 736.442 143.633 736.97 142.694C737.513 141.741 738.246 141.015 739.17 140.516C740.094 140.003 741.128 139.746 742.272 139.746C743.416 139.746 744.45 140.003 745.374 140.516C746.298 141.015 747.024 141.733 747.552 142.672C748.095 143.611 748.366 144.703 748.366 145.95C748.366 147.197 748.088 148.297 747.53 149.25C746.988 150.189 746.247 150.915 745.308 151.428C744.37 151.941 743.328 152.198 742.184 152.198ZM742.184 150.438C742.903 150.438 743.578 150.269 744.208 149.932C744.839 149.595 745.345 149.089 745.726 148.414C746.122 147.739 746.32 146.918 746.32 145.95C746.32 144.982 746.13 144.161 745.748 143.486C745.367 142.811 744.868 142.313 744.252 141.99C743.636 141.653 742.969 141.484 742.25 141.484C741.517 141.484 740.842 141.653 740.226 141.99C739.625 142.313 739.141 142.811 738.774 143.486C738.408 144.161 738.224 144.982 738.224 145.95C738.224 146.933 738.4 147.761 738.752 148.436C739.119 149.111 739.603 149.617 740.204 149.954C740.806 150.277 741.466 150.438 742.184 150.438ZM755.267 152.198C754.343 152.198 753.514 152.044 752.781 151.736C752.047 151.413 751.468 150.973 751.043 150.416C750.617 149.844 750.383 149.191 750.339 148.458H752.407C752.465 149.059 752.744 149.551 753.243 149.932C753.756 150.313 754.423 150.504 755.245 150.504C756.007 150.504 756.609 150.335 757.049 149.998C757.489 149.661 757.709 149.235 757.709 148.722C757.709 148.194 757.474 147.805 757.005 147.556C756.535 147.292 755.809 147.035 754.827 146.786C753.932 146.551 753.199 146.317 752.627 146.082C752.069 145.833 751.585 145.473 751.175 145.004C750.779 144.52 750.581 143.889 750.581 143.112C750.581 142.496 750.764 141.931 751.131 141.418C751.497 140.905 752.018 140.501 752.693 140.208C753.367 139.9 754.137 139.746 755.003 139.746C756.337 139.746 757.415 140.083 758.237 140.758C759.058 141.433 759.498 142.357 759.557 143.53H757.555C757.511 142.899 757.254 142.393 756.785 142.012C756.33 141.631 755.714 141.44 754.937 141.44C754.218 141.44 753.646 141.594 753.221 141.902C752.795 142.21 752.583 142.613 752.583 143.112C752.583 143.508 752.707 143.838 752.957 144.102C753.221 144.351 753.543 144.557 753.925 144.718C754.321 144.865 754.863 145.033 755.553 145.224C756.418 145.459 757.122 145.693 757.665 145.928C758.207 146.148 758.669 146.485 759.051 146.94C759.447 147.395 759.652 147.989 759.667 148.722C759.667 149.382 759.483 149.976 759.117 150.504C758.75 151.032 758.229 151.45 757.555 151.758C756.895 152.051 756.132 152.198 755.267 152.198ZM766.761 152.198C765.837 152.198 765.008 152.044 764.275 151.736C763.541 151.413 762.962 150.973 762.537 150.416C762.111 149.844 761.877 149.191 761.833 148.458H763.901C763.959 149.059 764.238 149.551 764.737 149.932C765.25 150.313 765.917 150.504 766.739 150.504C767.501 150.504 768.103 150.335 768.543 149.998C768.983 149.661 769.203 149.235 769.203 148.722C769.203 148.194 768.968 147.805 768.499 147.556C768.029 147.292 767.303 147.035 766.321 146.786C765.426 146.551 764.693 146.317 764.121 146.082C763.563 145.833 763.079 145.473 762.669 145.004C762.273 144.52 762.075 143.889 762.075 143.112C762.075 142.496 762.258 141.931 762.625 141.418C762.991 140.905 763.512 140.501 764.187 140.208C764.861 139.9 765.631 139.746 766.497 139.746C767.831 139.746 768.909 140.083 769.731 140.758C770.552 141.433 770.992 142.357 771.051 143.53H769.049C769.005 142.899 768.748 142.393 768.279 142.012C767.824 141.631 767.208 141.44 766.431 141.44C765.712 141.44 765.14 141.594 764.715 141.902C764.289 142.21 764.077 142.613 764.077 143.112C764.077 143.508 764.201 143.838 764.451 144.102C764.715 144.351 765.037 144.557 765.419 144.718C765.815 144.865 766.357 145.033 767.047 145.224C767.912 145.459 768.616 145.693 769.159 145.928C769.701 146.148 770.163 146.485 770.545 146.94C770.941 147.395 771.146 147.989 771.161 148.722C771.161 149.382 770.977 149.976 770.611 150.504C770.244 151.032 769.723 151.45 769.049 151.758C768.389 152.051 767.626 152.198 766.761 152.198ZM784.987 145.51C784.987 145.891 784.965 146.295 784.921 146.72H775.285C775.358 147.908 775.762 148.839 776.495 149.514C777.243 150.174 778.145 150.504 779.201 150.504C780.066 150.504 780.785 150.306 781.357 149.91C781.944 149.499 782.354 148.957 782.589 148.282H784.745C784.422 149.441 783.777 150.387 782.809 151.12C781.841 151.839 780.638 152.198 779.201 152.198C778.057 152.198 777.03 151.941 776.121 151.428C775.226 150.915 774.522 150.189 774.009 149.25C773.496 148.297 773.239 147.197 773.239 145.95C773.239 144.703 773.488 143.611 773.987 142.672C774.486 141.733 775.182 141.015 776.077 140.516C776.986 140.003 778.028 139.746 779.201 139.746C780.345 139.746 781.357 139.995 782.237 140.494C783.117 140.993 783.792 141.682 784.261 142.562C784.745 143.427 784.987 144.41 784.987 145.51ZM782.919 145.092C782.919 144.329 782.75 143.677 782.413 143.134C782.076 142.577 781.614 142.159 781.027 141.88C780.455 141.587 779.817 141.44 779.113 141.44C778.101 141.44 777.236 141.763 776.517 142.408C775.813 143.053 775.41 143.948 775.307 145.092H782.919ZM788.664 137.986C788.282 137.986 787.96 137.854 787.696 137.59C787.432 137.326 787.3 137.003 787.3 136.622C787.3 136.241 787.432 135.918 787.696 135.654C787.96 135.39 788.282 135.258 788.664 135.258C789.03 135.258 789.338 135.39 789.588 135.654C789.852 135.918 789.984 136.241 789.984 136.622C789.984 137.003 789.852 137.326 789.588 137.59C789.338 137.854 789.03 137.986 788.664 137.986ZM789.632 139.944V152H787.63V139.944H789.632ZM798.918 139.724C800.384 139.724 801.572 140.171 802.482 141.066C803.391 141.946 803.846 143.222 803.846 144.894V152H801.866V145.18C801.866 143.977 801.565 143.061 800.964 142.43C800.362 141.785 799.541 141.462 798.5 141.462C797.444 141.462 796.6 141.792 795.97 142.452C795.354 143.112 795.046 144.073 795.046 145.334V152H793.044V139.944H795.046V141.66C795.442 141.044 795.977 140.567 796.652 140.23C797.341 139.893 798.096 139.724 798.918 139.724Z" fill="#00AEFF"/>
<path fill-rule="evenodd" clip-rule="evenodd" d="M793.806 184.787V207H789.167V197.836H780.872V207H776.233V184.787H780.872V193.661H789.167V184.787H793.806ZM790.167 194.661H779.872V185.787H777.233V206H779.872V196.836H790.167V206H792.806V185.787H790.167V194.661ZM812.627 200.04H800.178C800.381 200.859 800.76 201.492 801.288 201.98C802.078 202.674 803.025 203.028 804.185 203.028C805.171 203.028 805.906 202.804 806.456 202.424C807.056 202.003 807.467 201.46 807.707 200.77L807.94 200.099H812.81L812.456 201.367C811.972 203.108 810.994 204.54 809.545 205.637L809.537 205.643C808.058 206.741 806.252 207.261 804.185 207.261C802.522 207.261 800.996 206.886 799.633 206.117L799.627 206.113C798.282 205.341 797.225 204.247 796.464 202.855L796.461 202.849C795.694 201.426 795.326 199.808 795.326 198.025C795.326 196.246 795.683 194.64 796.429 193.235C797.173 191.835 798.225 190.744 799.578 189.99C800.944 189.219 802.489 188.847 804.185 188.847C805.843 188.847 807.351 189.21 808.68 189.963C810 190.711 811.024 191.754 811.733 193.079C812.46 194.383 812.812 195.847 812.812 197.445C812.812 197.986 812.781 198.552 812.72 199.143L812.627 200.04ZM800.067 190.862C798.888 191.519 797.969 192.467 797.312 193.704C796.655 194.941 796.326 196.382 796.326 198.025C796.326 199.668 796.664 201.118 797.341 202.375C798.018 203.612 798.946 204.569 800.125 205.246C801.324 205.923 802.677 206.261 804.185 206.261C806.08 206.261 807.665 205.787 808.941 204.84C809.926 204.093 810.658 203.18 811.136 202.099C811.277 201.78 811.396 201.447 811.493 201.099H808.651C808.342 201.988 807.8 202.704 807.027 203.245C806.273 203.767 805.326 204.028 804.185 204.028C802.793 204.028 801.604 203.593 800.618 202.723C799.868 202.032 799.379 201.138 799.153 200.04C799.088 199.724 799.045 199.39 799.023 199.04H811.725C811.783 198.479 811.812 197.948 811.812 197.445C811.812 195.995 811.493 194.7 810.855 193.559C810.236 192.399 809.347 191.49 808.187 190.833C807.027 190.176 805.693 189.847 804.185 189.847C802.638 189.847 801.266 190.185 800.067 190.862ZM807.564 194.831C807.22 194.263 806.759 193.846 806.163 193.563L806.149 193.557L806.136 193.55C805.536 193.242 804.854 193.08 804.069 193.08C802.971 193.08 802.073 193.421 801.319 194.097C800.827 194.549 800.461 195.136 800.244 195.894H807.986C807.899 195.491 807.758 195.143 807.57 194.841L807.564 194.831ZM809.005 195.894C809.059 196.21 809.086 196.543 809.086 196.894H799.052C799.084 196.543 799.137 196.209 799.211 195.894C799.456 194.854 799.935 194.008 800.647 193.356C801.594 192.505 802.735 192.08 804.069 192.08C804.997 192.08 805.838 192.273 806.592 192.66C807.365 193.027 807.974 193.578 808.419 194.313C808.708 194.778 808.904 195.305 809.005 195.894ZM823.72 207L818.934 201.613V207H814.295V183.54H818.934V194.478L823.597 189.108H833.859V189.964C834.061 189.83 834.272 189.707 834.492 189.594L834.5 189.59C835.538 189.072 836.669 188.818 837.876 188.818C839.365 188.818 840.723 189.154 841.919 189.854C842.612 190.259 843.202 190.772 843.689 191.385C844.152 190.795 844.721 190.295 845.392 189.89C846.581 189.172 847.902 188.818 849.331 188.818C850.71 188.818 851.977 189.11 853.106 189.717C854.258 190.318 855.158 191.229 855.805 192.412C856.465 193.617 856.769 195.038 856.769 196.633V207H852.159V197.01C852.159 195.583 851.804 194.659 851.246 194.075L851.238 194.066L851.23 194.058C850.677 193.449 849.911 193.109 848.809 193.109C847.674 193.109 846.866 193.465 846.271 194.117L846.263 194.125C845.683 194.747 845.314 195.731 845.314 197.242V207H840.704V197.01C840.704 195.583 840.349 194.659 839.791 194.075L839.783 194.066L839.775 194.058C839.222 193.449 838.456 193.109 837.354 193.109C836.219 193.109 835.411 193.465 834.816 194.117L834.808 194.125C834.228 194.747 833.859 195.731 833.859 197.242V207H823.72ZM829.22 206.086V189.994L821.629 198.026L829.22 206.086ZM820.254 198.025L827.736 190.108H824.053L817.934 197.155V184.54H815.295V206H817.934V198.982L824.169 206H827.765L820.254 198.025ZM852.637 190.601C851.671 190.079 850.569 189.818 849.331 189.818C848.075 189.818 846.934 190.127 845.909 190.746C845.244 191.147 844.701 191.655 844.281 192.268C844.053 192.6 843.861 192.962 843.705 193.356C843.535 192.964 843.336 192.604 843.106 192.276C842.657 191.633 842.093 191.114 841.414 190.717C840.39 190.118 839.21 189.818 837.876 189.818C836.813 189.818 835.837 190.04 834.947 190.485C834.548 190.689 834.185 190.934 833.859 191.219C833.475 191.556 833.142 191.949 832.859 192.399V190.108H830.22V206H832.859V197.242C832.859 195.579 833.265 194.313 834.077 193.443C834.889 192.554 835.982 192.109 837.354 192.109C838.688 192.109 839.742 192.534 840.515 193.385C841.308 194.216 841.704 195.425 841.704 197.01V206H844.314V197.242C844.314 195.579 844.72 194.313 845.532 193.443C846.344 192.554 847.437 192.109 848.809 192.109C850.143 192.109 851.197 192.534 851.97 193.385C852.763 194.216 853.159 195.425 853.159 197.01V206H855.769V196.633C855.769 195.164 855.489 193.917 854.928 192.892C854.368 191.867 853.604 191.104 852.637 190.601ZM871.568 204.339C871.181 204.717 870.732 205.058 870.219 205.362C869.194 205.961 867.996 206.261 866.623 206.261C865.212 206.261 863.936 205.913 862.795 205.217C861.654 204.521 860.755 203.545 860.098 202.288C859.441 201.031 859.112 199.601 859.112 197.996C859.112 196.372 859.441 194.951 860.098 193.733C860.755 192.496 861.654 191.539 862.795 190.862C863.955 190.185 865.241 189.847 866.652 189.847C868.044 189.847 869.252 190.147 870.277 190.746C870.767 191.033 871.198 191.355 871.568 191.712C871.973 192.102 872.306 192.534 872.568 193.008V190.108H875.236V206H872.568V203.042C872.302 203.514 871.969 203.947 871.568 204.339ZM871.568 205.658C871.305 205.858 871.025 206.047 870.729 206.222L870.724 206.225C869.524 206.927 868.145 207.261 866.623 207.261C865.039 207.261 863.581 206.868 862.274 206.071C860.969 205.274 859.948 204.159 859.212 202.751C858.471 201.334 858.112 199.741 858.112 197.996C858.112 196.236 858.469 194.648 859.216 193.261C859.955 191.873 860.978 190.777 862.285 190.002L862.291 189.998C863.612 189.228 865.073 188.847 866.652 188.847C868.191 188.847 869.58 189.179 870.782 189.883C871.059 190.045 871.321 190.218 871.568 190.403V189.108H876.236V207H871.568V205.658ZM869.372 193.729L869.36 193.722C868.709 193.335 867.988 193.138 867.174 193.138C866.352 193.138 865.626 193.329 864.973 193.702C864.336 194.066 863.815 194.601 863.413 195.341C863.023 196.059 862.809 196.933 862.809 197.996C862.809 199.078 863.023 199.973 863.415 200.712C863.817 201.451 864.339 201.997 864.981 202.381C865.632 202.751 866.356 202.941 867.174 202.941C867.995 202.941 868.72 202.75 869.372 202.379C870.034 201.993 870.563 201.446 870.963 200.712C871.356 199.971 871.568 199.085 871.568 198.025C871.568 196.962 871.355 196.088 870.965 195.37C870.566 194.636 870.039 194.102 869.384 193.736L869.372 193.729ZM871.843 201.186C871.36 202.075 870.702 202.762 869.871 203.245C869.059 203.709 868.16 203.941 867.174 203.941C866.188 203.941 865.289 203.709 864.477 203.245C863.665 202.762 863.017 202.075 862.534 201.186C862.051 200.277 861.809 199.214 861.809 197.996C861.809 196.797 862.051 195.753 862.534 194.864C863.017 193.975 863.665 193.298 864.477 192.834C865.289 192.37 866.188 192.138 867.174 192.138C868.16 192.138 869.059 192.38 869.871 192.863C870.702 193.327 871.36 194.004 871.843 194.893C872.326 195.782 872.568 196.826 872.568 198.025C872.568 199.224 872.326 200.277 871.843 201.186ZM888.062 202.767V207H884.684C883.08 207 881.69 206.632 880.7 205.72C879.67 204.772 879.276 203.325 879.276 201.65V193.283H877.217V189.108H879.276V185.106H883.915V189.108H888.062V193.283H883.915V201.65C883.915 202.28 884.046 202.515 884.104 202.584C884.169 202.634 884.425 202.767 885.119 202.767H888.062ZM882.915 201.65C882.915 202.423 883.079 202.974 883.408 203.303C883.736 203.612 884.307 203.767 885.119 203.767H887.062V206H884.684C883.214 206 882.112 205.662 881.378 204.985C880.643 204.308 880.276 203.197 880.276 201.65V192.283H878.217V190.108H880.276V186.106H882.915V190.108H887.062V192.283H882.915V201.65ZM893.898 189.108V207H889.259V189.108H893.898ZM891.622 188.527C890.861 188.527 890.179 188.252 889.639 187.712C889.099 187.172 888.824 186.49 888.824 185.729C888.824 184.967 889.099 184.286 889.639 183.746C890.179 183.206 890.861 182.931 891.622 182.931C892.373 182.931 893.039 183.212 893.557 183.756C894.091 184.294 894.362 184.972 894.362 185.729C894.362 186.486 894.091 187.164 893.557 187.702C893.039 188.245 892.373 188.527 891.622 188.527ZM892.84 187.005C893.188 186.657 893.362 186.232 893.362 185.729C893.362 185.226 893.188 184.801 892.84 184.453C892.512 184.105 892.106 183.931 891.622 183.931C891.12 183.931 890.694 184.105 890.346 184.453C889.998 184.801 889.824 185.226 889.824 185.729C889.824 186.232 889.998 186.657 890.346 187.005C890.694 187.353 891.12 187.527 891.622 187.527C892.106 187.527 892.512 187.353 892.84 187.005ZM892.898 190.108H890.259V206H892.898V190.108Z" fill="#00AEFF"/>
<path d="M653 0L653 74" stroke="#00AEFF" stroke-dasharray="2 2"/>
<path d="M835 103L835 174" stroke="#00AEFF" stroke-dasharray="2 2"/>
<path d="M774 194L653 194" stroke="#00AEFF" stroke-dasharray="2 2"/>
<path d="M1140 194L896 194" stroke="#00AEFF" stroke-dasharray="2 2"/>
<path d="M835 218L835 237" stroke="#00AEFF" stroke-dasharray="2 2"/>
<path d="M653 131L653 237" stroke="#00AEFF" stroke-dasharray="2 2"/>
<path d="M624 103L-1.23978e-05 103" stroke="#00AEFF" stroke-dasharray="2 2"/>
<path d="M1140 103L681 103" stroke="#00AEFF" stroke-dasharray="2 2"/>
<rect x="879" y="24" width="92" height="63" fill="white"/>
<rect x="882" y="27" width="86" height="34" fill="#4B4B4B"/>
<path d="M903.826 72.007L903.319 74.412H905.178V75.218H903.15L902.552 78H901.681L902.279 75.218H899.393L898.795 78H897.924L898.522 75.218H896.455V74.412H898.691L899.198 72.007H897.17V71.201H899.38L899.978 68.38H900.849L900.251 71.201H903.137L903.735 68.38H904.606L904.008 71.201H905.893V72.007H903.826ZM902.955 72.007H900.069L899.562 74.412H902.448L902.955 72.007ZM906.992 75.79V75.101L911.724 68.731H912.803V74.997H914.194V75.79H912.803V78H911.906V75.79H906.992ZM911.945 69.732L908.045 74.997H911.945V69.732ZM919.813 73.307C920.325 73.4023 920.758 73.6623 921.113 74.087C921.469 74.5117 921.646 75.0057 921.646 75.569C921.646 76.0283 921.529 76.4443 921.295 76.817C921.07 77.181 920.736 77.4713 920.294 77.688C919.852 77.896 919.324 78 918.708 78H915.562V68.913H918.617C919.536 68.913 920.234 69.1253 920.71 69.55C921.196 69.9747 921.438 70.525 921.438 71.201C921.438 71.7643 921.287 72.2237 920.983 72.579C920.68 72.9257 920.29 73.1683 919.813 73.307ZM916.472 72.93H918.591C919.207 72.93 919.679 72.787 920.008 72.501C920.346 72.2063 920.515 71.8033 920.515 71.292C920.515 70.7893 920.346 70.395 920.008 70.109C919.679 69.823 919.194 69.68 918.552 69.68H916.472V72.93ZM918.643 77.233C919.302 77.233 919.813 77.077 920.177 76.765C920.55 76.453 920.736 76.024 920.736 75.478C920.736 74.932 920.541 74.4987 920.151 74.178C919.77 73.8487 919.254 73.684 918.604 73.684H916.472V77.233H918.643ZM922.721 75.79V75.101L927.453 68.731H928.532V74.997H929.923V75.79H928.532V78H927.635V75.79H922.721ZM927.674 69.732L923.774 74.997H927.674V69.732ZM935.543 73.307C936.054 73.4023 936.488 73.6623 936.843 74.087C937.198 74.5117 937.376 75.0057 937.376 75.569C937.376 76.0283 937.259 76.4443 937.025 76.817C936.8 77.181 936.466 77.4713 936.024 77.688C935.582 77.896 935.053 78 934.438 78H931.292V68.913H934.347C935.266 68.913 935.963 69.1253 936.44 69.55C936.925 69.9747 937.168 70.525 937.168 71.201C937.168 71.7643 937.016 72.2237 936.713 72.579C936.41 72.9257 936.02 73.1683 935.543 73.307ZM932.202 72.93H934.321C934.936 72.93 935.409 72.787 935.738 72.501C936.076 72.2063 936.245 71.8033 936.245 71.292C936.245 70.7893 936.076 70.395 935.738 70.109C935.409 69.823 934.923 69.68 934.282 69.68H932.202V72.93ZM934.373 77.233C935.032 77.233 935.543 77.077 935.907 76.765C936.28 76.453 936.466 76.024 936.466 75.478C936.466 74.932 936.271 74.4987 935.881 74.178C935.5 73.8487 934.984 73.684 934.334 73.684H932.202V77.233H934.373ZM938.451 75.79V75.101L943.183 68.731H944.262V74.997H945.653V75.79H944.262V78H943.365V75.79H938.451ZM943.404 69.732L939.504 74.997H943.404V69.732ZM951.272 73.307C951.784 73.4023 952.217 73.6623 952.572 74.087C952.928 74.5117 953.105 75.0057 953.105 75.569C953.105 76.0283 952.988 76.4443 952.754 76.817C952.529 77.181 952.195 77.4713 951.753 77.688C951.311 77.896 950.783 78 950.167 78H947.021V68.913H950.076C950.995 68.913 951.693 69.1253 952.169 69.55C952.655 69.9747 952.897 70.525 952.897 71.201C952.897 71.7643 952.746 72.2237 952.442 72.579C952.139 72.9257 951.749 73.1683 951.272 73.307ZM947.931 72.93H950.05C950.666 72.93 951.138 72.787 951.467 72.501C951.805 72.2063 951.974 71.8033 951.974 71.292C951.974 70.7893 951.805 70.395 951.467 70.109C951.138 69.823 950.653 69.68 950.011 69.68H947.931V72.93ZM950.102 77.233C950.761 77.233 951.272 77.077 951.636 76.765C952.009 76.453 952.195 76.024 952.195 75.478C952.195 74.932 952 74.4987 951.61 74.178C951.229 73.8487 950.713 73.684 950.063 73.684H947.931V77.233H950.102Z" fill="black"/>
<rect x="958" y="137" width="92" height="63" fill="white"/>
<rect x="961" y="140" width="86" height="34" fill="#67C15E"/>
<path d="M984.826 185.007L984.319 187.412H986.178V188.218H984.15L983.552 191H982.681L983.279 188.218H980.393L979.795 191H978.924L979.522 188.218H977.455V187.412H979.691L980.198 185.007H978.17V184.201H980.38L980.978 181.38H981.849L981.251 184.201H984.137L984.735 181.38H985.606L985.008 184.201H986.893V185.007H984.826ZM983.955 185.007H981.069L980.562 187.412H983.448L983.955 185.007ZM993.751 183.954C993.56 182.827 992.906 182.264 991.788 182.264C990.938 182.264 990.301 182.593 989.877 183.252C989.452 183.911 989.257 184.99 989.292 186.489C989.465 185.969 989.794 185.562 990.28 185.267C990.774 184.964 991.337 184.812 991.97 184.812C992.88 184.812 993.599 185.094 994.128 185.657C994.665 186.212 994.934 186.979 994.934 187.958C994.934 188.53 994.821 189.05 994.596 189.518C994.379 189.977 994.041 190.346 993.582 190.623C993.131 190.9 992.568 191.039 991.892 191.039C990.6 191.039 989.708 190.627 989.214 189.804C988.728 188.981 988.486 187.815 988.486 186.307C988.486 183.1 989.586 181.497 991.788 181.497C992.62 181.497 993.274 181.727 993.751 182.186C994.227 182.637 994.509 183.226 994.596 183.954H993.751ZM991.801 185.592C991.393 185.592 991.008 185.674 990.644 185.839C990.28 186.004 989.981 186.255 989.747 186.593C989.521 186.922 989.409 187.33 989.409 187.815C989.409 188.517 989.617 189.102 990.033 189.57C990.449 190.038 991.055 190.272 991.853 190.272C992.52 190.272 993.053 190.068 993.452 189.661C993.85 189.254 994.05 188.699 994.05 187.997C994.05 187.243 993.855 186.654 993.465 186.229C993.075 185.804 992.52 185.592 991.801 185.592ZM1002.15 182.394L998.521 191H997.598L1001.26 182.472H996.064V181.692H1002.15V182.394ZM1003.28 186.45C1003.28 185.557 1003.48 184.76 1003.87 184.058C1004.26 183.347 1004.79 182.797 1005.47 182.407C1006.14 182.008 1006.9 181.809 1007.73 181.809C1008.74 181.809 1009.61 182.052 1010.33 182.537C1011.06 183.014 1011.58 183.69 1011.91 184.565H1010.85C1010.59 183.95 1010.19 183.469 1009.65 183.122C1009.12 182.775 1008.48 182.602 1007.73 182.602C1007.06 182.602 1006.46 182.758 1005.92 183.07C1005.39 183.382 1004.98 183.833 1004.67 184.422C1004.37 185.003 1004.22 185.679 1004.22 186.45C1004.22 187.221 1004.37 187.897 1004.67 188.478C1004.98 189.059 1005.39 189.505 1005.92 189.817C1006.46 190.129 1007.06 190.285 1007.73 190.285C1008.48 190.285 1009.12 190.116 1009.65 189.778C1010.19 189.431 1010.59 188.955 1010.85 188.348H1011.91C1011.58 189.215 1011.06 189.886 1010.33 190.363C1009.6 190.84 1008.73 191.078 1007.73 191.078C1006.9 191.078 1006.14 190.883 1005.47 190.493C1004.79 190.094 1004.26 189.544 1003.87 188.842C1003.48 188.14 1003.28 187.343 1003.28 186.45ZM1013.09 182.498V181.679H1015.3V191H1014.38V182.498H1013.09ZM1023.2 182.459H1018.45V185.787C1018.66 185.484 1018.98 185.237 1019.39 185.046C1019.81 184.847 1020.26 184.747 1020.75 184.747C1021.46 184.747 1022.04 184.894 1022.49 185.189C1022.94 185.475 1023.26 185.852 1023.46 186.32C1023.66 186.779 1023.76 187.273 1023.76 187.802C1023.76 188.409 1023.65 188.959 1023.41 189.453C1023.19 189.938 1022.84 190.324 1022.36 190.61C1021.89 190.896 1021.31 191.039 1020.6 191.039C1019.71 191.039 1018.99 190.809 1018.43 190.35C1017.88 189.882 1017.54 189.254 1017.42 188.465H1018.32C1018.43 189.037 1018.69 189.479 1019.1 189.791C1019.5 190.103 1020.01 190.259 1020.6 190.259C1021.36 190.259 1021.93 190.038 1022.31 189.596C1022.7 189.145 1022.89 188.552 1022.89 187.815C1022.89 187.096 1022.7 186.537 1022.31 186.138C1021.92 185.731 1021.36 185.527 1020.63 185.527C1020.13 185.527 1019.68 185.644 1019.3 185.878C1018.92 186.112 1018.64 186.428 1018.46 186.827H1017.6V181.666H1023.2V182.459ZM1026.46 182.654V186.047H1029.9V186.801H1026.46V190.246H1030.29V191H1025.55V181.9H1030.29V182.654H1026.46Z" fill="black"/>
<rect x="359" y="56" width="92" height="63" fill="white"/>
<rect x="362" y="59" width="86" height="34" fill="#F94E43"/>
<path d="M384.826 104.007L384.319 106.412H386.178V107.218H384.15L383.552 110H382.681L383.279 107.218H380.393L379.795 110H378.924L379.522 107.218H377.455V106.412H379.691L380.198 104.007H378.17V103.201H380.38L380.978 100.38H381.849L381.251 103.201H384.137L384.735 100.38H385.606L385.008 103.201H386.893V104.007H384.826ZM383.955 104.007H381.069L380.562 106.412H383.448L383.955 104.007ZM393.504 100.913V101.667H389.5V105.06H392.88V105.814H389.5V110H388.59V100.913H393.504ZM396.015 107.517C396.11 108.08 396.327 108.514 396.665 108.817C397.003 109.12 397.467 109.272 398.056 109.272C398.871 109.272 399.473 108.956 399.863 108.323C400.262 107.682 400.444 106.624 400.409 105.151C400.244 105.628 399.928 106.005 399.46 106.282C399.001 106.551 398.472 106.685 397.874 106.685C396.964 106.685 396.232 106.412 395.677 105.866C395.131 105.32 394.858 104.562 394.858 103.591C394.858 103.01 394.971 102.486 395.196 102.018C395.421 101.55 395.764 101.182 396.223 100.913C396.682 100.644 397.246 100.51 397.913 100.51C399.144 100.51 400.002 100.913 400.487 101.719C400.972 102.516 401.215 103.665 401.215 105.164C401.215 106.785 400.972 108.002 400.487 108.817C400.01 109.632 399.187 110.039 398.017 110.039C397.159 110.039 396.492 109.809 396.015 109.35C395.538 108.882 395.257 108.271 395.17 107.517H396.015ZM398.017 105.905C398.424 105.905 398.797 105.823 399.135 105.658C399.482 105.485 399.759 105.233 399.967 104.904C400.175 104.575 400.279 104.18 400.279 103.721C400.279 103.01 400.075 102.425 399.668 101.966C399.269 101.507 398.693 101.277 397.939 101.277C397.272 101.277 396.734 101.485 396.327 101.901C395.928 102.317 395.729 102.872 395.729 103.565C395.729 104.293 395.928 104.865 396.327 105.281C396.726 105.697 397.289 105.905 398.017 105.905ZM402.528 107.79V107.101L407.26 100.731H408.339V106.997H409.73V107.79H408.339V110H407.442V107.79H402.528ZM407.481 101.732L403.581 106.997H407.481V101.732ZM412.009 101.654V105.047H415.454V105.801H412.009V109.246H415.844V110H411.099V100.9H415.844V101.654H412.009ZM417.039 107.79V107.101L421.771 100.731H422.85V106.997H424.241V107.79H422.85V110H421.953V107.79H417.039ZM421.992 101.732L418.092 106.997H421.992V101.732ZM425.375 103.058C425.436 102.269 425.739 101.65 426.285 101.199C426.84 100.74 427.555 100.51 428.43 100.51C429.011 100.51 429.509 100.614 429.925 100.822C430.341 101.03 430.653 101.316 430.861 101.68C431.078 102.035 431.186 102.438 431.186 102.889C431.186 103.435 431.026 103.907 430.705 104.306C430.385 104.705 429.93 104.952 429.34 105.047V105.112C429.956 105.233 430.445 105.502 430.809 105.918C431.173 106.325 431.355 106.863 431.355 107.53C431.355 108.275 431.104 108.886 430.601 109.363C430.107 109.831 429.388 110.065 428.443 110.065C427.542 110.065 426.801 109.831 426.22 109.363C425.64 108.886 425.306 108.215 425.219 107.348H426.103C426.181 107.929 426.424 108.401 426.831 108.765C427.239 109.12 427.776 109.298 428.443 109.298C429.102 109.298 429.605 109.125 429.951 108.778C430.307 108.431 430.484 107.989 430.484 107.452C430.484 106.135 429.535 105.476 427.637 105.476H427.351V104.709H427.65C429.418 104.709 430.302 104.133 430.302 102.98C430.302 102.477 430.138 102.074 429.808 101.771C429.479 101.459 429.011 101.303 428.404 101.303C427.815 101.303 427.325 101.459 426.935 101.771C426.554 102.074 426.329 102.503 426.259 103.058H425.375Z" fill="black"/>
<rect x="287" y="182" width="92" height="55" fill="white"/>
<rect x="290" y="185" width="86" height="34" fill="#007EBB"/>
<path d="M312.826 230.007L312.319 232.412H314.178V233.218H312.15L311.552 236H310.681L311.279 233.218H308.393L307.795 236H306.924L307.522 233.218H305.455V232.412H307.691L308.198 230.007H306.17V229.201H308.38L308.978 226.38H309.849L309.251 229.201H312.137L312.735 226.38H313.606L313.008 229.201H314.893V230.007H312.826ZM311.955 230.007H309.069L308.562 232.412H311.448L311.955 230.007ZM316.395 231.255C316.395 229.764 316.624 228.607 317.084 227.784C317.543 226.961 318.366 226.549 319.554 226.549C320.741 226.549 321.564 226.961 322.024 227.784C322.483 228.607 322.713 229.764 322.713 231.255C322.713 232.772 322.483 233.946 322.024 234.778C321.564 235.61 320.741 236.026 319.554 236.026C318.358 236.026 317.53 235.61 317.071 234.778C316.62 233.946 316.395 232.772 316.395 231.255ZM321.816 231.255C321.816 230.449 321.759 229.769 321.647 229.214C321.534 228.659 321.313 228.213 320.984 227.875C320.654 227.537 320.178 227.368 319.554 227.368C318.93 227.368 318.453 227.537 318.124 227.875C317.794 228.213 317.573 228.659 317.461 229.214C317.348 229.769 317.292 230.449 317.292 231.255C317.292 232.087 317.348 232.785 317.461 233.348C317.573 233.903 317.794 234.349 318.124 234.687C318.453 235.025 318.93 235.194 319.554 235.194C320.178 235.194 320.654 235.025 320.984 234.687C321.313 234.349 321.534 233.903 321.647 233.348C321.759 232.785 321.816 232.087 321.816 231.255ZM324.406 231.255C324.406 229.764 324.635 228.607 325.095 227.784C325.554 226.961 326.377 226.549 327.565 226.549C328.752 226.549 329.575 226.961 330.035 227.784C330.494 228.607 330.724 229.764 330.724 231.255C330.724 232.772 330.494 233.946 330.035 234.778C329.575 235.61 328.752 236.026 327.565 236.026C326.369 236.026 325.541 235.61 325.082 234.778C324.631 233.946 324.406 232.772 324.406 231.255ZM329.827 231.255C329.827 230.449 329.77 229.769 329.658 229.214C329.545 228.659 329.324 228.213 328.995 227.875C328.665 227.537 328.189 227.368 327.565 227.368C326.941 227.368 326.464 227.537 326.135 227.875C325.805 228.213 325.584 228.659 325.472 229.214C325.359 229.769 325.303 230.449 325.303 231.255C325.303 232.087 325.359 232.785 325.472 233.348C325.584 233.903 325.805 234.349 326.135 234.687C326.464 235.025 326.941 235.194 327.565 235.194C328.189 235.194 328.665 235.025 328.995 234.687C329.324 234.349 329.545 233.903 329.658 233.348C329.77 232.785 329.827 232.087 329.827 231.255ZM337.993 227.394L334.366 236H333.443L337.109 227.472H331.909V226.692H337.993V227.394ZM340.453 227.654V231.047H343.898V231.801H340.453V235.246H344.288V236H339.543V226.9H344.288V227.654H340.453ZM350.332 231.307C350.843 231.402 351.277 231.662 351.632 232.087C351.987 232.512 352.165 233.006 352.165 233.569C352.165 234.028 352.048 234.444 351.814 234.817C351.589 235.181 351.255 235.471 350.813 235.688C350.371 235.896 349.842 236 349.227 236H346.081V226.913H349.136C350.055 226.913 350.752 227.125 351.229 227.55C351.714 227.975 351.957 228.525 351.957 229.201C351.957 229.764 351.805 230.224 351.502 230.579C351.199 230.926 350.809 231.168 350.332 231.307ZM346.991 230.93H349.11C349.725 230.93 350.198 230.787 350.527 230.501C350.865 230.206 351.034 229.803 351.034 229.292C351.034 228.789 350.865 228.395 350.527 228.109C350.198 227.823 349.712 227.68 349.071 227.68H346.991V230.93ZM349.162 235.233C349.821 235.233 350.332 235.077 350.696 234.765C351.069 234.453 351.255 234.024 351.255 233.478C351.255 232.932 351.06 232.499 350.67 232.178C350.289 231.849 349.773 231.684 349.123 231.684H346.991V235.233H349.162ZM358.089 231.307C358.6 231.402 359.034 231.662 359.389 232.087C359.744 232.512 359.922 233.006 359.922 233.569C359.922 234.028 359.805 234.444 359.571 234.817C359.346 235.181 359.012 235.471 358.57 235.688C358.128 235.896 357.599 236 356.984 236H353.838V226.913H356.893C357.812 226.913 358.509 227.125 358.986 227.55C359.471 227.975 359.714 228.525 359.714 229.201C359.714 229.764 359.562 230.224 359.259 230.579C358.956 230.926 358.566 231.168 358.089 231.307ZM354.748 230.93H356.867C357.482 230.93 357.955 230.787 358.284 230.501C358.622 230.206 358.791 229.803 358.791 229.292C358.791 228.789 358.622 228.395 358.284 228.109C357.955 227.823 357.469 227.68 356.828 227.68H354.748V230.93ZM356.919 235.233C357.578 235.233 358.089 235.077 358.453 234.765C358.826 234.453 359.012 234.024 359.012 233.478C359.012 232.932 358.817 232.499 358.427 232.178C358.046 231.849 357.53 231.684 356.88 231.684H354.748V235.233H356.919Z" fill="black"/>
<path d="M896 205L774 205" stroke="#00AEFF"/>
<rect y="28" width="44" height="63" fill="white"/>
<rect y="31" width="41" height="34" fill="#FFEE54"/>
<path d="M1.95 73.654V77.047H5.395V77.801H1.95V81.246H5.785V82H1.04V72.9H5.785V73.654H1.95ZM13.2591 73.459H8.50109V76.787C8.71775 76.4837 9.03409 76.2367 9.45009 76.046C9.86609 75.8467 10.3168 75.747 10.8021 75.747C11.5128 75.747 12.0934 75.8943 12.5441 76.189C12.9948 76.475 13.3198 76.852 13.5191 77.32C13.7184 77.7793 13.8181 78.2733 13.8181 78.802C13.8181 79.4087 13.7011 79.959 13.4671 80.453C13.2418 80.9383 12.8908 81.324 12.4141 81.61C11.9461 81.896 11.3611 82.039 10.6591 82.039C9.76642 82.039 9.04275 81.8093 8.48809 81.35C7.93342 80.882 7.59542 80.2537 7.47409 79.465H8.37109C8.48375 80.037 8.74375 80.479 9.15109 80.791C9.55842 81.103 10.0611 81.259 10.6591 81.259C11.4131 81.259 11.9808 81.038 12.3621 80.596C12.7521 80.1453 12.9471 79.5517 12.9471 78.815C12.9471 78.0957 12.7521 77.5367 12.3621 77.138C11.9721 76.7307 11.4131 76.527 10.6851 76.527C10.1824 76.527 9.74042 76.644 9.35909 76.878C8.97775 77.112 8.69609 77.4283 8.51409 77.827H7.65609V72.666H13.2591V73.459ZM15.0035 79.79V79.101L19.7355 72.731H20.8145V78.997H22.2055V79.79H20.8145V82H19.9175V79.79H15.0035ZM19.9565 73.732L16.0565 78.997H19.9565V73.732Z" fill="black"/>
<path d="M41 154.125C42.3462 154.125 43.4375 153.034 43.4375 151.688C43.4375 150.341 42.3462 149.25 41 149.25C39.6538 149.25 38.5625 150.341 38.5625 151.688C38.5625 153.034 39.6538 154.125 41 154.125Z" fill="#00AEFF"/>
<path d="M47.5 159C48.8462 159 49.9375 157.909 49.9375 156.562C49.9375 155.216 48.8462 154.125 47.5 154.125C46.1538 154.125 45.0625 155.216 45.0625 156.562C45.0625 157.909 46.1538 159 47.5 159Z" fill="#00AEFF"/>
<path d="M36.9375 157.375C36.9375 158.721 35.8462 159.812 34.5 159.812C33.1538 159.812 32.0625 158.721 32.0625 157.375C32.0625 156.029 33.1538 154.938 34.5 154.938C35.8462 154.938 36.9375 156.029 36.9375 157.375Z" fill="#00AEFF"/>
<path d="M37.75 167.125C39.0962 167.125 40.1875 166.034 40.1875 164.688C40.1875 163.341 39.0962 162.25 37.75 162.25C36.4038 162.25 35.3125 163.341 35.3125 164.688C35.3125 166.034 36.4038 167.125 37.75 167.125Z" fill="#00AEFF"/>
<path d="M54 159C54 164.12 50.9671 163.201 48.2041 162.363C46.5568 161.864 45.0055 161.394 44.25 162.25C43.2705 163.36 43.4783 165.205 43.6796 166.994C43.9679 169.555 44.2431 172 41 172C33.8203 172 28 166.18 28 159C28 151.82 33.8203 146 41 146C48.1797 146 54 151.82 54 159ZM41 170.375C41.993 170.375 42.0621 170.096 42.064 170.089C42.1909 169.852 42.2656 169.334 42.1777 168.271C42.155 167.998 42.1184 167.668 42.0785 167.31C41.9947 166.556 41.8969 165.677 41.8869 164.934C41.8715 163.786 42.0225 162.318 43.0317 161.175C43.6301 160.497 44.4043 160.235 45.0977 160.17C45.755 160.108 46.4184 160.212 46.9825 160.339C47.5401 160.464 48.1238 160.641 48.6485 160.8L48.6951 160.814C49.2563 160.984 49.7628 161.136 50.2429 161.245C51.3041 161.486 51.7118 161.38 51.8538 161.285C51.9158 161.243 52.375 160.887 52.375 159C52.375 152.718 47.2822 147.625 41 147.625C34.7178 147.625 29.625 152.718 29.625 159C29.625 165.282 34.7178 170.375 41 170.375Z" fill="#00AEFF"/>
<path d="M159.104 183.585C158.324 182.805 157.059 182.805 156.278 183.585L151.07 188.794L150 187.723C149.677 187.4 149.153 187.4 148.83 187.723C148.506 188.047 148.506 188.571 148.83 188.894L150.727 190.792L138.898 202.621C138.743 202.776 138.655 202.987 138.655 203.206V206.174L137.242 207.587C136.919 207.91 136.919 208.434 137.242 208.758C137.566 209.081 138.09 209.081 138.413 208.758L139.826 207.345H142.794C143.013 207.345 143.224 207.258 143.379 207.102L155.208 195.273L157.106 197.17C157.429 197.494 157.953 197.494 158.277 197.17C158.6 196.847 158.6 196.323 158.277 196L157.206 194.93L162.415 189.722C163.195 188.941 163.195 187.676 162.415 186.896L159.104 183.585ZM140.311 203.549L151.898 191.962L154.038 194.102L142.451 205.689H140.311V203.549Z" fill="#00AEFF"/>
<path d="M419.113 146.017C418.298 144.825 417.464 143.819 416.711 143.124C416.297 142.74 415.868 142.414 415.449 142.216C415.063 142.033 414.454 141.855 413.88 142.183C413.227 142.556 413.12 143.292 413.115 143.759C413.11 144.295 413.229 144.929 413.422 145.598C413.772 146.808 414.411 148.291 415.264 149.829L409.437 155.601C408.944 156.089 408.959 156.757 409.049 157.219C409.147 157.717 409.382 158.263 409.689 158.81C410.308 159.914 411.324 161.208 412.581 162.453C413.838 163.698 415.144 164.704 416.259 165.318C416.811 165.622 417.362 165.855 417.865 165.951C418.331 166.041 419.006 166.055 419.498 165.567L429.485 155.676C429.695 156.129 429.649 156.577 429.573 157.33C429.52 157.845 429.453 158.502 429.444 159.401C429.443 159.436 429.442 159.471 429.443 159.505L429.443 159.619L429.449 159.617C429.483 160.017 429.655 160.407 429.964 160.713C430.658 161.401 431.784 161.401 432.479 160.713C432.788 160.407 432.959 160.017 432.994 159.618L433 159.618C433 159.585 433 159.551 432.999 159.518C433.001 159.449 432.999 159.38 432.993 159.312C432.894 157.11 431.747 154.489 429.686 153.157C429.58 152.906 429.452 152.649 429.308 152.393C428.689 151.288 427.673 149.995 426.416 148.75C425.159 147.505 423.853 146.498 422.738 145.885C422.186 145.581 421.635 145.348 421.132 145.251C420.666 145.162 419.991 145.147 419.498 145.636L419.113 146.017ZM415.498 144.411C416.177 145.039 417 146.036 417.831 147.287L416.578 148.529C415.899 147.247 415.405 146.058 415.132 145.114C414.988 144.614 414.916 144.217 414.898 143.929C415.061 144.036 415.262 144.194 415.498 144.411ZM416.198 151.396C417.16 152.897 418.169 154.157 419.058 154.978C419.417 155.309 419.98 155.29 420.315 154.934C420.649 154.578 420.63 154.021 420.27 153.689C419.464 152.944 418.462 151.687 417.489 150.117L419.424 148.2C419.519 148.413 419.629 148.628 419.75 148.844C420.369 149.948 421.386 151.242 422.643 152.487C423.9 153.732 425.206 154.739 426.32 155.352C426.538 155.472 426.756 155.581 426.97 155.675L418.324 164.238C418.296 164.237 418.257 164.232 418.203 164.222C417.96 164.175 417.595 164.038 417.123 163.778C416.189 163.264 415.013 162.37 413.839 161.207C412.665 160.044 411.762 158.879 411.243 157.954C410.981 157.486 410.843 157.125 410.795 156.884C410.785 156.831 410.78 156.792 410.778 156.764L416.198 151.396ZM421.305 147.988C421.07 147.57 420.934 147.237 420.875 146.999C421.115 147.058 421.452 147.192 421.874 147.425C422.807 147.938 423.984 148.832 425.158 149.996C425.959 150.789 426.634 151.584 427.147 152.303C426.556 152.259 425.923 152.307 425.251 152.465C424.81 152.101 424.355 151.691 423.9 151.241C422.726 150.078 421.823 148.913 421.305 147.988Z" fill="#00AEFF"/>
<path d="M845.061 34.8795L847.742 36.2197C848.086 36.3918 848.086 36.883 847.742 37.0552L835.918 42.9672C835.655 43.0987 835.345 43.0987 835.082 42.9672L823.258 37.0552C822.914 36.8831 822.914 36.3918 823.258 36.2197L825.939 34.8795L834.247 39.0336C835.036 39.4281 835.964 39.4281 836.753 39.0336L845.061 34.8795Z" fill="#00AEFF"/>
<path d="M835.082 19.0986C835.345 18.9671 835.655 18.9671 835.918 19.0986L847.742 25.0106C848.086 25.1827 848.086 25.674 847.742 25.8461L835.918 31.7581C835.655 31.8896 835.345 31.8896 835.082 31.7581L823.258 25.8461C822.914 25.674 822.914 25.1827 823.258 25.0106L835.082 19.0986Z" fill="#00AEFF"/>
<path d="M845.061 29.275L847.742 30.6152C848.086 30.7873 848.086 31.2785 847.742 31.4506L835.918 37.3627C835.655 37.4941 835.345 37.4941 835.082 37.3627L823.258 31.4506C822.914 31.2785 822.914 30.7873 823.258 30.6152L825.939 29.275L834.247 33.4291C835.036 33.8235 835.964 33.8235 836.753 33.4291L845.061 29.275Z" fill="#00AEFF"/>
<path fill-rule="evenodd" clip-rule="evenodd" d="M597.562 141.625C597.114 141.625 596.75 141.989 596.75 142.438V163.562C596.75 164.011 597.114 164.375 597.562 164.375C598.011 164.375 598.375 164.011 598.375 163.562V142.438C598.375 141.989 598.011 141.625 597.562 141.625Z" fill="#00AEFF"/>
<path fill-rule="evenodd" clip-rule="evenodd" d="M576.438 141.625C575.989 141.625 575.625 141.989 575.625 142.438V163.562C575.625 164.011 575.989 164.375 576.438 164.375C576.886 164.375 577.25 164.011 577.25 163.562V142.438C577.25 141.989 576.886 141.625 576.438 141.625Z" fill="#00AEFF"/>
<path d="M583.75 161.125C583.75 162.022 584.478 162.75 585.375 162.75H588.625C589.522 162.75 590.25 162.022 590.25 161.125V144.875C590.25 143.978 589.522 143.25 588.625 143.25H585.375C584.478 143.25 583.75 143.978 583.75 144.875V161.125Z" fill="#00AEFF"/>
<path fill-rule="evenodd" clip-rule="evenodd" d="M895.438 128.625C895.886 128.625 896.25 128.989 896.25 129.438V150.562C896.25 151.011 895.886 151.375 895.438 151.375C894.989 151.375 894.625 151.011 894.625 150.562V129.438C894.625 128.989 894.989 128.625 895.438 128.625Z" fill="#00AEFF"/>
<path d="M897.875 138.375C897.875 137.478 898.603 136.75 899.5 136.75H915.75C916.647 136.75 917.375 137.478 917.375 138.375V141.625C917.375 142.522 916.647 143.25 915.75 143.25H899.5C898.603 143.25 897.875 142.522 897.875 141.625V138.375Z" fill="#00AEFF"/>
<path fill-rule="evenodd" clip-rule="evenodd" d="M506.625 215.562C506.625 215.114 506.989 214.75 507.437 214.75L528.562 214.75C529.011 214.75 529.375 215.114 529.375 215.562C529.375 216.011 529.011 216.375 528.562 216.375L507.438 216.375C506.989 216.375 506.625 216.011 506.625 215.562Z" fill="#00AEFF"/>
<path d="M516.375 213.125C515.478 213.125 514.75 212.397 514.75 211.5L514.75 195.25C514.75 194.353 515.478 193.625 516.375 193.625L519.625 193.625C520.522 193.625 521.25 194.353 521.25 195.25L521.25 211.5C521.25 212.397 520.522 213.125 519.625 213.125L516.375 213.125Z" fill="#00AEFF"/>
<path d="M715.657 29.0508C717.086 27.6497 719.403 27.6497 720.832 29.0508L727.928 36.0088C729.357 37.4099 729.357 39.6816 727.928 41.0827L717.865 50.9492C717.179 51.622 716.249 52 715.278 52H710.233C709.263 52 708.332 51.622 707.646 50.9492L703.072 46.4644C701.643 45.0633 701.643 42.7916 703.072 41.3905L715.657 29.0508ZM719.538 30.3193C718.824 29.6188 717.665 29.6188 716.951 30.3193L708.475 38.6298L718.159 48.1248L726.635 39.8142C727.349 39.1137 727.349 37.9778 726.635 37.2773L719.538 30.3193ZM716.865 49.3932L707.181 39.8983L704.365 42.659C703.651 43.3595 703.651 44.4954 704.365 45.1959L708.939 49.6807C709.283 50.0171 709.748 50.2061 710.233 50.2061H715.278C715.763 50.2061 716.229 50.0171 716.572 49.6807L716.865 49.3932Z" fill="#00AEFF"/>
<path fill-rule="evenodd" clip-rule="evenodd" d="M502.562 74.5C507.499 74.5 511.5 70.4985 511.5 65.5625C511.5 60.6265 507.499 56.625 502.562 56.625C497.626 56.625 493.625 60.6265 493.625 65.5625C493.625 70.4985 497.626 74.5 502.562 74.5ZM513.125 65.5625C513.125 71.396 508.396 76.125 502.562 76.125C496.729 76.125 492 71.396 492 65.5625C492 59.729 496.729 55 502.562 55C508.396 55 513.125 59.729 513.125 65.5625Z" fill="#00AEFF"/>
<path d="M508.809 74.081C508.857 74.146 508.91 74.2082 508.969 74.267L515.226 80.5241C515.861 81.1587 516.889 81.1587 517.524 80.5241C518.159 79.8895 518.159 78.8606 517.524 78.226L511.267 71.969C511.208 71.9101 511.146 71.8567 511.081 71.8088C510.444 72.6767 509.677 73.4436 508.809 74.081Z" fill="#00AEFF"/>
<path fill-rule="evenodd" clip-rule="evenodd" d="M502.562 59.875C503.011 59.875 503.375 60.2388 503.375 60.6875V64.75H507.438C507.886 64.75 508.25 65.1138 508.25 65.5625C508.25 66.0112 507.886 66.375 507.438 66.375H503.375V70.4375C503.375 70.8862 503.011 71.25 502.562 71.25C502.114 71.25 501.75 70.8862 501.75 70.4375V66.375H497.688C497.239 66.375 496.875 66.0112 496.875 65.5625C496.875 65.1138 497.239 64.75 497.688 64.75H501.75V60.6875C501.75 60.2388 502.114 59.875 502.562 59.875Z" fill="#00AEFF"/>
<path fill-rule="evenodd" clip-rule="evenodd" d="M282.688 42.25C281.341 42.25 280.25 43.3413 280.25 44.6875C280.25 46.0337 281.341 47.125 282.688 47.125C284.034 47.125 285.125 46.0337 285.125 44.6875C285.125 43.3413 284.034 42.25 282.688 42.25ZM278.706 43.875C279.083 42.0207 280.722 40.625 282.688 40.625C284.653 40.625 286.292 42.0207 286.669 43.875H290V45.5H286.669C286.292 47.3543 284.653 48.75 282.688 48.75C280.722 48.75 279.083 47.3543 278.706 45.5H264V43.875H278.706ZM271.312 50.375C269.966 50.375 268.875 51.4663 268.875 52.8125C268.875 54.1587 269.966 55.25 271.312 55.25C272.659 55.25 273.75 54.1587 273.75 52.8125C273.75 51.4663 272.659 50.375 271.312 50.375ZM267.331 52C267.708 50.1457 269.347 48.75 271.312 48.75C273.278 48.75 274.917 50.1457 275.294 52H290V53.625H275.294C274.917 55.4793 273.278 56.875 271.312 56.875C269.347 56.875 267.708 55.4793 267.331 53.625H264V52H267.331ZM282.688 58.5C281.341 58.5 280.25 59.5913 280.25 60.9375C280.25 62.2837 281.341 63.375 282.688 63.375C284.034 63.375 285.125 62.2837 285.125 60.9375C285.125 59.5913 284.034 58.5 282.688 58.5ZM278.706 60.125C279.083 58.2707 280.722 56.875 282.688 56.875C284.653 56.875 286.292 58.2707 286.669 60.125H290V61.75H286.669C286.292 63.6043 284.653 65 282.688 65C280.722 65 279.083 63.6043 278.706 61.75H264V60.125H278.706Z" fill="#00AEFF"/>
<path fill-rule="evenodd" clip-rule="evenodd" d="M255.301 128.05C255.618 127.733 256.132 127.733 256.45 128.05L262.95 134.55C263.267 134.868 263.267 135.382 262.95 135.7L259.859 138.79L258.512 144.175C258.304 145.009 257.672 145.672 256.848 145.919L240.038 150.962L245.081 134.152C245.328 133.328 245.991 132.696 246.825 132.488L252.21 131.141L255.301 128.05ZM252.376 132.775L247.219 134.064C246.941 134.134 246.72 134.344 246.638 134.619L242.462 148.538L256.381 144.362C256.656 144.28 256.866 144.059 256.936 143.781L258.225 138.624L252.376 132.775Z" fill="#00AEFF"/>
<path fill-rule="evenodd" clip-rule="evenodd" d="M242.602 148.496L251 141.625C251.898 141.625 252.625 140.897 252.625 140C252.625 139.103 251.898 138.375 251 138.375C250.103 138.375 249.375 139.103 249.375 140L242.504 148.398L242.462 148.538L242.602 148.496Z" fill="#00AEFF"/>
<path d="M1055.12 36.25V33H1047V41.125H1050.25V50.875H1047V59H1055.12V55.75H1064.88V59H1073V50.875H1069.75V41.125H1073V33H1064.88V36.25H1055.12ZM1064.88 37.875V41.125H1068.12V50.875H1064.88V54.125H1055.12V50.875H1051.88V41.125H1055.12V37.875H1064.88ZM1066.5 34.625H1071.38V39.5H1066.5V34.625ZM1071.38 52.5V57.375H1066.5V52.5H1071.38ZM1053.5 57.375H1048.62V52.5H1053.5V57.375ZM1048.62 39.5V34.625H1053.5V39.5H1048.62Z" fill="#00AEFF"/>
<path d="M80 25.25C80 23.4551 81.4551 22 83.25 22H96.25C98.0449 22 99.5 23.4551 99.5 25.25V28.5H102.75C104.545 28.5 106 29.9551 106 31.75V44.75C106 46.5449 104.545 48 102.75 48H89.75C87.9551 48 86.5 46.5449 86.5 44.75V41.5H83.25C81.4551 41.5 80 40.0449 80 38.25V25.25ZM88.125 41.5V44.75C88.125 45.6475 88.8525 46.375 89.75 46.375H102.75C103.647 46.375 104.375 45.6475 104.375 44.75V31.75C104.375 30.8525 103.647 30.125 102.75 30.125H99.5V38.25C99.5 40.0449 98.0449 41.5 96.25 41.5H88.125ZM97.875 28.5V25.25C97.875 24.3525 97.1475 23.625 96.25 23.625H83.25C82.3525 23.625 81.625 24.3525 81.625 25.25V38.25C81.625 39.1475 82.3525 39.875 83.25 39.875H86.5V31.75C86.5 29.9551 87.9551 28.5 89.75 28.5H97.875Z" fill="#00AEFF"/>
<path d="M1080 137.125C1080 135.399 1081.46 134 1083.25 134H1096.25C1098.04 134 1099.5 135.399 1099.5 137.125V140.25H1102.75C1104.54 140.25 1106 141.649 1106 143.375V155.875C1106 157.601 1104.54 159 1102.75 159H1089.75C1087.96 159 1086.5 157.601 1086.5 155.875V152.75H1083.25C1081.46 152.75 1080 151.351 1080 149.625V137.125ZM1083.25 135.562C1082.35 135.562 1081.62 136.262 1081.62 137.125V149.625C1081.62 150.488 1082.35 151.188 1083.25 151.188H1096.25C1097.15 151.188 1097.88 150.488 1097.88 149.625V137.125C1097.88 136.262 1097.15 135.562 1096.25 135.562H1083.25Z" fill="#00AEFF"/>
</svg>
