<svg width="20" height="20" viewBox="0 0 20 20" fill="none" xmlns="http://www.w3.org/2000/svg">
<g clip-path="url(#clip0_80_2026)">
<path fill-rule="evenodd" clip-rule="evenodd" d="M14.7727 17.0827C14.6857 16.5677 14.2306 14.0608 13.1099 10.9836C15.8676 10.5427 18.256 11.2987 18.4324 11.3563C18.0526 13.7363 16.6896 15.7881 14.7727 17.0827ZM10.0006 18.5408C7.9332 18.5408 6.03751 17.8059 4.5593 16.583C4.67219 16.6747 4.75098 16.7323 4.75098 16.7323C4.75098 16.7323 6.38796 13.1624 11.4529 11.3975C11.4717 11.3904 11.4918 11.3857 11.5106 11.3799C12.7124 14.5017 13.2075 17.1168 13.3345 17.8635C12.3102 18.2985 11.1825 18.5408 10.0006 18.5408ZM1.4594 9.99941C1.4594 9.90887 1.46411 9.81951 1.46646 9.73014C1.61817 9.73367 5.8376 9.82891 10.2346 8.51314C10.4792 8.99171 10.7132 9.47968 10.9273 9.96531C10.8144 9.99588 10.7026 10.03 10.5909 10.0676C5.98224 11.5562 3.64438 15.7023 3.64438 15.7023C3.64438 15.7023 3.64791 15.7058 3.64791 15.707C2.2873 14.1937 1.4594 12.1935 1.4594 9.99941ZM6.3562 2.27762C6.47027 2.4293 8.04964 4.57052 9.52785 7.19736C5.42719 8.28738 1.86747 8.24387 1.64285 8.24034C2.19674 5.59468 3.97365 3.40173 6.3562 2.27762ZM7.95437 1.70851C7.95437 1.70968 7.9532 1.71086 7.9532 1.71086C7.9532 1.71086 7.94261 1.71321 7.92733 1.71556C7.93673 1.71321 7.94496 1.71203 7.95437 1.70851ZM15.6406 3.59222C15.6195 3.62397 14.4035 5.47593 11.1789 6.68352C9.71953 4.00141 8.11548 1.87078 7.9873 1.70145C8.63292 1.54507 9.30675 1.46041 10.0006 1.46041C12.162 1.46041 14.1365 2.26704 15.6406 3.59222ZM18.5383 9.91475C18.4148 9.8877 15.5242 9.26568 12.5901 9.6349C12.529 9.48909 12.469 9.34211 12.4055 9.19513C12.2279 8.77653 12.0362 8.36263 11.8375 7.95579C15.2102 6.57887 16.579 4.59992 16.5955 4.5764C17.7927 6.03093 18.5183 7.88876 18.5383 9.91475ZM19.7977 7.98754C19.666 7.34552 19.4684 6.71174 19.2133 6.10736C18.9639 5.51473 18.6523 4.94327 18.2913 4.40943C17.935 3.8803 17.5234 3.38174 17.0718 2.93021C16.619 2.47751 16.1216 2.06714 15.5912 1.70968C15.0573 1.34752 14.4858 1.03828 13.8931 0.786644C13.2887 0.532661 12.656 0.33512 12.0139 0.2046C11.3553 0.0693783 10.678 0 10.0006 0C9.32204 0 8.64468 0.0693783 7.98613 0.2046C7.34404 0.33512 6.71134 0.532661 6.10689 0.786644C5.51419 1.03828 4.94266 1.34752 4.40759 1.70968C3.87839 2.06714 3.38096 2.47751 2.9282 2.93021C2.47662 3.38174 2.06622 3.8803 1.70872 4.40943C1.34769 4.94327 1.03605 5.51473 0.786743 6.10736C0.530378 6.71174 0.333976 7.34552 0.202265 7.98754C0.068203 8.64484 0 9.32212 0 9.99941C0 10.679 0.068203 11.3563 0.202265 12.0148C0.333976 12.6568 0.530378 13.2894 0.786743 13.8926C1.03605 14.4853 1.34769 15.0591 1.70872 15.5929C2.06622 16.1221 2.47662 16.6183 2.9282 17.0721C3.38096 17.5237 3.87839 17.9329 4.40759 18.2915C4.94266 18.6525 5.51419 18.9629 6.10689 19.2134C6.71134 19.4697 7.34404 19.6649 7.98613 19.7954C8.64468 19.9318 9.32204 20 10.0006 20C10.678 20 11.3553 19.9318 12.0139 19.7954C12.656 19.6649 13.2887 19.4697 13.8931 19.2134C14.4858 18.9629 15.0573 18.6525 15.5912 18.2915C16.1216 17.9329 16.619 17.5237 17.0718 17.0721C17.5234 16.6183 17.935 16.1221 18.2913 15.5929C18.6523 15.0591 18.9639 14.4853 19.2133 13.8926C19.4684 13.2894 19.666 12.6568 19.7977 12.0148C19.9318 11.3563 20 10.679 20 9.99941C20 9.32212 19.9318 8.64484 19.7977 7.98754Z" fill="#EC4989"/>
</g>
<defs>
<clipPath id="clip0_80_2026">
<rect width="20" height="20" fill="white"/>
</clipPath>
</defs>
</svg>
