<?xml version="1.0" encoding="utf-8"?>
<!-- Generator: Adobe Illustrator 27.0.0, SVG Export Plug-In . SVG Version: 6.00 Build 0)  -->
<svg version="1.1" id="Layer_1" xmlns="http://www.w3.org/2000/svg" xmlns:xlink="http://www.w3.org/1999/xlink" x="0px" y="0px"
	 viewBox="0 0 71 71" style="enable-background:new 0 0 71 71;" xml:space="preserve">
<style type="text/css">
	.st0{fill:url(#SVGID_1_);}
	.st1{fill:#FFFFFF;}
	.st2{fill:#8E8E8E;}
	
		.st3{clip-path:url(#SVGID_00000096046167417479546910000016588403914377981103_);fill-rule:evenodd;clip-rule:evenodd;fill:#7F79AC;}
	
		.st4{clip-path:url(#SVGID_00000096046167417479546910000016588403914377981103_);fill:none;stroke:#FFFFFF;stroke-width:0.75;stroke-miterlimit:10;}
	.st5{clip-path:url(#SVGID_00000096046167417479546910000016588403914377981103_);fill:#7F79AC;}
	.st6{clip-path:url(#SVGID_00000096046167417479546910000016588403914377981103_);fill:#FFFFFF;}
	.st7{clip-path:url(#SVGID_00000096046167417479546910000016588403914377981103_);}
	.st8{clip-path:url(#SVGID_00000065033378057513037250000001853786046620024756_);fill:#FFFFFF;}
	.st9{clip-path:url(#SVGID_00000091008174759163135580000003866331002511689151_);fill:#FFFFFF;}
	.st10{clip-path:url(#SVGID_00000036962594762238426320000003942061319967749033_);}
	.st11{clip-path:url(#SVGID_00000019644726124113065710000009408281028557501075_);fill:none;stroke:#1D1D1B;stroke-width:0.5;}
	.st12{fill:#B8845B;}
	.st13{fill:#785439;}
	.st14{fill:#956B49;}
	.st15{fill:#583C28;}
	.st16{fill:#72B248;}
	.st17{fill:#60A036;}
	.st18{fill:#9BCA6B;}
	.st19{fill:#56962C;}
	.st20{fill:#6B6B6B;}
	.st21{opacity:0.1;fill:#FFFFFF;enable-background:new    ;}
	.st22{fill:#231F20;}
	.st23{fill:#EBEBEB;}
	.st24{fill:#32C5F4;}
	.st25{fill:#279FDA;}
	.st26{fill:#0CC243;}
	.st27{fill-rule:evenodd;clip-rule:evenodd;fill:#FFFFFF;}
</style>
<g>
	<path d="M12.73,3.21c-3.69,0-5.05,1.36-5.05,5.05v44.58c0,0.42,0.02,0.8,0.05,1.16c0.09,0.81,0.1,1.6,0.85,2.48
		c0.07,0.1,0.83,0.66,0.83,0.66c0.41,0.2,0.69,0.34,1.16,0.54L33,67.08c1.16,0.53,1.65,0.74,2.49,0.71h0.01
		c0.85,0.03,1.34-0.18,2.5-0.71l22.42-9.4c0.47-0.19,0.74-0.33,1.16-0.54c0,0,0.76-0.57,0.83-0.66c0.75-0.89,0.76-1.67,0.85-2.48
		c0.03-0.36,0.05-0.74,0.05-1.16V8.26c0-3.69-1.37-5.05-5.06-5.05H12.73z M48.67,11.58h1.83c3.05,0,4.54,1.49,4.54,4.57v5.06h-3.69
		v-4.85c0-0.99-0.46-1.45-1.41-1.45H49.3c-0.99,0-1.45,0.46-1.45,1.45v15.64c0,0.98,0.46,1.44,1.45,1.44H50
		c0.95,0,1.4-0.46,1.4-1.44v-5.6h3.7v5.77c0,3.08-1.52,4.6-4.58,4.6h-1.86c-3.07,0-4.57-1.53-4.57-4.6V16.18
		C44.09,13.1,45.6,11.58,48.67,11.58z M15.87,11.78h8.38v3.44h-4.62v7.01h4.45v3.43h-4.45v7.46h4.68v3.43h-8.44L15.87,11.78z
		 M26.14,11.78h5.91c3.06,0,4.57,1.53,4.57,4.61v6.58c0,3.08-1.52,4.6-4.57,4.6h-2.14v8.98h-3.77L26.14,11.78z M38.33,11.78h3.76
		v24.77h-3.76V11.78z M29.9,15.12v9.12h1.56c0.94,0,1.4-0.46,1.4-1.45v-6.22c0-1-0.46-1.45-1.4-1.45L29.9,15.12z M19.53,42.44h0.56
		l0.12,0.02h0.2l0.1,0.03h0.1l0.1,0.03l0.1,0.02l0.09,0.02L21,42.59l0.09,0.02l0.1,0.03l0.08,0.02l0.08,0.03l0.1,0.03l0.08,0.04
		l0.1,0.04l0.09,0.04l0.08,0.05l0.1,0.04l0.07,0.05l0.1,0.05l0.08,0.05l0.09,0.05l0.08,0.06l0.08,0.05l0.08,0.06l0.08,0.06
		l0.08,0.07l0.08,0.06l-0.06,0.08l-0.07,0.07l-0.06,0.08l-0.07,0.08l-0.06,0.07l-0.06,0.07l-0.07,0.08l-0.06,0.08l-0.06,0.07
		l-0.07,0.08l-0.06,0.08l-0.07,0.08l-0.06,0.07l-0.06,0.08l-0.07,0.08l-0.06,0.08l-0.07,0.07l-0.06,0.08l-0.08-0.06l-0.08-0.07
		l-0.08-0.05l-0.09-0.06l-0.07-0.05l-0.09-0.05l-0.08-0.05l-0.09-0.05l-0.08-0.04l-0.08-0.04l-0.08-0.03l-0.09-0.03l-0.1-0.03
		l-0.08-0.02l-0.1-0.02l-0.1-0.02l-0.1-0.01h-0.11l-0.12-0.02h-0.2l-0.1,0.01h-0.1l-0.1,0.03l-0.09,0.02l-0.09,0.03l-0.1,0.03
		l-0.08,0.04l-0.1,0.04l-0.07,0.05l-0.08,0.05l-0.08,0.05l-0.07,0.06l-0.07,0.06l-0.07,0.06l-0.06,0.07l-0.08,0.07l-0.05,0.08
		l-0.05,0.07l-0.06,0.08l-0.04,0.09l-0.05,0.08l-0.05,0.09l-0.03,0.09l-0.04,0.09l-0.03,0.1l-0.01,0.1l-0.03,0.09l-0.02,0.11v0.1
		l-0.02,0.1v0.24l0.01,0.1l0.01,0.09l0.01,0.1l0.02,0.1l0.03,0.08l0.01,0.1l0.03,0.08l0.03,0.08l0.04,0.1l0.05,0.1l0.04,0.08
		l0.05,0.08l0.06,0.08l0.06,0.08l0.05,0.07l0.08,0.07l0.06,0.07l0.07,0.06l0.08,0.06l0.08,0.06l0.08,0.05l0.08,0.05l0.09,0.04
		l0.1,0.04l0.08,0.04l0.1,0.03l0.1,0.03l0.1,0.02l0.1,0.02l0.1,0.01l0.12,0.01h0.33l0.12-0.02h0.1l0.1-0.03l0.1-0.02l0.1-0.03
		l0.09-0.02l0.09-0.04l0.08-0.04l0.1-0.04l0.06-0.04l0.08-0.05v-0.93h-1.49v-1.51H23V49l-0.07,0.06l-0.08,0.06l-0.07,0.05
		l-0.08,0.06l-0.08,0.05l-0.08,0.06l-0.08,0.05l-0.08,0.05l-0.1,0.05l-0.09,0.05l-0.08,0.05l-0.1,0.04l-0.08,0.05l-0.1,0.04
		l-0.1,0.04l-0.1,0.04l-0.09,0.04l-0.09,0.03l-0.09,0.03l-0.1,0.03l-0.09,0.03l-0.1,0.03l-0.09,0.02l-0.1,0.02l-0.1,0.02l-0.1,0.02
		l-0.1,0.01l-0.1,0.01l-0.1,0.01l-0.12,0.01l-0.1,0.01L20,50.15h-0.53l-0.11-0.02h-0.1l-0.1-0.02h-0.1l-0.1-0.03l-0.1-0.02
		l-0.1-0.02l-0.1-0.02l-0.08-0.03l-0.1-0.02l-0.1-0.03l-0.09-0.04l-0.09-0.03l-0.1-0.04l-0.09-0.04l-0.1-0.04L17.8,49.7l-0.1-0.05
		l-0.07-0.05l-0.1-0.05l-0.07-0.05l-0.08-0.05l-0.08-0.06l-0.08-0.06l-0.09-0.06l-0.06-0.06l-0.08-0.06l-0.07-0.07l-0.07-0.06
		l-0.07-0.07l-0.06-0.07l-0.07-0.07l-0.06-0.08l-0.06-0.07l-0.05-0.08l-0.06-0.08l-0.05-0.08l-0.05-0.08l-0.05-0.09l-0.05-0.08
		l-0.04-0.09l-0.04-0.09l-0.04-0.09l-0.04-0.09L16,47.7l-0.04-0.09l-0.02-0.09l-0.03-0.09l-0.02-0.1l-0.03-0.09l-0.02-0.1
		l-0.01-0.09l-0.02-0.1l-0.01-0.09l-0.01-0.1l-0.01-0.1l-0.01-0.1v-0.56l0.02-0.1v-0.11l0.03-0.1v-0.1l0.03-0.1l0.03-0.1l0.02-0.1
		l0.03-0.09l0.03-0.1l0.03-0.09l0.04-0.1l0.04-0.09l0.04-0.09l0.04-0.09l0.04-0.09l0.05-0.09l0.05-0.08l0.05-0.08l0.05-0.08
		l0.05-0.08l0.06-0.08l0.06-0.08l0.06-0.08l0.07-0.07l0.06-0.07l0.06-0.07l0.08-0.07l0.06-0.07l0.08-0.06l0.07-0.07l0.08-0.06
		l0.08-0.06l0.08-0.05l0.08-0.06l0.08-0.05l0.08-0.05l0.09-0.05l0.1-0.05l0.08-0.05l0.1-0.04l0.09-0.04l0.1-0.05l0.08-0.03l0.1-0.03
		l0.09-0.04l0.09-0.02l0.09-0.03l0.1-0.02l0.09-0.03l0.1-0.02h0.1l0.1-0.03h0.1l0.1-0.02h0.1L19.53,42.44z M51.79,42.46h0.56
		l0.12,0.02h0.2l0.1,0.03h0.12l0.1,0.03l0.09,0.02l0.1,0.02l0.1,0.02l0.09,0.02l0.1,0.03l0.1,0.03l0.08,0.02l0.1,0.04l0.1,0.03
		l0.08,0.04l0.1,0.04l0.1,0.04l0.09,0.05l0.07,0.04l0.1,0.05l0.09,0.05l0.08,0.05l0.09,0.06l0.08,0.05l0.08,0.06l0.08,0.06
		l0.08,0.06l-0.06,0.08L54.9,43.6l-0.06,0.08l-0.06,0.08l-0.06,0.09l-0.05,0.08l-0.06,0.08l-0.06,0.08l-0.05,0.08l-0.06,0.08
		l-0.06,0.08l-0.06,0.08l-0.05,0.09L54.2,44.6l-0.07,0.08l-0.05,0.08l-0.06,0.08l-0.08-0.06l-0.09-0.05l-0.08-0.05l-0.08-0.06
		l-0.09-0.04l-0.08-0.05l-0.1-0.04l-0.07-0.04l-0.1-0.04l-0.08-0.04l-0.08-0.03l-0.09-0.04l-0.1-0.03l-0.1-0.03l-0.1-0.03
		l-0.11-0.02l-0.1-0.02l-0.1-0.02l-0.1-0.01l-0.1-0.01l-0.09-0.01h-0.23l-0.11,0.02l-0.1,0.02l-0.1,0.02l-0.08,0.04l-0.07,0.04
		l-0.09,0.08l-0.06,0.09l-0.04,0.09v0.25l0.05,0.11l0.04,0.06l0.07,0.07l0.1,0.05l0.08,0.05l0.1,0.04l0.1,0.04l0.13,0.04l0.08,0.02
		l0.08,0.03l0.1,0.02l0.08,0.03l0.1,0.02l0.11,0.03l0.11,0.03l0.11,0.03l0.11,0.02l0.1,0.03l0.11,0.03l0.1,0.02l0.1,0.03l0.1,0.03
		l0.1,0.03l0.1,0.03l0.09,0.03l0.1,0.03l0.1,0.04l0.1,0.05l0.1,0.04l0.1,0.05l0.1,0.05l0.08,0.05l0.08,0.05l0.09,0.06l0.07,0.05
		l0.09,0.07l0.07,0.07l0.08,0.08l0.07,0.07l0.05,0.08l0.07,0.1L55,46.74l0.04,0.1l0.05,0.07l0.03,0.1l0.03,0.08l0.02,0.1l0.02,0.1
		l0.02,0.1l0.01,0.1l0.01,0.1v0.26l-0.01,0.11l-0.01,0.1l-0.01,0.11l-0.02,0.1l-0.03,0.1l-0.02,0.1l-0.03,0.1l-0.04,0.09l-0.04,0.08
		l-0.04,0.09l-0.05,0.08l-0.06,0.08l-0.05,0.08l-0.05,0.08l-0.07,0.07l-0.06,0.07l-0.07,0.06l-0.08,0.07l-0.07,0.06l-0.08,0.06
		l-0.08,0.05l-0.08,0.06l-0.1,0.05l-0.08,0.04l-0.1,0.05l-0.1,0.04l-0.1,0.04l-0.1,0.03l-0.1,0.03L53.39,50l-0.1,0.02l-0.1,0.02
		l-0.08,0.02L53,50.08h-0.1l-0.1,0.02h-0.1l-0.1,0.02h-0.75l-0.1-0.01l-0.1-0.01l-0.11-0.01l-0.1-0.02l-0.1-0.01l-0.1-0.02
		l-0.1-0.02l-0.11-0.03l-0.1-0.02l-0.1-0.03l-0.1-0.02l-0.1-0.03l-0.1-0.03l-0.1-0.04l-0.09-0.03l-0.1-0.03l-0.1-0.04l-0.08-0.04
		l-0.1-0.04l-0.08-0.05l-0.1-0.04l-0.09-0.05l-0.07-0.05l-0.1-0.05l-0.07-0.05l-0.09-0.05l-0.08-0.06l-0.08-0.06l-0.08-0.06
		l-0.08-0.06l-0.07-0.06l-0.08-0.07l0.06-0.08l0.07-0.07l0.06-0.08l0.07-0.08l0.06-0.07l0.06-0.08l0.07-0.08l0.06-0.07l0.07-0.08
		l0.06-0.07l0.07-0.08l0.06-0.08l0.06-0.07l0.07-0.08l0.06-0.08l0.07-0.07l0.07-0.08l0.07,0.06l0.1,0.06l0.07,0.06l0.1,0.06
		l0.08,0.05l0.09,0.06L50.55,48l0.09,0.04l0.08,0.05l0.09,0.04l0.1,0.04L51,48.21l0.1,0.03l0.08,0.04l0.1,0.03l0.1,0.03l0.1,0.03
		l0.1,0.02l0.1,0.02l0.1,0.02h0.11l0.1,0.03h0.56l0.1-0.02l0.1-0.02l0.08-0.02l0.08-0.03L53,48.33l0.09-0.06l0.05-0.07l0.05-0.08
		l0.03-0.1v-0.23l-0.04-0.1l-0.06-0.08l-0.06-0.06l-0.09-0.06l-0.07-0.04l-0.1-0.04l-0.1-0.04l-0.12-0.05l-0.07-0.02l-0.08-0.02
		l-0.1-0.03l-0.08-0.02l-0.1-0.03l-0.1-0.02l-0.11-0.03l-0.1-0.02l-0.11-0.03l-0.1-0.02l-0.1-0.03l-0.1-0.02l-0.1-0.03l-0.1-0.03
		l-0.1-0.02l-0.09-0.03l-0.09-0.03l-0.09-0.03l-0.1-0.04l-0.11-0.04l-0.1-0.04l-0.1-0.04l-0.1-0.05l-0.1-0.05l-0.07-0.05l-0.1-0.05
		l-0.07-0.06l-0.09-0.05l-0.06-0.06l-0.07-0.07l-0.08-0.07l-0.06-0.07l-0.06-0.07l-0.05-0.07l-0.05-0.08l-0.05-0.09l-0.04-0.07
		l-0.03-0.08l-0.03-0.09l-0.03-0.08l-0.02-0.1l-0.02-0.09v-0.1l-0.02-0.1v-0.44l0.01-0.1l0.01-0.1l0.02-0.08l0.02-0.1l0.03-0.08
		l0.02-0.1l0.04-0.08l0.04-0.1l0.04-0.08l0.05-0.1l0.05-0.08l0.07-0.08l0.05-0.08l0.08-0.08l0.07-0.07l0.06-0.08l0.09-0.07
		l0.06-0.05l0.09-0.06l0.08-0.06l0.08-0.05l0.1-0.05l0.08-0.04l0.1-0.05l0.08-0.04l0.1-0.03l0.1-0.04l0.1-0.03l0.07-0.02l0.1-0.02
		l0.08-0.02l0.1-0.02l0.1-0.02l0.1-0.01l0.1-0.01l0.1-0.01L51.79,42.46z M26.94,42.53h1.9l0.04,0.09l0.04,0.09l0.04,0.09l0.03,0.1
		L29.03,43l0.04,0.09l0.04,0.09l0.04,0.09l0.03,0.09l0.05,0.1l0.04,0.09l0.04,0.09l0.02,0.09l0.04,0.09l0.05,0.09l0.04,0.1
		l0.04,0.09l0.03,0.09l0.04,0.09l0.05,0.09l0.03,0.09l0.04,0.1l0.03,0.1l0.04,0.08l0.05,0.1l0.04,0.08l0.04,0.1l0.03,0.1l0.03,0.08
		l0.05,0.1l0.04,0.08l0.04,0.1l0.03,0.08l0.04,0.1l0.05,0.1l0.04,0.09l0.03,0.09l0.03,0.09l0.04,0.09l0.05,0.09l0.04,0.1l0.04,0.09
		l0.03,0.09l0.04,0.09l0.04,0.09l0.04,0.09l0.04,0.1l0.03,0.09l0.04,0.09l0.05,0.09l0.04,0.09l0.04,0.09l0.02,0.1l0.04,0.09
		L31,47.67l0.04,0.09l0.03,0.09l0.04,0.09l0.04,0.1l0.05,0.1l0.03,0.08l0.04,0.1l0.03,0.08l0.04,0.1l0.05,0.1l0.04,0.08l0.03,0.1
		l0.04,0.08l0.03,0.1l0.05,0.08l0.04,0.1l0.03,0.1l0.04,0.08l0.04,0.1l0.05,0.08l0.04,0.1l0.03,0.1l0.03,0.08l0.04,0.1L31.99,50
		h-2.11l-0.05-0.09l-0.03-0.09l-0.04-0.09l-0.04-0.1l-0.03-0.09l-0.04-0.09l-0.04-0.09l-0.03-0.09l-0.04-0.09l-0.04-0.09l-0.03-0.09
		l-0.04-0.1l-0.04-0.09l-0.03-0.09l-0.04-0.09h-2.92l-0.04,0.1l-0.03,0.08l-0.04,0.1l-0.05,0.1l-0.02,0.08l-0.04,0.1l-0.04,0.08
		l-0.03,0.1l-0.04,0.08l-0.04,0.1l-0.03,0.08l-0.04,0.1l-0.04,0.1l-0.04,0.08l-0.03,0.1h-2.09l0.04-0.1l0.04-0.09l0.04-0.09
		l0.03-0.1l0.03-0.09l0.05-0.09l0.04-0.09l0.04-0.09l0.03-0.09l0.04-0.1l0.05-0.09l0.04-0.09l0.03-0.09l0.03-0.09l0.04-0.09
		l0.05-0.1l0.04-0.09l0.04-0.09l0.03-0.09l0.04-0.09l0.04-0.09l0.04-0.1l0.04-0.1l0.03-0.08l0.04-0.1l0.05-0.08l0.04-0.1l0.03-0.1
		l0.03-0.08l0.04-0.1l0.05-0.08l0.04-0.1l0.04-0.08l0.03-0.1l0.04-0.1l0.05-0.08l0.03-0.1l0.04-0.08l0.03-0.1l0.04-0.1l0.05-0.08
		l0.04-0.1l0.03-0.08l0.04-0.1l0.03-0.08l0.05-0.1l0.04-0.1l0.04-0.09l0.03-0.09l0.04-0.09l0.05-0.09l0.04-0.09l0.02-0.1l0.04-0.09
		l0.04-0.09l0.05-0.09L26,44.68l0.03-0.09l0.04-0.1l0.04-0.1l0.04-0.08l0.04-0.1l0.03-0.08l0.04-0.1l0.04-0.1l0.05-0.08l0.04-0.1
		l0.03-0.08l0.03-0.1l0.04-0.08l0.05-0.1l0.04-0.1l0.03-0.08l0.04-0.1L26.7,43l0.05-0.1l0.03-0.1l0.03-0.08l0.04-0.1L26.94,42.53z
		 M32.83,42.59h2.09l0.06,0.08l0.05,0.09l0.06,0.08l0.05,0.09l0.05,0.08l0.05,0.09l0.05,0.08l0.06,0.09l0.05,0.08l0.05,0.08
		l0.05,0.09l0.05,0.08l0.07,0.09l0.04,0.08l0.05,0.09l0.06,0.08l0.06,0.08l0.04,0.09l0.06,0.08L36,44.3l0.04,0.08l0.07,0.09
		l0.05,0.08l0.05,0.09l0.05,0.08l0.05,0.08l0.06,0.09l0.05,0.08l0.05,0.09l0.05,0.08l0.05,0.09l0.06,0.08l0.05,0.09l0.05,0.08
		l0.06-0.08l0.04-0.1l0.06-0.07l0.06-0.1l0.05-0.07l0.04-0.1l0.07-0.07l0.05-0.1l0.04-0.07l0.06-0.08l0.06-0.1l0.05-0.07l0.05-0.1
		l0.05-0.07l0.06-0.1l0.05-0.07l0.05-0.1l0.05-0.07l0.05-0.08l0.06-0.1l0.05-0.07l0.05-0.1l0.06-0.07l0.05-0.1l0.05-0.07l0.06-0.08
		l0.05-0.1l0.06-0.07l0.05-0.1l0.05-0.07l0.05-0.1l0.06-0.07l0.05-0.1l0.05-0.07h2.1v7.51H38.7v-4.41l-0.05,0.07l-0.06,0.1
		l-0.05,0.07L38.48,46l-0.05,0.1l-0.06,0.07l-0.05,0.08l-0.06,0.1l-0.05,0.07l-0.05,0.08l-0.07,0.08l-0.05,0.1l-0.06,0.07
		l-0.05,0.08l-0.05,0.1l-0.06,0.07l-0.05,0.08l-0.06,0.1l-0.05,0.07l-0.06,0.08l-0.05,0.1l-0.05,0.07l-0.06,0.08l-0.05,0.1
		l-0.06,0.07l-0.06,0.08l-0.05,0.08l-0.05,0.1l-0.06,0.07l-0.06,0.08l-0.04,0.1l-0.07,0.07l-0.05,0.08l-0.06,0.1l-0.05,0.07h-0.04
		l-0.06-0.09l-0.05-0.08l-0.06-0.09l-0.05-0.08l-0.06-0.09l-0.05-0.08l-0.06-0.09l-0.05-0.08l-0.06-0.09l-0.05-0.08l-0.07-0.09
		l-0.04-0.08l-0.06-0.09l-0.06-0.08l-0.05-0.09l-0.06-0.08l-0.05-0.1l-0.06-0.08l-0.05-0.09l-0.06-0.08l-0.05-0.09l-0.06-0.08
		l-0.05-0.09l-0.06-0.08l-0.05-0.09l-0.06-0.08l-0.05-0.09l-0.06-0.08l-0.05-0.09l-0.06-0.08l-0.05-0.09l-0.07-0.08l-0.04-0.09
		l-0.06-0.08v4.42h-1.95v-7.43L32.83,42.59z M42.17,42.59h5.92v1.7h-3.96v1.2h3.56v1.6h-3.55v1.29h4.01v1.7h-5.96v-7.42L42.17,42.59
		z M27.86,44.88l-0.04,0.1l-0.03,0.08l-0.04,0.1l-0.04,0.1l-0.03,0.09l-0.04,0.09l-0.04,0.1l-0.04,0.1l-0.03,0.08l-0.04,0.1
		l-0.04,0.08l-0.03,0.1l-0.04,0.1l-0.04,0.08l-0.03,0.1l-0.04,0.08l-0.04,0.1l-0.04,0.1l-0.03,0.08l-0.04,0.1l-0.04,0.1l-0.03,0.08
		l-0.04,0.1h1.73l-0.04-0.1l-0.03-0.09l-0.04-0.1l-0.04-0.09l-0.03-0.09l-0.04-0.09l-0.04-0.1l-0.03-0.09l-0.04-0.09l-0.04-0.09
		l-0.03-0.09l-0.04-0.1l-0.03-0.09l-0.04-0.09l-0.04-0.09l-0.03-0.09l-0.04-0.1l-0.04-0.1l-0.03-0.08l-0.04-0.1l-0.04-0.1
		l-0.03-0.09L27.86,44.88z M24.77,58.94h21.56l-11.01,3.63L24.77,58.94z"/>
</g>
</svg>
