<?xml version="1.0" encoding="utf-8"?>
<!-- Generator: Adobe Illustrator 27.0.0, SVG Export Plug-In . SVG Version: 6.00 Build 0)  -->
<svg version="1.1" id="Layer_1" xmlns="http://www.w3.org/2000/svg" xmlns:xlink="http://www.w3.org/1999/xlink" x="0px" y="0px"
	 viewBox="0 0 38 38" style="enable-background:new 0 0 38 38;" xml:space="preserve">
<style type="text/css">
	.st0{fill:url(#SVGID_1_);}
	.st1{fill:#FFFFFF;}
	.st2{fill:#E6E6E6;}
	.st3{fill:#272727;}
	.st4{fill:#0ACF83;}
	.st5{fill:#A259FF;}
	.st6{fill:#F24E1E;}
	.st7{fill:#FF7262;}
	.st8{fill:#1ABCFE;}
	.st9{fill:#8E8E8E;}
	
		.st10{clip-path:url(#SVGID_00000070808264068003924510000006086428599584765880_);fill-rule:evenodd;clip-rule:evenodd;fill:#7F79AC;}
	
		.st11{clip-path:url(#SVGID_00000070808264068003924510000006086428599584765880_);fill:none;stroke:#FFFFFF;stroke-width:0.75;stroke-miterlimit:10;}
	.st12{clip-path:url(#SVGID_00000070808264068003924510000006086428599584765880_);fill:#7F79AC;}
	.st13{clip-path:url(#SVGID_00000070808264068003924510000006086428599584765880_);fill:#FFFFFF;}
	.st14{clip-path:url(#SVGID_00000070808264068003924510000006086428599584765880_);}
	.st15{clip-path:url(#SVGID_00000088835048418299602990000007751727844917958559_);fill:#FFFFFF;}
	.st16{clip-path:url(#SVGID_00000148631244397080534520000005001766295594494631_);fill:#FFFFFF;}
	.st17{clip-path:url(#SVGID_00000080177848127432707240000003003840546207970220_);}
	.st18{clip-path:url(#SVGID_00000078022488453153397030000015405026357429452431_);fill:none;stroke:#1D1D1B;stroke-width:0.5;}
	.st19{fill:#B8845B;}
	.st20{fill:#785439;}
	.st21{fill:#956B49;}
	.st22{fill:#583C28;}
	.st23{fill:#72B248;}
	.st24{fill:#60A036;}
	.st25{fill:#9BCA6B;}
	.st26{fill:#56962C;}
	.st27{fill:#6B6B6B;}
	.st28{opacity:0.1;fill:#FFFFFF;enable-background:new    ;}
	.st29{clip-path:url(#SVGID_00000126312643278605512840000000025763649311641986_);}
	.st30{fill:#231F20;}
	.st31{fill:#EBEBEB;}
	.st32{fill:#32C5F4;}
	.st33{fill:url(#SVGID_00000017479518689885870460000002289451520963524788_);}
	.st34{fill:url(#SVGID_00000164471976276859262680000004873767796446656393_);}
	.st35{opacity:0.74;fill:#D7F9FF;}
	.st36{fill:#DFEBFD;}
	.st37{fill:#FF4A1E;}
	.st38{fill:#EBE7F7;}
	.st39{fill:#7C409C;}
	.st40{fill:#6139BC;}
	.st41{fill:#56309E;}
	.st42{fill:url(#SVGID_00000138534322162972482430000007196851420215960968_);}
	.st43{fill:url(#SVGID_00000106146890131291589130000004118466156569054890_);}
	.st44{fill:#744DA5;}
	.st45{fill:#FFC22A;}
	.st46{fill:#4A2C76;}
	.st47{fill:#41B8E1;}
	.st48{fill:#279FDA;}
	.st49{fill:#0CC243;}
	.st50{fill-rule:evenodd;clip-rule:evenodd;fill:#FFFFFF;}
</style>
<g>
	<circle class="st2" cx="19" cy="19" r="18.03"/>
	<g>
		<g>
			<g>
				<g>
					<g>
						<path class="st3" d="M14.15,27.55h9.69c2,0,3.64-1.64,3.64-3.64v-9.69c0-2-1.64-3.64-3.64-3.64h-9.69
							c-2,0-3.64,1.64-3.64,3.64v9.69C10.51,25.91,12.15,27.55,14.15,27.55z"/>
					</g>
				</g>
			</g>
		</g>
		<g>
			<path class="st4" d="M16.85,25.52c1.19,0,2.15-0.96,2.15-2.15v-2.15h-2.15c-1.19,0-2.15,0.96-2.15,2.15S15.66,25.52,16.85,25.52z
				"/>
			<path class="st5" d="M14.7,19.06c0-1.19,0.96-2.15,2.15-2.15H19v4.3h-2.15C15.66,21.21,14.7,20.25,14.7,19.06z"/>
			<path class="st6" d="M14.7,14.76c0-1.19,0.96-2.15,2.15-2.15H19v4.3h-2.15C15.66,16.91,14.7,15.95,14.7,14.76z"/>
			<path class="st7" d="M19,12.61h2.15c1.19,0,2.15,0.96,2.15,2.15s-0.96,2.15-2.15,2.15H19V12.61z"/>
			<path class="st8" d="M23.3,19.06c0,1.19-0.96,2.15-2.15,2.15c-1.19,0-2.15-0.96-2.15-2.15s0.96-2.15,2.15-2.15
				C22.34,16.91,23.3,17.88,23.3,19.06z"/>
		</g>
	</g>
</g>
</svg>
