<?xml version="1.0" encoding="utf-8"?>
<!-- Generator: Adobe Illustrator 27.0.0, SVG Export Plug-In . SVG Version: 6.00 Build 0)  -->
<svg version="1.1" id="Layer_1" xmlns="http://www.w3.org/2000/svg" xmlns:xlink="http://www.w3.org/1999/xlink" x="0px" y="0px"
	 viewBox="0 0 38 38" style="enable-background:new 0 0 38 38;" xml:space="preserve">
<style type="text/css">
	.st0{fill:url(#SVGID_1_);}
	.st1{fill:#FFFFFF;}
	.st2{fill:#E6E6E6;}
	.st3{fill:#330000;}
	.st4{fill:#FF9A00;}
	.st5{fill:#001E36;}
	.st6{fill:#31A8FF;}
	.st7{fill:#470137;}
	.st8{fill:#FF61F6;}
	.st9{fill:#272727;}
	.st10{fill:#0ACF83;}
	.st11{fill:#A259FF;}
	.st12{fill:#F24E1E;}
	.st13{fill:#FF7262;}
	.st14{fill:#1ABCFE;}
	.st15{fill:#8E8E8E;}
	
		.st16{clip-path:url(#SVGID_00000017492471215762893980000014408793794210705546_);fill-rule:evenodd;clip-rule:evenodd;fill:#7F79AC;}
	
		.st17{clip-path:url(#SVGID_00000017492471215762893980000014408793794210705546_);fill:none;stroke:#FFFFFF;stroke-width:0.75;stroke-miterlimit:10;}
	.st18{clip-path:url(#SVGID_00000017492471215762893980000014408793794210705546_);fill:#7F79AC;}
	.st19{clip-path:url(#SVGID_00000017492471215762893980000014408793794210705546_);fill:#FFFFFF;}
	.st20{clip-path:url(#SVGID_00000017492471215762893980000014408793794210705546_);}
	.st21{clip-path:url(#SVGID_00000057867277720694666200000006736026633935515786_);fill:#FFFFFF;}
	.st22{clip-path:url(#SVGID_00000130646037481341222890000014929747634430551431_);fill:#FFFFFF;}
	.st23{clip-path:url(#SVGID_00000050628139525330359610000015132625900169377196_);}
	.st24{clip-path:url(#SVGID_00000137820963394902268870000004587513681769718699_);fill:none;stroke:#1D1D1B;stroke-width:0.5;}
	.st25{fill:#B8845B;}
	.st26{fill:#785439;}
	.st27{fill:#956B49;}
	.st28{fill:#583C28;}
	.st29{fill:#72B248;}
	.st30{fill:#60A036;}
	.st31{fill:#9BCA6B;}
	.st32{fill:#56962C;}
	.st33{fill:#6B6B6B;}
	.st34{opacity:0.1;fill:#FFFFFF;enable-background:new    ;}
	.st35{clip-path:url(#SVGID_00000017482230686954866580000012361923460455650217_);}
	.st36{fill:#231F20;}
	.st37{fill:#EBEBEB;}
	.st38{fill:#32C5F4;}
	.st39{fill:url(#SVGID_00000076578607162666821640000003456659345592579976_);}
	.st40{fill:url(#SVGID_00000183225206523429321530000006088355757456594363_);}
	.st41{opacity:0.74;fill:#D7F9FF;}
	.st42{fill:#DFEBFD;}
	.st43{fill:#FF4A1E;}
	.st44{fill:#EBE7F7;}
	.st45{fill:#7C409C;}
	.st46{fill:#6139BC;}
	.st47{fill:#56309E;}
	.st48{fill:url(#SVGID_00000061461291277176770760000018312903785011373725_);}
	.st49{fill:url(#SVGID_00000056409661473913362860000002583123057213527972_);}
	.st50{fill:#744DA5;}
	.st51{fill:#FFC22A;}
	.st52{fill:#4A2C76;}
	.st53{fill:#41B8E1;}
	.st54{fill:#279FDA;}
	.st55{fill:#0CC243;}
	.st56{fill-rule:evenodd;clip-rule:evenodd;fill:#FFFFFF;}
</style>
<g>
	<circle class="st2" cx="19" cy="19" r="18.03"/>
	<g>
		<path class="st3" d="M14.15,27.49h9.69c2,0,3.64-1.64,3.64-3.64v-9.69c0-2-1.64-3.64-3.64-3.64h-9.69c-2,0-3.64,1.64-3.64,3.64
			v9.69C10.51,25.85,12.15,27.49,14.15,27.49z"/>
		<g>
			<path class="st4" d="M15.03,22.36h1.47c0.04,0,0.07-0.03,0.08-0.06l0.43-1.55h1.67l0.47,1.55c0.01,0.04,0.05,0.06,0.08,0.06h1.53
				c0,0,0,0,0,0c0.05,0,0.09-0.04,0.09-0.09c0-0.01,0-0.03-0.01-0.04l-1.95-6.27c-0.01-0.04-0.05-0.06-0.08-0.06h-1.86
				c-0.04,0-0.07,0.03-0.08,0.06l-1.92,6.28c-0.01,0.03,0,0.06,0.01,0.08C14.98,22.35,15.01,22.36,15.03,22.36z M18.43,19.51h-1.16
				l0.34-1.22c0.06-0.22,0.12-0.48,0.18-0.73c0.01-0.06,0.03-0.11,0.04-0.17c0.08,0.3,0.16,0.63,0.24,0.9L18.43,19.51z"/>
			<path class="st4" d="M21.5,17.8c-0.05,0-0.09,0.04-0.09,0.09v4.38c0,0.05,0.04,0.09,0.09,0.09h1.42c0.05,0,0.09-0.04,0.09-0.09
				v-4.38c0-0.05-0.04-0.09-0.09-0.09H21.5z"/>
			<path class="st4" d="M22.2,17.24c0.49,0,0.85-0.33,0.85-0.8c-0.01-0.47-0.36-0.8-0.84-0.8c-0.25,0-0.47,0.09-0.62,0.24
				c-0.14,0.15-0.22,0.35-0.21,0.56c0,0.21,0.07,0.41,0.21,0.55C21.74,17.16,21.96,17.24,22.2,17.24z"/>
		</g>
	</g>
</g>
</svg>
