<?xml version="1.0" encoding="utf-8"?>
<!-- Generator: Adobe Illustrator 27.0.0, SVG Export Plug-In . SVG Version: 6.00 Build 0)  -->
<svg version="1.1" id="Layer_1" xmlns="http://www.w3.org/2000/svg" xmlns:xlink="http://www.w3.org/1999/xlink" x="0px" y="0px"
	 viewBox="0 0 71 71" style="enable-background:new 0 0 71 71;" xml:space="preserve">
<style type="text/css">
	.st0{fill:url(#SVGID_1_);}
	.st1{fill:#FFFFFF;}
	.st2{fill:#8E8E8E;}
	
		.st3{clip-path:url(#SVGID_00000161611037523700105910000011251205499402295443_);fill-rule:evenodd;clip-rule:evenodd;fill:#7F79AC;}
	
		.st4{clip-path:url(#SVGID_00000161611037523700105910000011251205499402295443_);fill:none;stroke:#FFFFFF;stroke-width:0.75;stroke-miterlimit:10;}
	.st5{clip-path:url(#SVGID_00000161611037523700105910000011251205499402295443_);fill:#7F79AC;}
	.st6{clip-path:url(#SVGID_00000161611037523700105910000011251205499402295443_);fill:#FFFFFF;}
	.st7{clip-path:url(#SVGID_00000161611037523700105910000011251205499402295443_);}
	.st8{clip-path:url(#SVGID_00000054232583123204681790000002072573107545807747_);fill:#FFFFFF;}
	.st9{clip-path:url(#SVGID_00000008861949460836824220000011822950191986178198_);fill:#FFFFFF;}
	.st10{clip-path:url(#SVGID_00000093140129158545601660000011247662375467096496_);}
	.st11{clip-path:url(#SVGID_00000121252325423905672560000009576603874717423003_);fill:none;stroke:#1D1D1B;stroke-width:0.5;}
	.st12{fill:#B8845B;}
	.st13{fill:#785439;}
	.st14{fill:#956B49;}
	.st15{fill:#583C28;}
	.st16{fill:#72B248;}
	.st17{fill:#60A036;}
	.st18{fill:#9BCA6B;}
	.st19{fill:#56962C;}
	.st20{fill:#6B6B6B;}
	.st21{opacity:0.1;fill:#FFFFFF;enable-background:new    ;}
	.st22{fill:#32C5F4;}
	.st23{fill:#279FDA;}
	.st24{fill:#0CC243;}
	.st25{fill-rule:evenodd;clip-rule:evenodd;fill:#FFFFFF;}
</style>
<g>
	<g>
		<rect x="40.11" y="53.95" class="st12" width="4.61" height="4.61"/>
		<rect x="21.66" y="53.95" class="st13" width="4.61" height="4.61"/>
		<rect x="7.82" y="53.95" class="st13" width="4.61" height="4.61"/>
		<rect x="12.43" y="53.95" class="st14" width="4.61" height="4.61"/>
		<rect x="49.34" y="21.66" class="st14" width="4.61" height="4.61"/>
		<rect x="17.05" y="21.66" class="st15" width="4.61" height="4.61"/>
		<rect x="30.89" y="21.66" class="st12" width="4.61" height="4.61"/>
		<rect x="26.27" y="21.66" class="st13" width="4.61" height="4.61"/>
		<rect x="3.21" y="21.66" class="st15" width="4.61" height="4.61"/>
		<rect x="30.89" y="17.05" class="st14" width="4.61" height="4.61"/>
		<rect x="7.82" y="17.05" class="st15" width="4.61" height="4.61"/>
		<rect x="26.27" y="17.05" class="st13" width="4.61" height="4.61"/>
		<rect x="3.21" y="17.05" class="st16" width="4.61" height="4.61"/>
		<rect x="3.21" y="12.43" class="st17" width="4.61" height="4.61"/>
		<rect x="26.27" y="12.43" class="st15" width="4.61" height="4.61"/>
		<rect x="30.89" y="12.43" class="st18" width="4.61" height="4.61"/>
		<rect x="3.21" y="7.82" class="st16" width="4.61" height="4.61"/>
		<rect x="7.82" y="7.82" class="st19" width="4.61" height="4.61"/>
		<rect x="12.43" y="7.82" class="st17" width="4.61" height="4.61"/>
		<rect x="17.05" y="7.82" class="st16" width="4.61" height="4.61"/>
		<rect x="44.73" y="12.43" class="st16" width="4.61" height="4.61"/>
		<rect x="12.43" y="12.43" class="st16" width="4.61" height="4.61"/>
		<rect x="44.73" y="17.05" class="st19" width="4.61" height="4.61"/>
		<rect x="7.82" y="12.43" class="st17" width="4.61" height="4.61"/>
		<rect x="12.43" y="3.21" class="st19" width="4.61" height="4.61"/>
		<rect x="17.05" y="3.21" class="st17" width="4.61" height="4.61"/>
		<rect x="7.82" y="3.21" class="st16" width="4.61" height="4.61"/>
		<path class="st19" d="M7.82,3.21H6.67c0,0-3.46,0-3.46,3.46v1.15h4.61V3.21z"/>
		<rect x="35.5" y="26.27" class="st12" width="4.61" height="4.61"/>
		<rect x="21.66" y="26.27" class="st13" width="4.61" height="4.61"/>
		<rect x="7.82" y="26.27" class="st13" width="4.61" height="4.61"/>
		<rect x="12.43" y="26.27" class="st14" width="4.61" height="4.61"/>
		<rect x="35.5" y="21.66" class="st12" width="4.61" height="4.61"/>
		<rect x="21.66" y="21.66" class="st13" width="4.61" height="4.61"/>
		<rect x="7.82" y="21.66" class="st13" width="4.61" height="4.61"/>
		<rect x="12.43" y="21.66" class="st15" width="4.61" height="4.61"/>
		<rect x="21.66" y="17.05" class="st15" width="4.61" height="4.61"/>
		<rect x="35.5" y="17.05" class="st20" width="4.61" height="4.61"/>
		<rect x="35.5" y="12.43" class="st14" width="4.61" height="4.61"/>
		<rect x="21.66" y="7.82" class="st17" width="4.61" height="4.61"/>
		<rect x="12.43" y="17.05" class="st19" width="4.61" height="4.61"/>
		<rect x="21.66" y="12.43" class="st17" width="4.61" height="4.61"/>
		<path class="st19" d="M26.27,3.21h-4.61v4.61h4.61V3.21z"/>
		<rect x="3.21" y="53.95" class="st14" width="4.61" height="4.61"/>
		<rect x="26.27" y="53.95" class="st12" width="4.61" height="4.61"/>
		<rect x="17.05" y="53.95" class="st13" width="4.61" height="4.61"/>
		<rect x="49.34" y="53.95" class="st15" width="4.61" height="4.61"/>
		<rect x="3.21" y="26.27" class="st14" width="4.61" height="4.61"/>
		<rect x="26.27" y="26.27" class="st12" width="4.61" height="4.61"/>
		<rect x="30.89" y="26.27" class="st13" width="4.61" height="4.61"/>
		<rect x="17.05" y="26.27" class="st13" width="4.61" height="4.61"/>
		<rect x="49.34" y="26.27" class="st15" width="4.61" height="4.61"/>
		<path class="st14" d="M3.21,64.33v-1.15h4.61v4.61H6.67C6.67,67.79,3.21,67.79,3.21,64.33z"/>
		<rect x="26.27" y="63.18" class="st20" width="4.61" height="4.61"/>
		<rect x="49.34" y="63.18" class="st13" width="4.61" height="4.61"/>
		<rect x="17.05" y="63.18" class="st13" width="4.61" height="4.61"/>
		<rect x="12.43" y="58.57" class="st14" width="4.61" height="4.61"/>
		<rect x="7.82" y="58.57" class="st15" width="4.61" height="4.61"/>
		<rect x="21.66" y="58.57" class="st12" width="4.61" height="4.61"/>
		<rect x="40.11" y="58.57" class="st13" width="4.61" height="4.61"/>
		<rect x="21.66" y="63.18" class="st12" width="4.61" height="4.61"/>
		<rect x="7.82" y="63.18" class="st13" width="4.61" height="4.61"/>
		<rect x="12.43" y="63.18" class="st15" width="4.61" height="4.61"/>
		<rect x="26.27" y="58.57" class="st14" width="4.61" height="4.61"/>
		<rect x="3.21" y="58.57" class="st12" width="4.61" height="4.61"/>
		<rect x="17.05" y="58.57" class="st13" width="4.61" height="4.61"/>
		<rect x="49.34" y="58.57" class="st15" width="4.61" height="4.61"/>
		<rect x="53.95" y="53.95" class="st12" width="4.61" height="4.61"/>
		<rect x="44.73" y="53.95" class="st13" width="4.61" height="4.61"/>
		<rect x="30.89" y="53.95" class="st14" width="4.61" height="4.61"/>
		<rect x="40.11" y="21.66" class="st14" width="4.61" height="4.61"/>
		<rect x="58.57" y="21.66" class="st15" width="4.61" height="4.61"/>
		<rect x="63.18" y="21.66" class="st12" width="4.61" height="4.61"/>
		<rect x="40.11" y="17.05" class="st18" width="4.61" height="4.61"/>
		<rect x="58.57" y="17.05" class="st13" width="4.61" height="4.61"/>
		<rect x="58.57" y="12.43" class="st15" width="4.61" height="4.61"/>
		<rect x="30.89" y="7.82" class="st16" width="4.61" height="4.61"/>
		<rect x="35.5" y="7.82" class="st19" width="4.61" height="4.61"/>
		<rect x="40.11" y="7.82" class="st17" width="4.61" height="4.61"/>
		<rect x="63.18" y="7.82" class="st16" width="4.61" height="4.61"/>
		<rect x="58.57" y="7.82" class="st19" width="4.61" height="4.61"/>
		<rect x="63.18" y="12.43" class="st16" width="4.61" height="4.61"/>
		<rect x="40.11" y="12.43" class="st16" width="4.61" height="4.61"/>
		<rect x="63.18" y="17.05" class="st19" width="4.61" height="4.61"/>
		<rect x="40.11" y="3.21" class="st19" width="4.61" height="4.61"/>
		<rect x="53.95" y="3.21" class="st17" width="4.61" height="4.61"/>
		<rect x="58.57" y="3.21" class="st16" width="4.61" height="4.61"/>
		<rect x="35.5" y="3.21" class="st16" width="4.61" height="4.61"/>
		<path class="st19" d="M35.5,3.21h-4.61v4.61h4.61V3.21z"/>
		<rect x="53.95" y="26.27" class="st12" width="4.61" height="4.61"/>
		<rect x="44.73" y="26.27" class="st13" width="4.61" height="4.61"/>
		<rect x="53.95" y="21.66" class="st12" width="4.61" height="4.61"/>
		<rect x="44.73" y="21.66" class="st13" width="4.61" height="4.61"/>
		<rect x="17.05" y="17.05" class="st15" width="4.61" height="4.61"/>
		<rect x="49.34" y="17.05" class="st12" width="4.61" height="4.61"/>
		<rect x="53.95" y="7.82" class="st17" width="4.61" height="4.61"/>
		<rect x="49.34" y="7.82" class="st16" width="4.61" height="4.61"/>
		<rect x="44.73" y="7.82" class="st16" width="4.61" height="4.61"/>
		<rect x="26.27" y="7.82" class="st19" width="4.61" height="4.61"/>
		<rect x="53.95" y="12.43" class="st16" width="4.61" height="4.61"/>
		<rect x="49.34" y="12.43" class="st19" width="4.61" height="4.61"/>
		<rect x="53.95" y="17.05" class="st19" width="4.61" height="4.61"/>
		<rect x="17.05" y="12.43" class="st17" width="4.61" height="4.61"/>
		<rect x="26.27" y="3.21" class="st16" width="4.61" height="4.61"/>
		<path class="st19" d="M67.79,6.67c0-3.46-3.46-3.46-3.46-3.46h-1.15v4.61h4.61V6.67z"/>
		<rect x="49.34" y="3.21" class="st17" width="4.61" height="4.61"/>
		<rect x="44.73" y="3.21" class="st16" width="4.61" height="4.61"/>
		<rect x="63.18" y="53.95" class="st20" width="4.61" height="4.61"/>
		<rect x="58.57" y="53.95" class="st13" width="4.61" height="4.61"/>
		<rect x="35.5" y="53.95" class="st15" width="4.61" height="4.61"/>
		<rect x="63.18" y="26.27" class="st13" width="4.61" height="4.61"/>
		<rect x="58.57" y="26.27" class="st13" width="4.61" height="4.61"/>
		<rect x="40.11" y="26.27" class="st15" width="4.61" height="4.61"/>
		<rect x="35.5" y="63.18" class="st13" width="4.61" height="4.61"/>
		<rect x="58.57" y="63.18" class="st13" width="4.61" height="4.61"/>
		<rect x="53.95" y="63.18" class="st15" width="4.61" height="4.61"/>
		<rect x="30.89" y="58.57" class="st14" width="4.61" height="4.61"/>
		<rect x="44.73" y="58.57" class="st12" width="4.61" height="4.61"/>
		<rect x="53.95" y="58.57" class="st13" width="4.61" height="4.61"/>
		<path class="st12" d="M67.79,64.33v-1.15h-4.61v4.61h1.15C64.33,67.79,67.79,67.79,67.79,64.33z"/>
		<rect x="44.73" y="63.18" class="st12" width="4.61" height="4.61"/>
		<rect x="30.89" y="63.18" class="st15" width="4.61" height="4.61"/>
		<rect x="63.18" y="58.57" class="st13" width="4.61" height="4.61"/>
		<rect x="58.57" y="58.57" class="st13" width="4.61" height="4.61"/>
		<rect x="35.5" y="58.57" class="st15" width="4.61" height="4.61"/>
		<rect x="40.11" y="63.18" class="st15" width="4.61" height="4.61"/>
		<rect x="35.5" y="44.73" class="st12" width="4.61" height="4.61"/>
		<rect x="21.66" y="44.73" class="st13" width="4.61" height="4.61"/>
		<rect x="7.82" y="44.73" class="st13" width="4.61" height="4.61"/>
		<rect x="12.43" y="44.73" class="st14" width="4.61" height="4.61"/>
		<rect x="17.05" y="49.34" class="st15" width="4.61" height="4.61"/>
		<rect x="3.21" y="49.34" class="st15" width="4.61" height="4.61"/>
		<rect x="3.21" y="44.73" class="st14" width="4.61" height="4.61"/>
		<rect x="26.27" y="44.73" class="st12" width="4.61" height="4.61"/>
		<rect x="30.89" y="44.73" class="st13" width="4.61" height="4.61"/>
		<rect x="17.05" y="44.73" class="st13" width="4.61" height="4.61"/>
		<rect x="26.27" y="49.34" class="st15" width="4.61" height="4.61"/>
		<rect x="12.43" y="49.34" class="st12" width="4.61" height="4.61"/>
		<rect x="21.66" y="49.34" class="st20" width="4.61" height="4.61"/>
		<rect x="7.82" y="49.34" class="st13" width="4.61" height="4.61"/>
		<rect x="40.11" y="49.34" class="st15" width="4.61" height="4.61"/>
		<rect x="35.5" y="49.34" class="st14" width="4.61" height="4.61"/>
		<rect x="40.11" y="44.73" class="st15" width="4.61" height="4.61"/>
		<rect x="30.89" y="49.34" class="st12" width="4.61" height="4.61"/>
		<rect x="58.57" y="40.11" class="st12" width="4.61" height="4.61"/>
		<rect x="35.5" y="40.11" class="st15" width="4.61" height="4.61"/>
		<rect x="40.11" y="40.11" class="st13" width="4.61" height="4.61"/>
		<rect x="53.95" y="40.11" class="st15" width="4.61" height="4.61"/>
		<rect x="49.34" y="40.11" class="st14" width="4.61" height="4.61"/>
		<rect x="63.18" y="40.11" class="st15" width="4.61" height="4.61"/>
		<rect x="44.73" y="40.11" class="st12" width="4.61" height="4.61"/>
		<rect x="3.21" y="40.11" class="st15" width="4.61" height="4.61"/>
		<rect x="7.82" y="40.11" class="st20" width="4.61" height="4.61"/>
		<rect x="30.89" y="40.11" class="st15" width="4.61" height="4.61"/>
		<rect x="17.05" y="40.11" class="st13" width="4.61" height="4.61"/>
		<rect x="12.43" y="40.11" class="st15" width="4.61" height="4.61"/>
		<rect x="21.66" y="40.11" class="st15" width="4.61" height="4.61"/>
		<rect x="26.27" y="40.11" class="st13" width="4.61" height="4.61"/>
		<rect x="53.95" y="44.73" class="st12" width="4.61" height="4.61"/>
		<rect x="63.18" y="49.34" class="st12" width="4.61" height="4.61"/>
		<rect x="44.73" y="44.73" class="st12" width="4.61" height="4.61"/>
		<rect x="49.34" y="44.73" class="st13" width="4.61" height="4.61"/>
		<rect x="44.73" y="49.34" class="st15" width="4.61" height="4.61"/>
		<rect x="58.57" y="49.34" class="st15" width="4.61" height="4.61"/>
		<rect x="63.18" y="44.73" class="st14" width="4.61" height="4.61"/>
		<rect x="53.95" y="49.34" class="st14" width="4.61" height="4.61"/>
		<rect x="58.57" y="44.73" class="st15" width="4.61" height="4.61"/>
		<rect x="49.34" y="49.34" class="st12" width="4.61" height="4.61"/>
		<rect x="40.11" y="35.5" class="st13" width="4.61" height="4.61"/>
		<rect x="26.27" y="35.5" class="st13" width="4.61" height="4.61"/>
		<rect x="30.89" y="35.5" class="st14" width="4.61" height="4.61"/>
		<rect x="21.66" y="35.5" class="st14" width="4.61" height="4.61"/>
		<rect x="44.73" y="35.5" class="st12" width="4.61" height="4.61"/>
		<rect x="49.34" y="35.5" class="st13" width="4.61" height="4.61"/>
		<rect x="35.5" y="35.5" class="st13" width="4.61" height="4.61"/>
		<rect x="21.66" y="30.89" class="st15" width="4.61" height="4.61"/>
		<rect x="26.27" y="30.89" class="st20" width="4.61" height="4.61"/>
		<rect x="49.34" y="30.89" class="st15" width="4.61" height="4.61"/>
		<rect x="35.5" y="30.89" class="st13" width="4.61" height="4.61"/>
		<rect x="30.89" y="30.89" class="st15" width="4.61" height="4.61"/>
		<rect x="40.11" y="30.89" class="st15" width="4.61" height="4.61"/>
		<rect x="44.73" y="30.89" class="st13" width="4.61" height="4.61"/>
		<rect x="53.95" y="35.5" class="st12" width="4.61" height="4.61"/>
		<rect x="63.18" y="35.5" class="st20" width="4.61" height="4.61"/>
		<rect x="58.57" y="35.5" class="st13" width="4.61" height="4.61"/>
		<rect x="63.18" y="30.89" class="st12" width="4.61" height="4.61"/>
		<rect x="58.57" y="30.89" class="st15" width="4.61" height="4.61"/>
		<rect x="53.95" y="30.89" class="st14" width="4.61" height="4.61"/>
		<rect x="7.82" y="30.89" class="st12" width="4.61" height="4.61"/>
		<rect x="17.05" y="30.89" class="st20" width="4.61" height="4.61"/>
		<rect x="12.43" y="30.89" class="st13" width="4.61" height="4.61"/>
		<rect x="17.05" y="35.5" class="st12" width="4.61" height="4.61"/>
		<rect x="12.43" y="35.5" class="st15" width="4.61" height="4.61"/>
		<rect x="7.82" y="35.5" class="st14" width="4.61" height="4.61"/>
		<rect x="3.21" y="30.89" class="st14" width="4.61" height="4.61"/>
		<rect x="3.21" y="35.5" class="st12" width="4.61" height="4.61"/>
		<path class="st21" d="M6.67,3.21c-1.92,0-3.46,1.54-3.46,3.46v2.31c0-1.92,1.54-3.46,3.46-3.46h57.66c1.92,0,3.46,1.54,3.46,3.46
			V6.67c0-1.92-1.54-3.46-3.46-3.46H6.67z"/>
	</g>
</g>
</svg>
