<?xml version="1.0" encoding="utf-8"?>
<!-- Generator: Adobe Illustrator 27.0.0, SVG Export Plug-In . SVG Version: 6.00 Build 0)  -->
<svg version="1.1" id="Layer_1" xmlns="http://www.w3.org/2000/svg" xmlns:xlink="http://www.w3.org/1999/xlink" x="0px" y="0px"
	 viewBox="0 0 122 59" style="enable-background:new 0 0 122 59;" xml:space="preserve">
<style type="text/css">
	.st0{opacity:0.74;fill:#D7F9FF;}
	.st1{fill:url(#SVGID_1_);}
	.st2{fill:url(#SVGID_00000032614555981975063300000007497449835491685287_);}
	.st3{fill:#FFFFFF;}
	.st4{clip-path:url(#SVGID_00000150097196856117993390000018293419807154860452_);}
	.st5{clip-path:url(#SVGID_00000160154504987240904890000004093657058718467519_);}
	.st6{clip-path:url(#SVGID_00000088121135372961875450000006085055834584512694_);}
	.st7{clip-path:url(#SVGID_00000133524446210934619910000002389114508111163560_);}
	.st8{fill:#E6E6E6;}
	.st9{fill:#330000;}
	.st10{fill:#FF9A00;}
	.st11{fill:#001E36;}
	.st12{fill:#31A8FF;}
	.st13{fill:#470137;}
	.st14{fill:#FF61F6;}
	.st15{fill:#272727;}
	.st16{fill:#0ACF83;}
	.st17{fill:#A259FF;}
	.st18{fill:#F24E1E;}
	.st19{fill:#FF7262;}
	.st20{fill:#1ABCFE;}
	.st21{fill:#8E8E8E;}
	
		.st22{clip-path:url(#SVGID_00000046332631996959693780000004869573864916992422_);fill-rule:evenodd;clip-rule:evenodd;fill:#7F79AC;}
	
		.st23{clip-path:url(#SVGID_00000046332631996959693780000004869573864916992422_);fill:none;stroke:#FFFFFF;stroke-width:0.75;stroke-miterlimit:10;}
	.st24{clip-path:url(#SVGID_00000046332631996959693780000004869573864916992422_);fill:#7F79AC;}
	.st25{clip-path:url(#SVGID_00000046332631996959693780000004869573864916992422_);fill:#FFFFFF;}
	.st26{clip-path:url(#SVGID_00000046332631996959693780000004869573864916992422_);}
	.st27{clip-path:url(#SVGID_00000129924963159118771280000000675168889045610418_);fill:#FFFFFF;}
	.st28{clip-path:url(#SVGID_00000182508261458890875980000005539595393976027813_);fill:#FFFFFF;}
	.st29{clip-path:url(#SVGID_00000160875930962317393310000006045994575656543883_);}
	.st30{clip-path:url(#SVGID_00000152967720660628046370000000144450842362218379_);fill:none;stroke:#1D1D1B;stroke-width:0.5;}
	.st31{fill:#B8845B;}
	.st32{fill:#785439;}
	.st33{fill:#956B49;}
	.st34{fill:#583C28;}
	.st35{fill:#72B248;}
	.st36{fill:#60A036;}
	.st37{fill:#9BCA6B;}
	.st38{fill:#56962C;}
	.st39{fill:#6B6B6B;}
	.st40{opacity:0.1;fill:#FFFFFF;enable-background:new    ;}
	.st41{clip-path:url(#SVGID_00000060740437478286245600000012827883589721734273_);}
	.st42{fill:#231F20;}
	.st43{fill:#EBEBEB;}
	.st44{fill:#32C5F4;}
	.st45{fill:url(#SVGID_00000087376904565963976860000013805544268022916541_);}
	.st46{fill:url(#SVGID_00000038414369824594844210000011361889193623945113_);}
	.st47{fill:url(#SVGID_00000171713376770147072130000000745013270477076106_);}
	.st48{fill:#DFEBFD;}
	.st49{fill:#FF4A1E;}
	.st50{fill:#EBE7F7;}
	.st51{fill:#7C409C;}
	.st52{fill:#6139BC;}
	.st53{fill:#56309E;}
	.st54{fill:url(#SVGID_00000104684591641204981760000012877709868171280313_);}
	.st55{fill:url(#SVGID_00000021114181395348508630000006280875396356833971_);}
	.st56{fill:#744DA5;}
	.st57{fill:#FFC22A;}
	.st58{fill:#4A2C76;}
	.st59{fill:#41B8E1;}
	.st60{fill:#279FDA;}
	.st61{fill:#0CC243;}
	.st62{fill-rule:evenodd;clip-rule:evenodd;fill:#FFFFFF;}
</style>
<g>
	<g>
		<linearGradient id="SVGID_1_" gradientUnits="userSpaceOnUse" x1="63.7132" y1="29.5" x2="120.8995" y2="29.5">
			<stop  offset="0" style="stop-color:#00C9FF"/>
			<stop  offset="1" style="stop-color:#92FE9D"/>
		</linearGradient>
		<circle class="st1" cx="92.31" cy="29.5" r="28.59"/>
		<g>
			<path class="st3" d="M74.15,36.34L74.15,36.34c-1.7,0-2.95-1.68-2.38-3.28c1.35-3.76,4.95-6.46,9.18-6.46h9.55v-4.75
				c0-1.6-1.29-2.89-2.89-2.89H77.1v3.93h-2c-1.38,0-2.5-1.12-2.5-2.5v-3.43c0-1.38,1.12-2.5,2.5-2.5h12.51c4.08,0,7.4,3.31,7.4,7.4
				v6.75c0,1.38-1.12,2.5-2.5,2.5H80.95c-2.44,0-4.5,1.68-5.08,3.95C75.67,35.82,74.95,36.34,74.15,36.34z"/>
			<path class="st3" d="M105.59,22.66h-6.84v4.51h6.84c1.6,0,2.89,1.29,2.89,2.89v4.75h-9.55c-4.22,0-7.83,2.7-9.18,6.46
				c-0.58,1.6,0.68,3.28,2.38,3.28h0c0.8,0,1.52-0.52,1.72-1.29c0.58-2.27,2.64-3.95,5.08-3.95h11.55c1.38,0,2.5-1.12,2.5-2.5v-6.75
				C112.98,25.97,109.67,22.66,105.59,22.66z"/>
		</g>
	</g>
	<path d="M6.87,20.85c0.46,0.26,0.98,0.25,1.44,0c0.23-0.13,0.41-0.31,0.53-0.53c0.13-0.23,0.19-0.46,0.19-0.71
		c0-0.25-0.07-0.5-0.2-0.73c-0.13-0.23-0.31-0.41-0.54-0.53c-0.23-0.12-0.47-0.18-0.71-0.18c-0.24,0-0.47,0.06-0.71,0.19
		c-0.23,0.12-0.4,0.3-0.53,0.53c-0.13,0.23-0.19,0.48-0.19,0.73c0,0.24,0.06,0.48,0.19,0.71C6.46,20.54,6.64,20.72,6.87,20.85z"/>
	<path d="M20.77,24.37c-0.18-0.1-0.37-0.15-0.55-0.15c-0.19,0-0.38,0.05-0.56,0.14c-0.18,0.09-0.31,0.23-0.42,0.41
		c-0.1,0.18-0.15,0.37-0.15,0.57c0,0.19,0.05,0.38,0.15,0.55c0.1,0.18,0.23,0.31,0.41,0.41c0.35,0.19,0.75,0.2,1.13,0
		c0.18-0.1,0.32-0.24,0.42-0.41c0.1-0.18,0.15-0.37,0.15-0.55c0-0.2-0.05-0.39-0.15-0.57C21.09,24.6,20.95,24.46,20.77,24.37z"/>
	<path d="M17.9,26.32c0.18-0.1,0.32-0.24,0.42-0.41c0.1-0.18,0.15-0.37,0.15-0.55c0-0.2-0.05-0.39-0.15-0.57
		c-0.1-0.18-0.24-0.32-0.42-0.41c-0.18-0.1-0.37-0.15-0.55-0.15c-0.19,0-0.38,0.05-0.56,0.14c-0.18,0.09-0.31,0.23-0.42,0.41
		c-0.1,0.18-0.15,0.37-0.15,0.57c0,0.19,0.05,0.38,0.15,0.55c0.1,0.18,0.23,0.31,0.41,0.41C17.13,26.51,17.53,26.52,17.9,26.32z"/>
	<path d="M5.69,26.82h3.65c1.18,0,2.27-0.4,3.24-1.2c0.85-0.96,1.33-1.76,1.39-2.38l0.01-0.11h34.49c0.43,0,0.7-0.28,0.82-0.84
		l0-2.64c0-0.38-0.05-0.84-0.16-1.36c-0.52-1.59-1.72-2.37-3.65-2.37h-5.54c-0.55,0-0.83,0.29-0.9,0.91l0,0.89
		c2.56,0,4.41,0.03,5.5,0.08c0,0,0,0,0,0c1.67,0,2.55,0.34,2.7,1.04l0,2.41H37.2v-2.87c-0.11-0.65-0.38-0.98-0.82-0.98h-0.31
		c-0.48,0.18-0.72,0.52-0.72,1.02v2.83H22.42v-2.91c-0.1-0.66-0.37-0.98-0.82-0.98H21.4l-0.23,0.04c-0.39,0.18-0.59,0.53-0.59,1.07
		v2.79h-6.32v-5.21H13.1c-0.48,0.18-0.72,0.52-0.72,1.02v4.84c0,0.3-0.04,0.6-0.13,0.9c-0.6,1.45-1.69,2.18-3.24,2.18H6.35
		c-0.41,0-0.79-0.06-1.15-0.17c-1.53-0.56-2.3-1.61-2.3-3.11v-5.66H1.96c-0.57,0.13-0.86,0.4-0.86,0.82v4.92
		c0,0.71,0.16,1.45,0.48,2.21C2.67,25.86,4.06,26.82,5.69,26.82z"/>
	<path d="M16.8,38.06c-0.18-0.1-0.37-0.14-0.56-0.14c-0.18,0-0.37,0.05-0.55,0.14c-0.18,0.1-0.32,0.23-0.42,0.41
		c-0.1,0.18-0.15,0.37-0.15,0.57c0,0.19,0.05,0.38,0.15,0.55c0.1,0.18,0.23,0.31,0.41,0.41c0.36,0.2,0.77,0.19,1.12,0
		c0.18-0.1,0.31-0.23,0.41-0.41c0.1-0.18,0.15-0.37,0.15-0.55c0-0.2-0.05-0.39-0.15-0.57C17.12,38.3,16.98,38.16,16.8,38.06z"/>
	<path d="M17.22,35.61c-0.1-0.18-0.24-0.32-0.42-0.41c-0.18-0.1-0.37-0.14-0.56-0.14c-0.18,0-0.37,0.05-0.55,0.14
		c-0.18,0.1-0.32,0.23-0.42,0.41c-0.1,0.18-0.15,0.37-0.15,0.57c0,0.19,0.05,0.38,0.15,0.55c0.1,0.18,0.23,0.31,0.41,0.41
		c0.36,0.2,0.77,0.19,1.12,0c0.18-0.1,0.31-0.23,0.41-0.41c0.1-0.18,0.15-0.37,0.15-0.55C17.37,35.98,17.32,35.79,17.22,35.61z"/>
	<path d="M49.3,39.65c0-0.38-0.05-0.84-0.16-1.36c-0.52-1.59-1.72-2.37-3.65-2.37h-5.54c-0.55,0-0.83,0.29-0.9,0.91l0,0.89
		c2.56,0,4.41,0.03,5.5,0.08c0,0,0,0,0,0c1.67,0,2.55,0.34,2.7,1.04l0,2.41h-4.42h-0.13h-4.89l0.03-0.15
		c0.05-0.27,0.08-0.49,0.08-0.67v-0.16c0-0.35-0.12-0.82-0.36-1.39c-0.34-0.46-2.01-2.46-4.94-5.91l-0.03-0.04v-0.17l0.08-0.03
		c3.07-1.15,5.39-1.99,6.88-2.51c-0.17-0.97-0.52-1.47-1.02-1.47h-0.25c-0.16,0.01-1.44,0.42-6.64,2.37
		c-0.98,0.25-1.48,0.61-1.48,1.07v0.16l0.03,0.23l4.82,5.8c0.82,0.82,1.22,1.47,1.22,1.97v0.08c0,0.42-0.23,0.7-0.68,0.82l-0.03,0
		h-1.11h-1.69h-2.26l0.07-0.17c0.23-0.57,0.35-1.08,0.35-1.51V39.4c0-0.24-0.04-0.54-0.12-0.92c-0.7-1.78-1.83-2.65-3.45-2.65h-0.25
		c-0.55,0-1.12,0.16-1.7,0.48c-1.21,0.83-1.82,1.87-1.82,3.09c0,0.61,0.13,1.17,0.38,1.67l0.09,0.18h-3.07v-2.91
		c-0.1-0.66-0.37-0.98-0.82-0.98h-0.21l-0.23,0.04c-0.39,0.18-0.59,0.53-0.59,1.07v2.79H8.44c-0.1,0-0.18,0.02-0.27,0.07
		c-0.43,0.15-0.63,0.54-0.63,1.2v0.61H9.3c1.47,0,2.3,0.22,2.53,0.68l0.03,0.06l-0.03,0.06c-0.02,0.03-0.02,0.06-0.02,0.1v0.06
		l-0.04,0.04c-0.66,0.56-1.56,0.85-2.67,0.85H6.68c-0.79,0-1.46-0.13-1.98-0.38c-1.16-0.47-1.75-1.56-1.75-3.23v-5.33H1.92
		c-0.43,0-0.7,0.28-0.82,0.84l0,4.2c0,0.86,0.14,1.69,0.4,2.46c0.91,2.17,2.38,3.28,4.35,3.28h3.57c0.46,0,0.87-0.05,1.24-0.16
		c2.01-0.64,2.99-1.69,2.99-3.2v-0.33h19.08h1.69h8.28h0.13h5.65c0.43,0,0.7-0.28,0.82-0.84L49.3,39.65z M29,39.87
		c-0.29,0.82-0.74,1.28-1.34,1.38l-0.74,0l-0.03,0c-0.99-0.27-1.5-0.87-1.5-1.76c0-0.94,0.54-1.55,1.61-1.8l0.4,0
		c0.08,0,0.21,0.03,0.41,0.09c0.82,0.34,1.24,0.92,1.24,1.72L29,39.87z"/>
</g>
</svg>
