<?xml version="1.0" encoding="utf-8"?>
<!-- Generator: Adobe Illustrator 27.0.0, SVG Export Plug-In . SVG Version: 6.00 Build 0)  -->
<svg version="1.1" id="Layer_1" xmlns="http://www.w3.org/2000/svg" xmlns:xlink="http://www.w3.org/1999/xlink" x="0px" y="0px"
	 viewBox="0 0 19 19" style="enable-background:new 0 0 19 19;" xml:space="preserve">
<style type="text/css">
	.st0{opacity:0.74;fill:#D7F9FF;}
	.st1{fill:url(#SVGID_1_);}
	.st2{fill:url(#SVGID_00000119801163810097977910000012962591469092637335_);}
	.st3{fill:#FFFFFF;}
	.st4{clip-path:url(#SVGID_00000170280421674877301240000016389410966609871279_);}
	.st5{clip-path:url(#SVGID_00000172407449197776939330000008970981108733122471_);}
	.st6{clip-path:url(#SVGID_00000100384373345572561290000017288445037613904266_);}
	.st7{clip-path:url(#SVGID_00000072253040217778062960000004194166701899808917_);}
	.st8{fill:#E6E6E6;}
	.st9{fill:#330000;}
	.st10{fill:#FF9A00;}
	.st11{fill:#001E36;}
	.st12{fill:#31A8FF;}
	.st13{fill:#470137;}
	.st14{fill:#FF61F6;}
	.st15{fill:#272727;}
	.st16{fill:#0ACF83;}
	.st17{fill:#A259FF;}
	.st18{fill:#F24E1E;}
	.st19{fill:#FF7262;}
	.st20{fill:#1ABCFE;}
	.st21{fill:#8E8E8E;}
	
		.st22{clip-path:url(#SVGID_00000048463048843334899970000015880826113772264108_);fill-rule:evenodd;clip-rule:evenodd;fill:#7F79AC;}
	
		.st23{clip-path:url(#SVGID_00000048463048843334899970000015880826113772264108_);fill:none;stroke:#FFFFFF;stroke-width:0.75;stroke-miterlimit:10;}
	.st24{clip-path:url(#SVGID_00000048463048843334899970000015880826113772264108_);fill:#7F79AC;}
	.st25{clip-path:url(#SVGID_00000048463048843334899970000015880826113772264108_);fill:#FFFFFF;}
	.st26{clip-path:url(#SVGID_00000048463048843334899970000015880826113772264108_);}
	.st27{clip-path:url(#SVGID_00000052805736966166490910000000525224043752873346_);fill:#FFFFFF;}
	.st28{clip-path:url(#SVGID_00000137854369878162160960000005892031291601233568_);fill:#FFFFFF;}
	.st29{clip-path:url(#SVGID_00000088854843428879725510000012752205019666893484_);}
	.st30{clip-path:url(#SVGID_00000130646464859117777950000017963342488825776011_);fill:none;stroke:#1D1D1B;stroke-width:0.5;}
	.st31{fill:#B8845B;}
	.st32{fill:#785439;}
	.st33{fill:#956B49;}
	.st34{fill:#583C28;}
	.st35{fill:#72B248;}
	.st36{fill:#60A036;}
	.st37{fill:#9BCA6B;}
	.st38{fill:#56962C;}
	.st39{fill:#6B6B6B;}
	.st40{opacity:0.1;fill:#FFFFFF;enable-background:new    ;}
	.st41{clip-path:url(#SVGID_00000158008922073168602310000007117178564798376863_);}
	.st42{fill:#231F20;}
	.st43{fill:#EBEBEB;}
	.st44{fill:#32C5F4;}
	.st45{fill:url(#SVGID_00000142893602307835264280000009409527013306867842_);}
	.st46{fill:url(#SVGID_00000031926615719252636010000003918740587196624815_);}
	.st47{fill:#DFEBFD;}
	.st48{fill:#FF4A1E;}
	.st49{fill:#EBE7F7;}
	.st50{fill:#7C409C;}
	.st51{fill:#6139BC;}
	.st52{fill:#56309E;}
	.st53{fill:url(#SVGID_00000090280341008160096080000011651567283849034880_);}
	.st54{fill:url(#SVGID_00000050641069800416903500000000633787896963620798_);}
	.st55{fill:#744DA5;}
	.st56{fill:#FFC22A;}
	.st57{fill:#4A2C76;}
	.st58{fill:#41B8E1;}
	.st59{fill:#279FDA;}
	.st60{fill:#0CC243;}
	.st61{fill-rule:evenodd;clip-rule:evenodd;fill:#FFFFFF;}
</style>
<g>
	<g>
		<path class="st44" d="M9.5,2.13c4.07,0,7.37,3.3,7.37,7.37s-3.3,7.37-7.37,7.37s-7.37-3.3-7.37-7.37S5.43,2.13,9.5,2.13 M9.5,1.13
			c-4.62,0-8.37,3.76-8.37,8.37s3.76,8.37,8.37,8.37s8.37-3.76,8.37-8.37S14.12,1.13,9.5,1.13L9.5,1.13z"/>
	</g>
	<g>
		<g>
			<path class="st44" d="M4.82,11.26L4.82,11.26c-0.44,0-0.76-0.43-0.61-0.85c0.35-0.97,1.28-1.67,2.37-1.67h2.46V7.52
				c0-0.41-0.33-0.75-0.75-0.75H5.58v1.01H5.06c-0.36,0-0.65-0.29-0.65-0.65V6.26c0-0.36,0.29-0.65,0.65-0.65h3.23
				c1.05,0,1.91,0.85,1.91,1.91v1.74c0,0.36-0.29,0.65-0.65,0.65H6.57c-0.63,0-1.16,0.43-1.31,1.02
				C5.21,11.13,5.02,11.26,4.82,11.26z"/>
			<path class="st44" d="M12.93,7.74h-1.76V8.9h1.76c0.41,0,0.75,0.33,0.75,0.75v1.23h-2.46c-1.09,0-2.02,0.7-2.37,1.67
				c-0.15,0.41,0.17,0.85,0.61,0.85h0c0.21,0,0.39-0.13,0.44-0.33c0.15-0.58,0.68-1.02,1.31-1.02h2.98c0.36,0,0.65-0.29,0.65-0.65
				V9.64C14.83,8.59,13.98,7.74,12.93,7.74z"/>
		</g>
	</g>
</g>
</svg>
