<svg width="18" height="18" viewBox="0 0 18 18" fill="none" xmlns="http://www.w3.org/2000/svg">
<path d="M0 2.1026C0 1.0613 0.839466 0.217163 1.875 0.217163L5.625 0.217163C6.66053 0.217163 7.5 1.0613 7.5 2.1026V5.87348C7.5 6.91478 6.66053 7.75892 5.625 7.75892H1.875C0.839466 7.75892 0 6.91478 0 5.87348L0 2.1026ZM10 2.1026C10 1.0613 10.8395 0.217163 11.875 0.217163L15.625 0.217163C16.6605 0.217163 17.5 1.0613 17.5 2.1026V5.87348C17.5 6.91478 16.6605 7.75892 15.625 7.75892H11.875C10.8395 7.75892 10 6.91478 10 5.87348V2.1026ZM0 12.1583C0 11.117 0.839466 10.2728 1.875 10.2728H5.625C6.66053 10.2728 7.5 11.117 7.5 12.1583V15.9292C7.5 16.9705 6.66053 17.8146 5.625 17.8146H1.875C0.839466 17.8146 0 16.9705 0 15.9292L0 12.1583ZM10 12.1583C10 11.117 10.8395 10.2728 11.875 10.2728H15.625C16.6605 10.2728 17.5 11.117 17.5 12.1583V15.9292C17.5 16.9705 16.6605 17.8146 15.625 17.8146H11.875C10.8395 17.8146 10 16.9705 10 15.9292V12.1583Z" fill="#00AEFF"/>
</svg>
