<?xml version="1.0" encoding="utf-8"?>
<!-- Generator: Adobe Illustrator 27.0.0, SVG Export Plug-In . SVG Version: 6.00 Build 0)  -->
<svg version="1.1" id="Layer_1" xmlns="http://www.w3.org/2000/svg" xmlns:xlink="http://www.w3.org/1999/xlink" x="0px" y="0px"
	 viewBox="0 0 38 38" style="enable-background:new 0 0 38 38;" xml:space="preserve">
<style type="text/css">
	.st0{fill:url(#SVGID_1_);}
	.st1{fill:#FFFFFF;}
	.st2{fill:#E6E6E6;}
	.st3{fill:#001E36;}
	.st4{fill:#31A8FF;}
	.st5{fill:#470137;}
	.st6{fill:#FF61F6;}
	.st7{fill:#272727;}
	.st8{fill:#0ACF83;}
	.st9{fill:#A259FF;}
	.st10{fill:#F24E1E;}
	.st11{fill:#FF7262;}
	.st12{fill:#1ABCFE;}
	.st13{fill:#8E8E8E;}
	
		.st14{clip-path:url(#SVGID_00000159470119283173829230000015417430105022288308_);fill-rule:evenodd;clip-rule:evenodd;fill:#7F79AC;}
	
		.st15{clip-path:url(#SVGID_00000159470119283173829230000015417430105022288308_);fill:none;stroke:#FFFFFF;stroke-width:0.75;stroke-miterlimit:10;}
	.st16{clip-path:url(#SVGID_00000159470119283173829230000015417430105022288308_);fill:#7F79AC;}
	.st17{clip-path:url(#SVGID_00000159470119283173829230000015417430105022288308_);fill:#FFFFFF;}
	.st18{clip-path:url(#SVGID_00000159470119283173829230000015417430105022288308_);}
	.st19{clip-path:url(#SVGID_00000081642332867965750270000017839687815635297953_);fill:#FFFFFF;}
	.st20{clip-path:url(#SVGID_00000135691352151357570090000000475285182992752526_);fill:#FFFFFF;}
	.st21{clip-path:url(#SVGID_00000142896774853124916020000012171309571702906803_);}
	.st22{clip-path:url(#SVGID_00000017474947933614073010000003976190143977959348_);fill:none;stroke:#1D1D1B;stroke-width:0.5;}
	.st23{fill:#B8845B;}
	.st24{fill:#785439;}
	.st25{fill:#956B49;}
	.st26{fill:#583C28;}
	.st27{fill:#72B248;}
	.st28{fill:#60A036;}
	.st29{fill:#9BCA6B;}
	.st30{fill:#56962C;}
	.st31{fill:#6B6B6B;}
	.st32{opacity:0.1;fill:#FFFFFF;enable-background:new    ;}
	.st33{clip-path:url(#SVGID_00000138543339388114105160000000338894804211765174_);}
	.st34{fill:#231F20;}
	.st35{fill:#EBEBEB;}
	.st36{fill:#32C5F4;}
	.st37{fill:url(#SVGID_00000081613257377213503080000016174050383831758976_);}
	.st38{fill:url(#SVGID_00000127006449696295225110000009642223860475759805_);}
	.st39{opacity:0.74;fill:#D7F9FF;}
	.st40{fill:#DFEBFD;}
	.st41{fill:#FF4A1E;}
	.st42{fill:#EBE7F7;}
	.st43{fill:#7C409C;}
	.st44{fill:#6139BC;}
	.st45{fill:#56309E;}
	.st46{fill:url(#SVGID_00000068649246171495885320000011614036066551893379_);}
	.st47{fill:url(#SVGID_00000015316815636745154390000005563728145752179098_);}
	.st48{fill:#744DA5;}
	.st49{fill:#FFC22A;}
	.st50{fill:#4A2C76;}
	.st51{fill:#41B8E1;}
	.st52{fill:#279FDA;}
	.st53{fill:#0CC243;}
	.st54{fill-rule:evenodd;clip-rule:evenodd;fill:#FFFFFF;}
</style>
<g>
	<circle class="st2" cx="19" cy="19" r="18.03"/>
	<g>
		<g>
			<path class="st3" d="M14.15,27.49h9.69c2,0,3.64-1.64,3.64-3.64v-9.69c0-2-1.64-3.64-3.64-3.64h-9.69c-2,0-3.64,1.64-3.64,3.64
				v9.69C10.51,25.85,12.15,27.49,14.15,27.49z"/>
		</g>
		<g>
			<path class="st4" d="M16.26,22.18v-2.19c0.12,0.01,0.25,0.02,0.4,0.02c0.92,0,1.66-0.24,2.14-0.7c0.4-0.38,0.62-0.94,0.62-1.58
				c0-0.63-0.26-1.19-0.72-1.55c-0.45-0.36-1.11-0.53-2.01-0.53c-0.78,0-1.45,0.05-1.97,0.13c-0.04,0.01-0.07,0.04-0.07,0.09v6.31
				c0,0.05,0.04,0.09,0.09,0.09h1.43C16.22,22.27,16.26,22.23,16.26,22.18z M16.26,18.69v-1.74c0.09-0.02,0.25-0.04,0.51-0.04
				c0.66,0,1.04,0.31,1.04,0.85c0,0.6-0.43,0.96-1.15,0.96C16.48,18.72,16.36,18.71,16.26,18.69z"/>
			<path class="st4" d="M22.02,19.25c-0.59-0.21-0.69-0.31-0.69-0.45c0-0.25,0.29-0.29,0.46-0.29c0.37,0,0.75,0.14,0.96,0.25
				c0.02,0.01,0.05,0.01,0.08,0c0.03-0.01,0.04-0.03,0.05-0.06l0.26-1c0.01-0.04-0.01-0.08-0.05-0.1c-0.27-0.13-0.76-0.28-1.35-0.28
				c-1.16,0-1.98,0.66-1.98,1.61c-0.01,0.46,0.23,1.09,1.38,1.48c0.56,0.19,0.62,0.28,0.62,0.45c0,0.07,0,0.3-0.53,0.3
				c-0.4,0-0.93-0.18-1.2-0.34c-0.02-0.01-0.05-0.02-0.08-0.01c-0.03,0.01-0.05,0.03-0.05,0.06l-0.26,1.03
				c-0.01,0.04,0.01,0.08,0.04,0.1c0.39,0.21,0.95,0.33,1.54,0.33c1.3,0,2.1-0.61,2.1-1.59C23.33,20.03,22.92,19.56,22.02,19.25z"/>
		</g>
	</g>
</g>
</svg>
