<svg width="30" height="30" viewBox="0 0 30 30" fill="none" xmlns="http://www.w3.org/2000/svg">
<circle cx="15" cy="15" r="15" fill="white"/>
<path d="M22.7604 18.968L20.2564 13.12C19.4084 11.136 17.8484 11.056 16.8004 12.944L15.2884 15.672C14.5204 17.056 13.0884 17.176 12.0964 15.936L11.9204 15.712C10.8884 14.416 9.43236 14.576 8.68835 16.056L7.31235 18.816C6.34434 20.736 7.74435 23 9.88836 23H20.0964C22.1764 23 23.5764 20.88 22.7604 18.968Z" stroke="#00AEFF" stroke-width="2" stroke-linecap="round" stroke-linejoin="round"/>
<path d="M10.9924 11.8C12.3179 11.8 13.3924 10.7255 13.3924 9.40001C13.3924 8.07452 12.3179 7 10.9924 7C9.66693 7 8.59241 8.07452 8.59241 9.40001C8.59241 10.7255 9.66693 11.8 10.9924 11.8Z" stroke="#00AEFF" stroke-width="2" stroke-linecap="round" stroke-linejoin="round"/>
</svg>
