<?xml version="1.0" encoding="utf-8"?>
<!-- Generator: Adobe Illustrator 27.0.0, SVG Export Plug-In . SVG Version: 6.00 Build 0)  -->
<svg version="1.1" id="Layer_1" xmlns="http://www.w3.org/2000/svg" xmlns:xlink="http://www.w3.org/1999/xlink" x="0px" y="0px"
	 viewBox="0 0 567 396" style="enable-background:new 0 0 567 396;" xml:space="preserve">
<style type="text/css">
	.st0{fill:url(#SVGID_1_);}
	.st1{fill:#FFFFFF;}
	.st2{fill:#8E8E8E;}
	
		.st3{clip-path:url(#SVGID_00000119802651578541063290000013396531491473873819_);fill-rule:evenodd;clip-rule:evenodd;fill:#7F79AC;}
	
		.st4{clip-path:url(#SVGID_00000119802651578541063290000013396531491473873819_);fill:none;stroke:#FFFFFF;stroke-width:0.75;stroke-miterlimit:10;}
	.st5{clip-path:url(#SVGID_00000119802651578541063290000013396531491473873819_);fill:#7F79AC;}
	.st6{clip-path:url(#SVGID_00000119802651578541063290000013396531491473873819_);fill:#FFFFFF;}
	.st7{clip-path:url(#SVGID_00000119802651578541063290000013396531491473873819_);}
	.st8{clip-path:url(#SVGID_00000037689428396706502640000010788255515598879421_);fill:#FFFFFF;}
	.st9{clip-path:url(#SVGID_00000059274322964282468280000004130635389357626765_);fill:#FFFFFF;}
	.st10{clip-path:url(#SVGID_00000088846095732582953610000001698256548396381878_);}
	.st11{clip-path:url(#SVGID_00000048472057444518659710000011639768704690909583_);fill:none;stroke:#1D1D1B;stroke-width:0.5;}
	.st12{fill:#B8845B;}
	.st13{fill:#785439;}
	.st14{fill:#956B49;}
	.st15{fill:#583C28;}
	.st16{fill:#72B248;}
	.st17{fill:#60A036;}
	.st18{fill:#9BCA6B;}
	.st19{fill:#56962C;}
	.st20{fill:#6B6B6B;}
	.st21{opacity:0.1;fill:#FFFFFF;enable-background:new    ;}
	.st22{fill:#231F20;}
	.st23{fill:#EBEBEB;}
	.st24{fill:#32C5F4;}
	.st25{fill:url(#SVGID_00000141434502962693931410000000658671675998915766_);}
	.st26{fill:url(#SVGID_00000138565212834614995480000004864990512006669750_);}
	.st27{opacity:0.74;fill:#D7F9FF;}
	.st28{fill:#DFEBFD;}
	.st29{fill:#FF4A1E;}
	.st30{fill:#EBE7F7;}
	.st31{fill:#7C409C;}
	.st32{fill:#6139BC;}
	.st33{fill:#56309E;}
	.st34{fill:url(#SVGID_00000103243778158222880550000016622115717817047990_);}
	.st35{fill:url(#SVGID_00000183223277017394192510000003016221444936660378_);}
	.st36{fill:#744DA5;}
	.st37{fill:#FFC22A;}
	.st38{fill:#4A2C76;}
	.st39{fill:#41B8E1;}
	.st40{fill:#279FDA;}
	.st41{fill:#0CC243;}
	.st42{fill-rule:evenodd;clip-rule:evenodd;fill:#FFFFFF;}
</style>
<g>
	<g>
		<g>
			<linearGradient id="SVGID_1_" gradientUnits="userSpaceOnUse" x1="5.2321" y1="199.3749" x2="567.4088" y2="199.3749">
				<stop  offset="0" style="stop-color:#71E4FF"/>
				<stop  offset="1" style="stop-color:#00C9FF"/>
			</linearGradient>
			<path class="st0" d="M45.58,388.92c0,0-66.64-90.36-11.27-188.2c49.13-86.8,106.4-80.87,148.42-45.64
				c17.9,15,69.5,1.85,113.42-86.48c59.89-120.45,267.5-47.4,229.65,137.92c-18.32,89.68,55.75,92.94,18.01,182.59L45.58,388.92z"/>
		</g>
	</g>
	
		<linearGradient id="SVGID_00000075129616800218405440000003836859034720246445_" gradientUnits="userSpaceOnUse" x1="5.2321" y1="64.9891" x2="567.4088" y2="64.9891">
		<stop  offset="0" style="stop-color:#71E4FF"/>
		<stop  offset="1" style="stop-color:#00C9FF"/>
	</linearGradient>
	<path style="fill:url(#SVGID_00000075129616800218405440000003836859034720246445_);" d="M231.05,101.76
		c-28.2,25.09-65.71,28.97-83.77,8.66c-18.06-20.31-9.85-57.11,18.36-82.2s65.71-28.97,83.77-8.66
		C267.48,39.87,259.26,76.67,231.05,101.76z"/>
	<path class="st27" d="M88.39,103.4c-7.75-8.71-8.95-20.3-2.68-25.88c6.27-5.58,17.64-3.04,25.39,5.67
		c7.75,8.71,8.95,20.3,2.68,25.88C107.51,114.65,96.14,112.11,88.39,103.4z"/>
	<path class="st27" d="M520.74,68.34c-2.57-11.37,1.99-22.09,10.18-23.94c8.19-1.85,16.91,5.87,19.48,17.25
		c2.57,11.37-1.99,22.09-10.18,23.94C532.03,87.43,523.3,79.71,520.74,68.34z"/>
	<g>
		<path class="st28" d="M443.02,105.37h-13.13c-6.4,0-11.64-5.24-11.64-11.64v-9.85c0-6.4,5.24-11.64,11.64-11.64h13.13
			c6.4,0,11.64,5.24,11.64,11.64v9.85C454.67,100.13,449.43,105.37,443.02,105.37z"/>
		<g>
			<path class="st29" d="M426.78,88.53c1.01,2.67,9.68,9.67,9.68,9.67s2.83-2.3,5.44-4.77c1.96-1.83,3.79-3.76,4.22-4.9
				c1.03-2.65-0.06-6.44-3.85-7.08c-3.77-0.64-5.81,3.31-5.81,3.31s-2.04-3.95-5.83-3.31c-0.66,0.11-1.24,0.32-1.73,0.61
				C426.54,83.38,425.94,86.35,426.78,88.53z"/>
		</g>
	</g>
	<g>
		<path class="st30" d="M59.47,217.32h55.76c4.44,0,8.08,3.64,8.08,8.08v24.46c0,4.08-3.34,7.42-7.42,7.42h-1.43l2.69,11.35
			l-16.87-11.35H58.99c-4.44,0-8.07-3.63-8.07-8.07v-23.34C50.91,221.17,54.76,217.32,59.47,217.32z"/>
		<path class="st31" d="M57.97,235.08h58.14c0.79,0,1.44-0.65,1.44-1.44l0,0c0-0.79-0.65-1.44-1.44-1.44H57.97
			c-0.79,0-1.44,0.65-1.44,1.44l0,0C56.53,234.43,57.18,235.08,57.97,235.08z"/>
		<path class="st31" d="M57.97,241.52h58.14c0.79,0,1.44-0.65,1.44-1.44l0,0c0-0.79-0.65-1.44-1.44-1.44H57.97
			c-0.79,0-1.44,0.65-1.44,1.44l0,0C56.53,240.88,57.18,241.52,57.97,241.52z"/>
		<path class="st31" d="M57.97,247.97h58.14c0.79,0,1.44-0.65,1.44-1.44l0,0c0-0.79-0.65-1.44-1.44-1.44H57.97
			c-0.79,0-1.44,0.65-1.44,1.44l0,0C56.53,247.32,57.18,247.97,57.97,247.97z"/>
		<path class="st31" d="M89.65,225.07h24.68c0.94,0,1.71-0.77,1.71-1.71l0,0c0-0.94-0.77-1.71-1.71-1.71H89.65
			c-0.94,0-1.71,0.77-1.71,1.71l0,0C87.93,224.3,88.7,225.07,89.65,225.07z"/>
		<path class="st31" d="M68.79,225.07h14.13c0.94,0,1.71-0.77,1.71-1.71v0c0-0.94-0.77-1.71-1.71-1.71H68.79
			c-0.94,0-1.71,0.77-1.71,1.71l0,0C67.08,224.3,67.85,225.07,68.79,225.07z"/>
	</g>
	<g>
		<polygon class="st32" points="426.62,204.07 461.69,215.54 440.68,195.06 438.55,200.07 429.53,200.11 		"/>
		<polygon class="st30" points="461.69,215.54 434.47,194.83 405.39,188.19 		"/>
		<polygon class="st30" points="440.68,195.06 461.69,215.54 447.69,186.86 		"/>
	</g>
	<g>
		<polygon class="st32" points="219.83,73.43 187.05,78.1 208.8,63.28 209.91,68.03 217.88,69.47 		"/>
		<polygon class="st30" points="187.05,78.1 214.33,64.04 241.06,62.7 		"/>
		<polygon class="st30" points="208.8,63.28 187.05,78.1 203.89,54.93 		"/>
	</g>
	<g>
		<g>
			<path class="st33" d="M370.43,389.46H247.84c-11.92,0-21.68-9.75-21.68-21.68V98.75c0-11.92,9.75-21.68,21.68-21.68h122.59
				c11.92,0,21.68,9.75,21.68,21.68v269.03C392.11,379.7,382.35,389.46,370.43,389.46z"/>
			<g>
				
					<linearGradient id="SVGID_00000159435395314293760500000017670492790734325664_" gradientUnits="userSpaceOnUse" x1="234.3878" y1="232.222" x2="383.8815" y2="232.222">
					<stop  offset="0" style="stop-color:#FED747"/>
					<stop  offset="1" style="stop-color:#F94E43"/>
				</linearGradient>
				<path style="fill:url(#SVGID_00000159435395314293760500000017670492790734325664_);" d="M383.88,101.01v262.43
					c0,8.9-7.23,16.19-16.07,16.19H250.45c-8.84,0-16.06-7.28-16.06-16.19V101.01c0-8.9,7.23-16.19,16.06-16.19h117.36
					C376.65,84.82,383.88,92.1,383.88,101.01z"/>
				
					<linearGradient id="SVGID_00000085961773546388517560000015045189253520091027_" gradientUnits="userSpaceOnUse" x1="234.3878" y1="232.222" x2="367.8139" y2="232.222">
					<stop  offset="0" style="stop-color:#FED747"/>
					<stop  offset="1" style="stop-color:#F94E43"/>
				</linearGradient>
				<path style="fill:url(#SVGID_00000085961773546388517560000015045189253520091027_);" d="M367.81,84.82L251.9,379.62h-1.45
					c-8.84,0-16.06-7.28-16.06-16.19V101.01c0-8.9,7.23-16.19,16.06-16.19H367.81z"/>
			</g>
			<path class="st33" d="M333.09,94.58h-47.91c-4.31,0-7.84-3.53-7.84-7.84l0,0c0-4.31,3.53-7.84,7.84-7.84h47.91
				c4.31,0,7.84,3.53,7.84,7.84v0C340.92,91.05,337.4,94.58,333.09,94.58z"/>
		</g>
		<path class="st36" d="M169.84,238.75h160.41c7.58,0,13.72-6.14,13.72-13.72v-60.37c0-7.58-6.14-13.72-13.72-13.72H169.84
			c-7.58,0-13.72,6.14-13.72,13.72v60.37C156.12,232.61,162.27,238.75,169.84,238.75z"/>
		<g>
			<path class="st36" d="M331.95,139.82h-59.91c-6.34,0-11.48-5.14-11.48-11.47v-6.99c0-6.34,5.14-11.47,11.48-11.47h59.91
				c6.34,0,11.48,5.14,11.48,11.48v6.99C343.42,134.68,338.29,139.82,331.95,139.82z"/>
		</g>
		<g>
			<path class="st36" d="M328.55,359.3h-68.83c-7.59,0-13.74-6.15-13.74-13.74v-9.45c0-7.59,6.15-13.74,13.74-13.74h68.83
				c7.59,0,13.74,6.15,13.74,13.74v9.45C342.29,353.15,336.14,359.3,328.55,359.3z"/>
		</g>
		<g>
			<path class="st30" d="M357.18,307.07h-63.39c-9.09,0-16.46-7.37-16.46-16.46v-20.08c0-9.09,7.37-16.46,16.46-16.46h63.39
				c9.09,0,16.46,7.37,16.46,16.46v20.09C373.64,299.69,366.27,307.07,357.18,307.07z"/>
		</g>
		<path class="st30" d="M228.32,191.53c0,6.25-2.1,12.01-5.65,16.6c-1.18,1.53-2.51,2.92-3.98,4.16
			c-4.74,4.02-10.88,6.45-17.59,6.45c-6.1,0-11.72-2-16.26-5.39c-2-1.49-3.79-3.25-5.31-5.23c-3.55-4.6-5.65-10.35-5.65-16.6
			c0-15.03,12.18-27.22,27.22-27.22C216.13,164.32,228.32,176.5,228.32,191.53z"/>
		<path class="st37" d="M212.04,204.4c-0.07-0.08-0.14-0.16-0.21-0.23c-0.31-0.24-0.63-0.39-1.88-0.61
			c-0.64-0.11-1.53-0.23-2.79-0.4c0,0-0.27-0.03-0.41-0.04c-0.1-0.01-0.2-0.02-0.32-0.03c-0.36-0.19-0.45-1.69-0.45-3.27
			c0-0.12,0-0.24,0-0.36c0.01-0.6,0.03-1.19,0.05-1.72c0-0.03,0-0.06,0-0.1c0.78,0.06,1.29,0.06,1.29,0.06
			c1.45-0.12,2.36-4,2.68-7.14c0,0,0.72-1.72,0.72-3.59c0-1.05-0.23-2.14-0.93-3c-0.37-0.44-0.71-0.73-1.02-0.91
			c-0.09-0.09-0.18-0.17-0.27-0.25c-1.35-1.5-6.83-7.11-10.43-3.86c-0.09-0.32-1.26-3.97-6.94-2.78c0.35-0.04,2.87-0.27,3.6,0.74
			c-0.1-0.04-2.3-1.02-3.68-0.17c-0.64,0.39-1.04,1.2-1.26,2.05c0,0.01,0,0.01-0.01,0.02c0,0.01,0,0.01,0,0.01v0
			c0,0.01-0.01,0.02-0.01,0.03c-0.03,0.12-0.05,0.23-0.08,0.35c0,0.02-0.01,0.03-0.01,0.05c0,0.01,0,0.01,0,0.01c0,0,0,0,0,0.01
			c-0.17,0.88-0.17,1.73-0.07,2.15c0.21,0.89,1.78,3.53,2.82,3.53c0.39,0,0.81-0.13,1.18-0.29c-0.16,0.47-0.3,0.98-0.42,1.54
			c-1.1,5.19,2.34,9.13,4.13,8.15c1.14-0.62,2.01,1.38,2.01,1.38l0.01-0.01c-0.17,3.79-1.21,6.27-1.98,6.89
			c-0.28,0.03-0.87,0.1-1.62,0.22v0c0,0-2.63,0.29-4.63,1.16c-0.02,0.01-0.03,0.01-0.05,0.02c-0.46,0.19-0.85,0.4-1.14,0.63
			c0,0.01-0.01,0.01-0.01,0.01v0c-0.15,0.12-0.28,0.25-0.37,0.38c-0.05,0.06-0.09,0.11-0.12,0.17c-0.67,1.28-1.34,3.19-1.99,5.44
			c3.85,2.87,8.62,4.57,13.79,4.57c5.69,0,10.9-2.06,14.92-5.47C214.64,206.68,212.96,205.1,212.04,204.4z"/>
		<path class="st30" d="M277.41,177.82h-29.99c-1.33,0-2.41-1.09-2.41-2.41l0,0c0-1.33,1.09-2.41,2.41-2.41h29.99
			c1.33,0,2.41,1.09,2.41,2.41l0,0C279.82,176.74,278.74,177.82,277.41,177.82z"/>
		<g>
			<path class="st30" d="M278.25,195.18h-31.67c-0.87,0-1.57-0.71-1.57-1.57l0,0c0-0.87,0.71-1.57,1.57-1.57h31.67
				c0.87,0,1.57,0.71,1.57,1.57l0,0C279.82,194.47,279.12,195.18,278.25,195.18z"/>
			<path class="st30" d="M263.86,202.62h-17.28c-0.87,0-1.57-0.71-1.57-1.57v0c0-0.87,0.71-1.57,1.57-1.57h17.28
				c0.87,0,1.57,0.71,1.57,1.57l0,0C265.44,201.92,264.73,202.62,263.86,202.62z"/>
			<path class="st30" d="M300.89,202.62H271.9c-0.87,0-1.57-0.71-1.57-1.57l0,0c0-0.87,0.71-1.57,1.57-1.57h28.99
				c0.87,0,1.57,0.71,1.57,1.57l0,0C302.46,201.92,301.76,202.62,300.89,202.62z"/>
			<path class="st30" d="M328.15,195.18h-41.52c-0.87,0-1.57-0.71-1.57-1.57l0,0c0-0.87,0.71-1.57,1.57-1.57h41.52
				c0.87,0,1.57,0.71,1.57,1.57l0,0C329.73,194.47,329.02,195.18,328.15,195.18z"/>
			<path class="st30" d="M278.25,210.07h-31.67c-0.87,0-1.57-0.71-1.57-1.57l0,0c0-0.87,0.71-1.57,1.57-1.57h31.67
				c0.87,0,1.57,0.71,1.57,1.57l0,0C279.82,209.37,279.12,210.07,278.25,210.07z"/>
			<path class="st30" d="M328.15,210.07h-41.52c-0.87,0-1.57-0.71-1.57-1.57l0,0c0-0.87,0.71-1.57,1.57-1.57h41.52
				c0.87,0,1.57,0.71,1.57,1.57l0,0C329.73,209.37,329.02,210.07,328.15,210.07z"/>
		</g>
		<path class="st30" d="M307.5,177.82h-21.18c-1.2,0-2.18-0.98-2.18-2.18v-0.46c0-1.2,0.98-2.18,2.18-2.18h21.18
			c1.2,0,2.18,0.98,2.18,2.18v0.46C309.68,176.84,308.7,177.82,307.5,177.82z"/>
		<g>
			<path class="st38" d="M279.68,332.86h-21.32c-0.94,0-1.72-0.77-1.72-1.72l0,0c0-0.94,0.77-1.72,1.72-1.72h21.32
				c0.94,0,1.72,0.77,1.72,1.72v0C281.4,332.09,280.63,332.86,279.68,332.86z"/>
			<g>
				<path class="st38" d="M280.28,341.65h-22.52c-0.62,0-1.12-0.5-1.12-1.12l0,0c0-0.62,0.5-1.12,1.12-1.12h22.52
					c0.62,0,1.12,0.5,1.12,1.12l0,0C281.4,341.15,280.9,341.65,280.28,341.65z"/>
				<path class="st38" d="M270.05,346.94h-12.29c-0.62,0-1.12-0.5-1.12-1.12l0,0c0-0.62,0.5-1.12,1.12-1.12h12.29
					c0.62,0,1.12,0.5,1.12,1.12l0,0C271.17,346.44,270.67,346.94,270.05,346.94z"/>
				<path class="st38" d="M296.38,346.94h-20.61c-0.62,0-1.12-0.5-1.12-1.12v0c0-0.62,0.5-1.12,1.12-1.12h20.61
					c0.62,0,1.12,0.5,1.12,1.12l0,0C297.5,346.44,296.99,346.94,296.38,346.94z"/>
				<path class="st38" d="M315.76,341.65h-29.52c-0.62,0-1.12-0.5-1.12-1.12l0,0c0-0.62,0.5-1.12,1.12-1.12h29.52
					c0.62,0,1.12,0.5,1.12,1.12l0,0C316.88,341.15,316.38,341.65,315.76,341.65z"/>
				<path class="st38" d="M280.28,352.24h-22.52c-0.62,0-1.12-0.5-1.12-1.12l0,0c0-0.62,0.5-1.12,1.12-1.12h22.52
					c0.62,0,1.12,0.5,1.12,1.12l0,0C281.4,351.74,280.9,352.24,280.28,352.24z"/>
				<path class="st38" d="M315.76,352.24h-29.52c-0.62,0-1.12-0.5-1.12-1.12l0,0c0-0.62,0.5-1.12,1.12-1.12h29.52
					c0.62,0,1.12,0.5,1.12,1.12l0,0C316.88,351.74,316.38,352.24,315.76,352.24z"/>
			</g>
			<path class="st38" d="M301.07,332.86h-15.06c-0.85,0-1.55-0.7-1.55-1.55v-0.33c0-0.85,0.7-1.55,1.55-1.55h15.06
				c0.85,0,1.55,0.7,1.55,1.55v0.33C302.63,332.16,301.93,332.86,301.07,332.86z"/>
		</g>
		<g>
			<path class="st38" d="M294.27,119.09h-21.32c-0.94,0-1.72-0.77-1.72-1.72v0c0-0.94,0.77-1.72,1.72-1.72h21.32
				c0.94,0,1.72,0.77,1.72,1.72l0,0C295.98,118.32,295.21,119.09,294.27,119.09z"/>
			<g>
				<path class="st38" d="M294.86,127.88h-22.52c-0.62,0-1.12-0.5-1.12-1.12l0,0c0-0.62,0.5-1.12,1.12-1.12h22.52
					c0.62,0,1.12,0.5,1.12,1.12l0,0C295.98,127.38,295.48,127.88,294.86,127.88z"/>
				<path class="st38" d="M284.63,133.18h-12.29c-0.62,0-1.12-0.5-1.12-1.12l0,0c0-0.62,0.5-1.12,1.12-1.12h12.29
					c0.62,0,1.12,0.5,1.12,1.12l0,0C285.75,132.67,285.25,133.18,284.63,133.18z"/>
				<path class="st38" d="M310.96,133.18h-20.61c-0.62,0-1.12-0.5-1.12-1.12l0,0c0-0.62,0.5-1.12,1.12-1.12h20.61
					c0.62,0,1.12,0.5,1.12,1.12l0,0C312.08,132.67,311.57,133.18,310.96,133.18z"/>
				<path class="st38" d="M330.34,127.88h-29.52c-0.62,0-1.12-0.5-1.12-1.12l0,0c0-0.62,0.5-1.12,1.12-1.12h29.52
					c0.62,0,1.12,0.5,1.12,1.12l0,0C331.46,127.38,330.96,127.88,330.34,127.88z"/>
			</g>
			<path class="st38" d="M315.66,119.09H300.6c-0.85,0-1.55-0.7-1.55-1.55v-0.33c0-0.85,0.7-1.55,1.55-1.55h15.06
				c0.85,0,1.55,0.7,1.55,1.55v0.33C317.21,118.39,316.51,119.09,315.66,119.09z"/>
		</g>
		<g>
			<path class="st38" d="M313.66,267.53h-23.34c-1.03,0-1.88-0.85-1.88-1.88l0,0c0-1.03,0.85-1.88,1.88-1.88h23.34
				c1.03,0,1.88,0.85,1.88,1.88v0C315.54,266.68,314.7,267.53,313.66,267.53z"/>
			<g>
				<path class="st38" d="M314.32,277.15h-24.65c-0.67,0-1.22-0.55-1.22-1.22l0,0c0-0.67,0.55-1.22,1.22-1.22h24.65
					c0.67,0,1.22,0.55,1.22,1.22l0,0C315.54,276.6,314.99,277.15,314.32,277.15z"/>
				<path class="st38" d="M303.12,282.95h-13.45c-0.67,0-1.22-0.55-1.22-1.22l0,0c0-0.67,0.55-1.22,1.22-1.22h13.45
					c0.67,0,1.22,0.55,1.22,1.22l0,0C304.34,282.4,303.79,282.95,303.12,282.95z"/>
				<path class="st38" d="M331.94,282.95h-22.57c-0.67,0-1.22-0.55-1.22-1.22l0,0c0-0.67,0.55-1.22,1.22-1.22h22.57
					c0.67,0,1.22,0.55,1.22,1.22v0C333.16,282.4,332.61,282.95,331.94,282.95z"/>
				<path class="st38" d="M353.16,277.15h-32.32c-0.67,0-1.22-0.55-1.22-1.22l0,0c0-0.67,0.55-1.22,1.22-1.22h32.32
					c0.67,0,1.23,0.55,1.23,1.22l0,0C354.39,276.6,353.83,277.15,353.16,277.15z"/>
				<path class="st38" d="M314.32,288.74h-24.65c-0.67,0-1.22-0.55-1.22-1.22l0,0c0-0.67,0.55-1.23,1.22-1.23h24.65
					c0.67,0,1.22,0.55,1.22,1.23l0,0C315.54,288.19,314.99,288.74,314.32,288.74z"/>
				<path class="st38" d="M353.16,288.74h-32.32c-0.67,0-1.22-0.55-1.22-1.22l0,0c0-0.67,0.55-1.23,1.22-1.23h32.32
					c0.67,0,1.23,0.55,1.23,1.23l0,0C354.39,288.19,353.83,288.74,353.16,288.74z"/>
			</g>
			<g>
				<path class="st38" d="M314.32,294.78h-24.65c-0.67,0-1.22-0.55-1.22-1.22l0,0c0-0.67,0.55-1.22,1.22-1.22h24.65
					c0.67,0,1.22,0.55,1.22,1.22l0,0C315.54,294.23,314.99,294.78,314.32,294.78z"/>
				<path class="st38" d="M353.16,294.78h-32.32c-0.67,0-1.22-0.55-1.22-1.22l0,0c0-0.67,0.55-1.22,1.22-1.22h32.32
					c0.67,0,1.23,0.55,1.23,1.22l0,0C354.39,294.23,353.83,294.78,353.16,294.78z"/>
			</g>
			<path class="st38" d="M337.08,267.53H320.6c-0.93,0-1.7-0.76-1.7-1.7v-0.36c0-0.93,0.76-1.7,1.7-1.7h16.48
				c0.93,0,1.7,0.76,1.7,1.7v0.36C338.78,266.76,338.02,267.53,337.08,267.53z"/>
		</g>
		<g>
			<path class="st30" d="M257.02,101.24l-1.67,1.2l-1.68-1.19c0.37-0.52,0.99-0.87,1.68-0.87
				C256.04,100.38,256.65,100.72,257.02,101.24z"/>
			<g>
				<path class="st30" d="M255.35,97.45c-1.68,0-3.17,0.84-4.07,2.12l1.06,0.74c0.67-0.94,1.77-1.56,3.01-1.56
					c1.23,0,2.32,0.61,2.99,1.54l1.06-0.76C258.49,98.27,257.01,97.45,255.35,97.45z"/>
			</g>
			<g>
				<path class="st30" d="M255.35,91.89c-3.56,0-6.7,1.77-8.61,4.47l1.06,0.74c1.67-2.37,4.43-3.92,7.55-3.92
					c3.09,0,5.83,1.53,7.51,3.86l1.05-0.76C262,93.63,258.87,91.89,255.35,91.89z"/>
			</g>
			<g>
				<path class="st30" d="M255.35,94.94c-2.53,0-4.77,1.25-6.14,3.17l1.06,0.74c1.13-1.58,2.98-2.61,5.08-2.61
					c2.08,0,3.92,1.02,5.05,2.58l1.05-0.75C260.08,96.17,257.86,94.94,255.35,94.94z"/>
			</g>
		</g>
		<path class="st30" d="M245.96,278.39c0,2.46,0.83,4.72,2.22,6.52c0.46,0.6,0.99,1.15,1.56,1.64c0.57,0.49,1.2,0.91,1.86,1.27
			c1.5,0.81,3.22,1.27,5.05,1.27c2.28,0,4.39-0.72,6.13-1.93c0.09-0.06,0.17-0.12,0.26-0.19c0.79-0.59,1.49-1.28,2.09-2.05
			c1.39-1.8,2.22-4.06,2.22-6.52c0-5.9-4.79-10.69-10.69-10.69C250.74,267.71,245.96,272.49,245.96,278.39z"/>
		<path class="st38" d="M259.54,285.25l-0.98-0.87c-0.08,0.02-0.16,0.03-0.25,0.05c-0.18-0.12-0.37-0.25-0.58-0.36
			c0.06-0.4,0.12-0.77,0.16-1.09c0.15-1.15,0.17-1.84,0.17-1.94c0.52-0.03,0.87-0.08,0.87-0.08c0.99-0.23,1.04-3.6,0.81-5.36
			c0.19,0,0.37-0.02,0.55-0.1c0.75-0.33,0.79-1.46,0.79-1.46s-0.22,0.4-0.54,0.53c0,0,1.25-1.71-0.2-2.88
			c-1.44-1.17-2.92-0.41-3.76-0.36c-1.84,0.11-3.04,0.22-3.64,1.44c-0.6,1.2-0.36,4.49,0.78,5.7c0.02,0.11,0.04,0.22,0.05,0.34
			c0.07,0.43,0.23,0.79,0.45,1.07c-0.26,1.42-0.84,2.47-1.37,3.18c-0.36,0.28-0.68,0.63-0.98,1.06c-0.01,0.01-0.02,0.01-0.02,0.01
			s0,0,0.01,0c-0.56,0.79-1.01,1.82-1.38,3.03c0,0.01,0,0.01-0.01,0.02c0.6,0.43,1.26,0.78,1.95,1.07c0.05,0.02,0.09,0.04,0.14,0.06
			c0.01,0,0.02,0.01,0.03,0.01c0.07,0.03,0.15,0.06,0.22,0.09c0.18,0.07,0.36,0.14,0.54,0.19c0.19,0.06,0.39,0.12,0.58,0.17
			c0.09,0.02,0.18,0.05,0.27,0.06c0.08,0.02,0.16,0.04,0.24,0.05c0.01,0,0.02,0.01,0.03,0.01c0.05,0.01,0.11,0.02,0.16,0.03
			c0.12,0.02,0.25,0.05,0.38,0.06c0.03,0,0.06,0.01,0.09,0.01c0.07,0.01,0.14,0.02,0.21,0.03c0.1,0.01,0.2,0.02,0.3,0.03
			c0.11,0.01,0.22,0.02,0.34,0.03c0.1,0.01,0.21,0.01,0.32,0.02c0.11,0,0.22,0.01,0.34,0.01c0.12,0,0.24,0,0.36-0.01
			c0.01,0,0.02,0,0.03,0c0.03,0,0.06,0,0.09,0c0.06,0,0.12,0,0.18-0.01c0.01,0,0.01,0,0.02,0c0.11-0.01,0.22-0.01,0.34-0.03
			c1.44-0.14,2.81-0.56,4.03-1.22C261.04,286.76,260.27,285.93,259.54,285.25z"/>
		<path class="st30" d="M350.91,340.53c0,2.47,0.83,4.75,2.23,6.57c0.46,0.6,0.99,1.16,1.57,1.65c1.88,1.59,4.3,2.55,6.96,2.55
			c2.41,0,4.63-0.79,6.43-2.13c0.79-0.59,1.5-1.29,2.1-2.07c1.4-1.82,2.23-4.09,2.23-6.57c0-5.94-4.82-10.76-10.76-10.76
			C355.73,329.77,350.91,334.59,350.91,340.53z"/>
		<path class="st39" d="M367.18,346.63c-0.01-0.03-0.03-0.06-0.05-0.08c-0.04-0.06-0.1-0.12-0.17-0.18l0,0
			c-0.14-0.11-0.32-0.21-0.53-0.3c-0.01,0-0.01-0.01-0.02-0.01c-0.93-0.41-2.16-0.54-2.16-0.54c-0.35-0.05-0.63-0.09-0.76-0.1
			c-0.36-0.29-0.85-1.44-0.93-3.21l0,0.01c0,0,0.4-0.94,0.94-0.64c0.83,0.45,2.44-1.38,1.93-3.8c-0.06-0.26-0.12-0.5-0.2-0.72
			c0.18,0.07,0.37,0.14,0.55,0.14c0.48,0,1.21-1.24,1.31-1.65c0.1-0.41-0.01-1.78-0.67-2.18c-0.65-0.4-1.67,0.06-1.71,0.08
			c0.33-0.46,1.46-0.37,1.66-0.35c-2.63-0.55-3.18,1.14-3.22,1.29c-1.68-1.51-4.23,1.1-4.86,1.8c-0.04,0.04-0.08,0.08-0.13,0.12
			c-0.14,0.08-0.3,0.22-0.47,0.42c-0.33,0.4-0.43,0.91-0.43,1.4c0,0.87,0.33,1.67,0.33,1.67c0.15,1.46,0.58,3.28,1.25,3.33
			c0,0,0.24,0,0.6-0.03c0,0.02,0,0.03,0,0.05c0.01,0.25,0.02,0.52,0.02,0.8v0.17c0,0.74-0.04,1.44-0.21,1.52
			c-0.06,0.01-0.1,0.01-0.15,0.01c-0.07,0-0.19,0.02-0.19,0.02c-0.59,0.08-1,0.14-1.3,0.19c-0.59,0.1-0.73,0.17-0.88,0.28
			c-0.03,0.03-0.07,0.07-0.1,0.11c-0.43,0.32-1.22,1.06-1.9,2.5c1.88,1.59,4.3,2.55,6.96,2.55c2.41,0,4.63-0.79,6.43-2.13
			C367.8,348.12,367.49,347.22,367.18,346.63z"/>
		<path class="st30" d="M350.91,124.21c0,2.47,0.83,4.75,2.23,6.57c0.46,0.6,0.99,1.16,1.57,1.65c1.88,1.59,4.3,2.55,6.96,2.55
			c2.41,0,4.63-0.79,6.43-2.13c0.79-0.59,1.5-1.29,2.1-2.07c1.4-1.82,2.23-4.09,2.23-6.57c0-5.94-4.82-10.76-10.76-10.76
			C355.73,113.45,350.91,118.27,350.91,124.21z"/>
		<path class="st39" d="M367.18,130.31c-0.01-0.03-0.03-0.05-0.05-0.08c-0.04-0.06-0.1-0.12-0.17-0.18l0,0
			c-0.14-0.11-0.32-0.21-0.53-0.3c-0.01,0-0.01-0.01-0.02-0.01c-0.93-0.41-2.16-0.54-2.16-0.54v0c-0.35-0.06-0.63-0.09-0.76-0.1
			c-0.09-0.07-0.18-0.19-0.27-0.35v0c-0.3-0.52-0.59-1.51-0.65-2.86l0,0.01c0,0,0.4-0.93,0.94-0.64c0.83,0.45,2.44-1.38,1.93-3.8
			c-0.06-0.26-0.12-0.5-0.2-0.72c0.18,0.07,0.37,0.14,0.55,0.14c0.48,0,1.21-1.24,1.31-1.65c0.1-0.42-0.01-1.78-0.67-2.18
			c-0.65-0.4-1.67,0.06-1.71,0.08c0.33-0.46,1.46-0.37,1.66-0.35c-2.63-0.55-3.18,1.15-3.22,1.29c-1.68-1.51-4.23,1.11-4.86,1.8
			c-0.04,0.04-0.08,0.08-0.13,0.12c-0.14,0.08-0.3,0.22-0.47,0.43c-0.33,0.4-0.43,0.91-0.43,1.4c0,0.87,0.33,1.67,0.33,1.67
			c0.15,1.47,0.58,3.28,1.25,3.33c0,0,0.24,0,0.6-0.03c0,0.01,0,0.03,0,0.05c0.01,0.25,0.02,0.52,0.02,0.8v0.17
			c0,0.74-0.04,1.43-0.21,1.52c-0.06,0-0.1,0.01-0.15,0.01c-0.07,0.01-0.19,0.02-0.19,0.02c-0.59,0.08-1,0.14-1.3,0.19
			c-0.59,0.1-0.73,0.17-0.88,0.28c-0.03,0.03-0.07,0.07-0.1,0.11c-0.43,0.32-1.22,1.07-1.9,2.5c0.1,0.09,0.21,0.17,0.31,0.25
			c0.02,0.01,0.04,0.03,0.05,0.04c0.08,0.06,0.16,0.12,0.24,0.18c0.06,0.05,0.11,0.09,0.17,0.13c0.06,0.04,0.12,0.08,0.18,0.12
			c0.08,0.06,0.17,0.12,0.26,0.17c0.06,0.04,0.12,0.08,0.18,0.11c0.07,0.05,0.15,0.09,0.23,0.13c0.08,0.05,0.17,0.1,0.25,0.14
			c0.01,0,0.01,0.01,0.02,0.01c0,0,0.01,0.01,0.01,0.01h0c0.01,0.01,0.03,0.01,0.04,0.02c0.07,0.04,0.14,0.07,0.2,0.1
			c0.01,0,0.01,0,0.01,0.01c0.02,0.01,0.04,0.02,0.06,0.03c0.04,0.02,0.08,0.04,0.12,0.06c0.04,0.02,0.07,0.03,0.11,0.05
			c0.08,0.04,0.17,0.08,0.26,0.12c0.09,0.04,0.18,0.07,0.27,0.11c0.04,0.02,0.08,0.03,0.12,0.05c0.04,0.01,0.08,0.03,0.12,0.05
			c0.08,0.03,0.17,0.06,0.25,0.09c0.09,0.03,0.17,0.06,0.26,0.08c0.07,0.02,0.15,0.05,0.22,0.07c0.01,0,0.01,0,0.02,0.01
			c0.05,0.01,0.09,0.03,0.14,0.04c0.26,0.07,0.52,0.13,0.78,0.18c0.12,0.02,0.23,0.05,0.35,0.06c0.03,0.01,0.06,0.01,0.09,0.01
			c0.01,0,0.01,0,0.02,0c0,0,0.01,0,0.01,0c0.08,0.01,0.15,0.02,0.23,0.03c0.02,0,0.03,0.01,0.05,0.01c0.01,0,0.02,0,0.03,0.01
			c0.07,0.01,0.14,0.02,0.21,0.02c0.01,0,0.03,0,0.04,0c0.02,0,0.04,0.01,0.06,0.01c0.13,0.01,0.25,0.02,0.38,0.03h0.02
			c0.04,0,0.08,0.01,0.12,0.01c0.03,0,0.05,0,0.07,0c0.12,0.01,0.25,0.01,0.37,0.01c2.41,0,4.63-0.79,6.43-2.13
			C367.8,131.8,367.49,130.91,367.18,130.31z"/>
	</g>
</g>
</svg>
