<?xml version="1.0" encoding="utf-8"?>
<!-- Generator: Adobe Illustrator 27.0.0, SVG Export Plug-In . SVG Version: 6.00 Build 0)  -->
<svg version="1.1" id="Layer_1" xmlns="http://www.w3.org/2000/svg" xmlns:xlink="http://www.w3.org/1999/xlink" x="0px" y="0px"
	 viewBox="0 0 71 71" style="enable-background:new 0 0 71 71;" xml:space="preserve">
<style type="text/css">
	.st0{fill:url(#SVGID_1_);}
	.st1{fill:#FFFFFF;}
	.st2{fill:#8E8E8E;}
	
		.st3{clip-path:url(#SVGID_00000063591165186761300660000005270244907618502786_);fill-rule:evenodd;clip-rule:evenodd;fill:#7F79AC;}
	
		.st4{clip-path:url(#SVGID_00000063591165186761300660000005270244907618502786_);fill:none;stroke:#FFFFFF;stroke-width:0.75;stroke-miterlimit:10;}
	.st5{clip-path:url(#SVGID_00000063591165186761300660000005270244907618502786_);fill:#7F79AC;}
	.st6{clip-path:url(#SVGID_00000063591165186761300660000005270244907618502786_);fill:#FFFFFF;}
	.st7{clip-path:url(#SVGID_00000063591165186761300660000005270244907618502786_);}
	.st8{clip-path:url(#SVGID_00000033348763985595958570000010451681517585166237_);fill:#FFFFFF;}
	.st9{clip-path:url(#SVGID_00000101786842436337287340000005034739124110500763_);fill:#FFFFFF;}
	.st10{clip-path:url(#SVGID_00000162350237107522175640000017511832630523855753_);}
	.st11{clip-path:url(#SVGID_00000119085181948344051900000014965083313359501998_);fill:none;stroke:#1D1D1B;stroke-width:0.5;}
	.st12{fill:#B8845B;}
	.st13{fill:#785439;}
	.st14{fill:#956B49;}
	.st15{fill:#583C28;}
	.st16{fill:#72B248;}
	.st17{fill:#60A036;}
	.st18{fill:#9BCA6B;}
	.st19{fill:#56962C;}
	.st20{fill:#6B6B6B;}
	.st21{opacity:0.1;fill:#FFFFFF;enable-background:new    ;}
	.st22{fill:#231F20;}
	.st23{fill:#EBEBEB;}
	.st24{fill:#32C5F4;}
	.st25{fill:#279FDA;}
	.st26{fill:#0CC243;}
	.st27{fill-rule:evenodd;clip-rule:evenodd;fill:#FFFFFF;}
</style>
<g>
	<g>
		<path class="st22" d="M6.77,3.21h57.46c1.97,0,3.56,1.59,3.56,3.56v57.46c0,1.97-1.59,3.56-3.56,3.56H6.77
			c-1.97,0-3.56-1.59-3.56-3.56V6.77C3.21,4.8,4.8,3.21,6.77,3.21z"/>
		<g>
			<circle class="st23" cx="46.1" cy="27.17" r="6.18"/>
			<path class="st23" d="M46.1,14.94c-6.75,0-12.24,5.49-12.24,12.24c0,0.1,0,0.2,0,0.3l-7.54,11c-0.18-0.01-0.36-0.02-0.54-0.02
				c-1.93,0-3.72,0.6-5.2,1.63L3.21,32.87V43.8l13.62,5.66c0.86,4.16,4.55,7.3,8.96,7.3c5.04,0,9.15-4.1,9.15-9.15
				c0-0.14,0-0.28-0.01-0.42l10.92-7.78l0,0c0.09,0,0.17,0,0.26,0c6.75,0,12.24-5.49,12.24-12.24S52.84,14.94,46.1,14.94z
				 M25.79,54.36c-2.61,0-4.88-1.5-6-3.67l3.82,1.59c0.63,0.26,1.29,0.39,1.93,0.39c1.98,0,3.86-1.17,4.66-3.11
				c1.07-2.57-0.15-5.53-2.72-6.6l-4.02-1.67c0.73-0.27,1.52-0.42,2.34-0.42c3.72,0,6.75,3.03,6.75,6.75
				C32.54,51.33,29.51,54.36,25.79,54.36z M46.1,35.37c-4.52,0-8.2-3.68-8.2-8.2s3.68-8.2,8.2-8.2s8.2,3.68,8.2,8.2
				S50.62,35.37,46.1,35.37z"/>
		</g>
	</g>
</g>
</svg>
