<svg width="20" height="20" viewBox="0 0 20 20" fill="none" xmlns="http://www.w3.org/2000/svg">
<path d="M17.7446 2.42837C15.2838 3.44757 4.73217 7.81817 1.81678 9.00937C-0.138425 9.77237 1.00618 10.4878 1.00618 10.4878C1.00618 10.4878 2.67518 11.06 4.10598 11.4892C5.53658 11.9184 6.29958 11.4416 6.29958 11.4416L13.0236 6.91117C15.408 5.28977 14.8358 6.62497 14.2634 7.19737C13.0236 8.43737 10.973 10.3924 9.25618 11.9662C8.49317 12.6338 8.87457 13.206 9.20858 13.4922C10.4484 14.5414 13.8344 16.6874 14.025 16.8304C15.0324 17.5436 17.014 18.5702 17.3154 16.4012L18.5076 8.91417C18.8892 6.38677 19.2706 4.04997 19.3182 3.38237C19.4614 1.76077 17.7446 2.42837 17.7446 2.42837Z" fill="#1B92D1"/>
</svg>
