<svg width="19" height="19" viewBox="0 0 19 19" fill="none" xmlns="http://www.w3.org/2000/svg">
<g clip-path="url(#clip0_80_1999)">
<path fill-rule="evenodd" clip-rule="evenodd" d="M9.49725 0C4.26006 0 0 4.26125 0 9.49992C0 11.5775 0.670004 13.5043 1.80896 15.0682L0.625254 18.5978L4.27676 17.4307C5.77861 18.4249 7.57088 19 9.50275 19C14.7399 19 19 14.7386 19 9.50008C19 4.26142 14.7399 0.000157038 9.50275 0.000157038L9.49725 0ZM6.84509 4.82554C6.66088 4.38436 6.52127 4.36765 6.2422 4.35631C6.14718 4.35079 6.04129 4.34528 5.9239 4.34528C5.56084 4.34528 5.18125 4.45135 4.95229 4.68589C4.67322 4.97071 3.98083 5.63523 3.98083 6.99802C3.98083 8.3608 4.97466 9.67881 5.1086 9.86323C5.24822 10.0473 7.04614 12.8845 9.83775 14.0408C12.0208 14.9455 12.6686 14.8617 13.1654 14.7556C13.8912 14.5992 14.8014 14.0629 15.0304 13.4152C15.2593 12.7672 15.2593 12.2143 15.1922 12.097C15.1252 11.9798 14.9408 11.9129 14.6618 11.7731C14.3827 11.6335 13.0258 10.9633 12.769 10.8739C12.5177 10.779 12.2777 10.8126 12.0879 11.0807C11.8199 11.4549 11.5576 11.8348 11.3453 12.0636C11.1778 12.2424 10.9041 12.2647 10.6753 12.1697C10.3682 12.0414 9.50844 11.7395 8.44748 10.7957C7.62667 10.0642 7.06838 9.15394 6.90655 8.88031C6.74456 8.60117 6.88983 8.43898 7.01809 8.28829C7.15771 8.11507 7.29166 7.99228 7.43127 7.83025C7.57089 7.66837 7.64905 7.58452 7.73839 7.39459C7.83341 7.21033 7.76627 7.0204 7.6993 6.88074C7.63233 6.74109 7.07404 5.37831 6.84509 4.82554Z" fill="#67C15E"/>
</g>
<defs>
<clipPath id="clip0_80_1999">
<rect width="19" height="19" fill="white"/>
</clipPath>
</defs>
</svg>
