<?xml version="1.0" encoding="utf-8"?>
<!-- Generator: Adobe Illustrator 27.0.0, SVG Export Plug-In . SVG Version: 6.00 Build 0)  -->
<svg version="1.1" id="Layer_1" xmlns="http://www.w3.org/2000/svg" xmlns:xlink="http://www.w3.org/1999/xlink" x="0px" y="0px"
	 viewBox="0 0 38 38" style="enable-background:new 0 0 38 38;" xml:space="preserve">
<style type="text/css">
	.st0{fill:url(#SVGID_1_);}
	.st1{fill:#FFFFFF;}
	.st2{fill:#E6E6E6;}
	.st3{fill:#470137;}
	.st4{fill:#FF61F6;}
	.st5{fill:#272727;}
	.st6{fill:#0ACF83;}
	.st7{fill:#A259FF;}
	.st8{fill:#F24E1E;}
	.st9{fill:#FF7262;}
	.st10{fill:#1ABCFE;}
	.st11{fill:#8E8E8E;}
	
		.st12{clip-path:url(#SVGID_00000002373698991158471310000004862515646946217105_);fill-rule:evenodd;clip-rule:evenodd;fill:#7F79AC;}
	
		.st13{clip-path:url(#SVGID_00000002373698991158471310000004862515646946217105_);fill:none;stroke:#FFFFFF;stroke-width:0.75;stroke-miterlimit:10;}
	.st14{clip-path:url(#SVGID_00000002373698991158471310000004862515646946217105_);fill:#7F79AC;}
	.st15{clip-path:url(#SVGID_00000002373698991158471310000004862515646946217105_);fill:#FFFFFF;}
	.st16{clip-path:url(#SVGID_00000002373698991158471310000004862515646946217105_);}
	.st17{clip-path:url(#SVGID_00000012438532621826695530000012773050186134308741_);fill:#FFFFFF;}
	.st18{clip-path:url(#SVGID_00000015350176768553010010000018001995112453356426_);fill:#FFFFFF;}
	.st19{clip-path:url(#SVGID_00000043417761582408448290000013873086387929629872_);}
	.st20{clip-path:url(#SVGID_00000073683088036480026850000007498465158182457501_);fill:none;stroke:#1D1D1B;stroke-width:0.5;}
	.st21{fill:#B8845B;}
	.st22{fill:#785439;}
	.st23{fill:#956B49;}
	.st24{fill:#583C28;}
	.st25{fill:#72B248;}
	.st26{fill:#60A036;}
	.st27{fill:#9BCA6B;}
	.st28{fill:#56962C;}
	.st29{fill:#6B6B6B;}
	.st30{opacity:0.1;fill:#FFFFFF;enable-background:new    ;}
	.st31{clip-path:url(#SVGID_00000051367959807453484990000017171910838330511258_);}
	.st32{fill:#231F20;}
	.st33{fill:#EBEBEB;}
	.st34{fill:#32C5F4;}
	.st35{fill:url(#SVGID_00000002380847740572920800000007203461217804048310_);}
	.st36{fill:url(#SVGID_00000177468804985428836040000003233820872130725787_);}
	.st37{opacity:0.74;fill:#D7F9FF;}
	.st38{fill:#DFEBFD;}
	.st39{fill:#FF4A1E;}
	.st40{fill:#EBE7F7;}
	.st41{fill:#7C409C;}
	.st42{fill:#6139BC;}
	.st43{fill:#56309E;}
	.st44{fill:url(#SVGID_00000115478997452966204730000016794280457413368203_);}
	.st45{fill:url(#SVGID_00000017494831341957398140000004327715157066664587_);}
	.st46{fill:#744DA5;}
	.st47{fill:#FFC22A;}
	.st48{fill:#4A2C76;}
	.st49{fill:#41B8E1;}
	.st50{fill:#279FDA;}
	.st51{fill:#0CC243;}
	.st52{fill-rule:evenodd;clip-rule:evenodd;fill:#FFFFFF;}
</style>
<g>
	<circle class="st2" cx="19" cy="19" r="18.03"/>
	<g>
		<g>
			<g>
				<g>
					<g>
						<path class="st3" d="M14.15,27.49h9.69c2,0,3.64-1.64,3.64-3.64v-9.69c0-2-1.64-3.64-3.64-3.64h-9.69
							c-2,0-3.64,1.64-3.64,3.64v9.69C10.51,25.85,12.15,27.49,14.15,27.49z"/>
					</g>
				</g>
			</g>
		</g>
		<g>
			<path class="st4" d="M19.36,22.32h-1.72l-1.08-2.03c-0.04-0.07-0.07-0.13-0.09-0.17c-0.02-0.04-0.04-0.09-0.06-0.15h-0.02
				c-0.03,0.07-0.05,0.13-0.08,0.17c-0.02,0.04-0.05,0.1-0.08,0.17l-1.12,2.02h-1.62l1.95-3.19l-1.82-3.19h1.7l0.96,1.82
				c0.04,0.07,0.07,0.14,0.1,0.19c0.03,0.06,0.06,0.12,0.09,0.19h0.02c0.04-0.09,0.07-0.15,0.1-0.21c0.02-0.05,0.06-0.12,0.1-0.2
				l1-1.8h1.62l-1.84,3.14L19.36,22.32z"/>
			<path class="st4" d="M23.09,21.73c-0.16,0.23-0.37,0.41-0.61,0.53s-0.52,0.18-0.84,0.18c-0.58,0-1.04-0.2-1.4-0.6
				c-0.35-0.4-0.53-0.96-0.53-1.68c0-0.75,0.19-1.36,0.58-1.81c0.39-0.45,0.93-0.68,1.61-0.68c0.25,0,0.49,0.06,0.71,0.17
				c0.22,0.11,0.38,0.24,0.47,0.39h0.02v-2.64h1.41v6.75H23.1v-0.59H23.09z M21.14,20.1c0,0.39,0.09,0.7,0.26,0.91
				c0.17,0.21,0.42,0.32,0.73,0.32c0.3,0,0.54-0.11,0.72-0.34s0.28-0.52,0.28-0.89v-0.34c0-0.29-0.09-0.53-0.27-0.73
				c-0.18-0.19-0.41-0.29-0.7-0.29c-0.32,0-0.58,0.12-0.76,0.36C21.23,19.35,21.14,19.68,21.14,20.1z"/>
		</g>
	</g>
</g>
</svg>
